SplineFontDB: 3.2
FontName: Swanston
FullName: Swanston
FamilyName: Swanston
Weight: Regular
Copyright: Copyright (c) 2023 Liam Whitelaw
UComments: "2023-4-7: Created with FontForge (http://fontforge.org)"
Version: 001.000
ItalicAngle: 0
UnderlinePosition: -4
UnderlineWidth: 0
Ascent: 52
Descent: 12
InvalidEm: 0
LayerCount: 2
Layer: 0 1 "Back" 1
Layer: 1 1 "Fore" 0
XUID: [1021 819 1899051707 1393]
StyleMap: 0x0040
FSType: 0
OS2Version: 0
OS2_WeightWidthSlopeOnly: 0
OS2_UseTypoMetrics: 1
CreationTime: 1680916401
ModificationTime: 1693879872
PfmFamily: 49
TTFWeight: 400
TTFWidth: 5
LineGap: 4
VLineGap: 0
Panose: 2 0 5 9 0 0 0 0 0 0
OS2TypoAscent: 0
OS2TypoAOffset: 1
OS2TypoDescent: 0
OS2TypoDOffset: 1
OS2TypoLinegap: 4
OS2WinAscent: 0
OS2WinAOffset: 1
OS2WinDescent: 0
OS2WinDOffset: 1
HheadAscent: 0
HheadAOffset: 1
HheadDescent: 0
HheadDOffset: 1
OS2CapHeight: 40
OS2XHeight: 28
OS2Vendor: 'PfEd'
Lookup: 260 0 0 "'mark' Mark Positioning lookup 0" { "'mark' Mark Positioning lookup 0 subtable"  } ['mark' ('DFLT' <'dflt' > 'cyrl' <'dflt' > 'grek' <'dflt' > 'latn' <'dflt' > ) ]
Lookup: 262 0 0 "'mkmk' Mark to Mark lookup 1" { "'mkmk' Mark to Mark lookup 1 subtable"  } ['mkmk' ('DFLT' <'dflt' > 'cyrl' <'dflt' > 'grek' <'dflt' > 'latn' <'dflt' > ) ]
MarkAttachClasses: 1
DEI: 91125

StartChar: exclam
Encoding: 33 33 0
Width: 32
VWidth: 48
Flags: MW
HStem: 0 8<12 20>
VStem: 12 8<0 8 16 40>
LayerCount: 2
Fore
SplineSet
12 40 m 29,0,-1
 20 40 l 1,1,-1
 20 16 l 1,2,-1
 12 16 l 1,3,-1
 12 40 l 29,0,-1
12 8 m 29,4,-1
 20 8 l 1,5,-1
 20 0 l 1,6,-1
 12 0 l 1,7,-1
 12 8 l 29,4,-1
EndSplineSet
EndChar

StartChar: quotedbl
Encoding: 34 34 1
Width: 32
VWidth: 48
Flags: W
HStem: 28 12<4 12 16 24>
VStem: 4 8<28 40> 16 8<28 40>
LayerCount: 2
Fore
SplineSet
16 40 m 25,0,-1
 24 40 l 1,1,-1
 24 28 l 1,2,-1
 16 28 l 1,3,-1
 16 40 l 25,0,-1
4 40 m 25,4,-1
 12 40 l 1,5,-1
 12 28 l 1,6,-1
 4 28 l 1,7,-1
 4 40 l 25,4,-1
EndSplineSet
EndChar

StartChar: numbersign
Encoding: 35 35 2
Width: 32
VWidth: 48
Flags: MW
HStem: 8 4<0 4 12 16 24 28> 28 4<0 4 12 16 24 28>
VStem: 4 8<0 8 12 28 32 40> 16 8<0 8 12 28 32 40>
LayerCount: 2
Fore
SplineSet
16 28 m 25,0,-1
 12 28 l 1,1,-1
 12 12 l 1,2,-1
 16 12 l 1,3,-1
 16 28 l 25,0,-1
4 40 m 25,4,-1
 12 40 l 1,5,-1
 12 32 l 1,6,-1
 16 32 l 1,7,-1
 16 40 l 1,8,-1
 24 40 l 1,9,-1
 24 32 l 1,10,-1
 28 32 l 1,11,-1
 28 28 l 1,12,-1
 24 28 l 1,13,-1
 24 12 l 1,14,-1
 28 12 l 1,15,-1
 28 8 l 1,16,-1
 24 8 l 1,17,-1
 24 0 l 1,18,-1
 16 0 l 1,19,-1
 16 8 l 1,20,-1
 12 8 l 1,21,-1
 12 0 l 1,22,-1
 4 0 l 1,23,-1
 4 8 l 1,24,-1
 0 8 l 1,25,-1
 0 12 l 1,26,-1
 4 12 l 1,27,-1
 4 28 l 1,28,-1
 0 28 l 1,29,-1
 0 32 l 1,30,-1
 4 32 l 1,31,-1
 4 40 l 25,4,-1
EndSplineSet
EndChar

StartChar: dollar
Encoding: 36 36 3
Width: 32
VWidth: 48
Flags: MW
HStem: 4 4<8 12 16 20> 16 8<8 12 16 20> 32 4<8 12 16 20>
VStem: 0 8<10 12 24 30> 12 4<0 4 8 16 24 32 36 40> 20 8<10 16 28 30>
CounterMasks: 1 fc
LayerCount: 2
Fore
SplineSet
28 28 m 1,0,-1
 20 28 l 1,1,-1
 20 32 l 1,2,-1
 16 32 l 1,3,-1
 16 24 l 1,4,-1
 22 24 l 1,5,-1
 28 18 l 1,6,-1
 28 10 l 1,7,-1
 22 4 l 1,8,-1
 16 4 l 1,9,-1
 16 0 l 1,10,-1
 12 0 l 1,11,-1
 12 4 l 1,12,-1
 6 4 l 1,13,-1
 0 10 l 1,14,-1
 0 12 l 1,15,-1
 8 12 l 1,16,-1
 8 8 l 1,17,-1
 12 8 l 1,18,-1
 12 16 l 1,19,-1
 6 16 l 1,20,-1
 0 22 l 1,21,-1
 0 30 l 1,22,-1
 6 36 l 1,23,-1
 12 36 l 1,24,-1
 12 40 l 1,25,-1
 16 40 l 1,26,-1
 16 36 l 1,27,-1
 22 36 l 1,28,-1
 28 30 l 1,29,-1
 28 28 l 1,0,-1
16 16 m 1,30,-1
 16 8 l 1,31,-1
 20 8 l 1,32,-1
 20 16 l 1,33,-1
 16 16 l 1,30,-1
12 24 m 1,34,-1
 12 32 l 1,35,-1
 8 32 l 1,36,-1
 8 24 l 1,37,-1
 12 24 l 1,34,-1
EndSplineSet
EndChar

StartChar: percent
Encoding: 37 37 5
Width: 32
Flags: W
HStem: 0 4<20 24> 8 4<20 24> 28 4<4 8> 36 4<4 8>
VStem: 0 4<32 36> 8 4<32 36> 16 4<4 8> 24 4<4 8>
LayerCount: 2
Fore
SplineSet
24 8 m 29,0,-1
 20 8 l 1,1,-1
 20 4 l 1,2,-1
 24 4 l 1,3,-1
 24 8 l 29,0,-1
8 36 m 29,4,-1
 4 36 l 1,5,-1
 4 32 l 1,6,-1
 8 32 l 1,7,-1
 8 36 l 29,4,-1
16 8 m 21,8,-1
 20 12 l 1,9,-1
 24 12 l 1,10,-1
 28 8 l 1,11,-1
 28 4 l 1,12,-1
 24 0 l 1,13,-1
 20 0 l 1,14,-1
 16 4 l 1,15,-1
 16 8 l 21,8,-1
0 36 m 29,16,-1
 4 40 l 1,17,-1
 8 40 l 1,18,-1
 12 36 l 1,19,-1
 12 32 l 1,20,-1
 8 28 l 1,21,-1
 4 28 l 1,22,-1
 0 32 l 1,23,-1
 0 36 l 29,16,-1
20 40 m 29,24,-1
 28 40 l 1,25,-1
 8 0 l 1,26,-1
 0 0 l 1,27,-1
 20 40 l 29,24,-1
EndSplineSet
EndChar

StartChar: ampersand
Encoding: 38 38 6
Width: 32
Flags: W
HStem: 0 4<8 16 24 28> 24 4<8 16 24 28>
VStem: 0 8<6 22 30 34> 16 8<6 24 28 32>
LayerCount: 2
Fore
SplineSet
6 40 m 1,0,-1
 16 40 l 1,1,-1
 16 36 l 1,2,-1
 8 36 l 1,3,-1
 8 28 l 1,4,-1
 16 28 l 1,5,-1
 16 32 l 1,6,-1
 24 32 l 1,7,-1
 24 28 l 1,8,-1
 28 28 l 1,9,-1
 28 24 l 1,10,-1
 24 24 l 1,11,-1
 24 4 l 1,12,-1
 28 4 l 1,13,-1
 28 0 l 1,14,-1
 22 0 l 1,15,-1
 16 6 l 1,16,-1
 16 24 l 1,17,-1
 8 24 l 1,18,-1
 8 4 l 1,19,-1
 16 4 l 1,20,-1
 16 0 l 1,21,-1
 6 0 l 1,22,-1
 0 6 l 1,23,-1
 0 22 l 1,24,-1
 4 26 l 1,25,-1
 0 30 l 1,26,-1
 0 34 l 1,27,-1
 6 40 l 1,0,-1
EndSplineSet
EndChar

StartChar: parenleft
Encoding: 40 40 7
Width: 32
Flags: MW
VStem: 0 8<16 24>
LayerCount: 2
Fore
SplineSet
12 40 m 1,0,-1
 20 40 l 1,1,-1
 12 32 l 1,2,-1
 8 24 l 1,3,-1
 8 16 l 1,4,-1
 12 8 l 1,5,-1
 20 0 l 1,6,-1
 12 0 l 1,7,-1
 4 8 l 1,8,-1
 0 16 l 1,9,-1
 0 24 l 1,10,-1
 4 32 l 1,11,-1
 12 40 l 1,0,-1
EndSplineSet
EndChar

StartChar: parenright
Encoding: 41 41 8
Width: 32
Flags: MW
VStem: 20 8<16 24>
LayerCount: 2
Fore
SplineSet
16 40 m 1,0,-1
 24 32 l 1,1,-1
 28 24 l 1,2,-1
 28 16 l 1,3,-1
 24 8 l 1,4,-1
 16 0 l 1,5,-1
 8 0 l 1,6,-1
 16 8 l 1,7,-1
 20 16 l 1,8,-1
 20 24 l 1,9,-1
 16 32 l 1,10,-1
 8 40 l 1,11,-1
 16 40 l 1,0,-1
EndSplineSet
EndChar

StartChar: asterisk
Encoding: 42 42 9
Width: 32
Flags: MW
HStem: 16 8<0 8 20 28>
LayerCount: 2
Fore
SplineSet
0 32 m 1,0,-1
 8 32 l 1,1,-1
 12 28 l 1,2,-1
 16 28 l 1,3,-1
 20 32 l 1,4,-1
 28 32 l 1,5,-1
 20 24 l 1,6,-1
 28 24 l 1,7,-1
 28 16 l 1,8,-1
 20 16 l 1,9,-1
 28 8 l 1,10,-1
 20 8 l 1,11,-1
 16 12 l 1,12,-1
 12 12 l 1,13,-1
 8 8 l 1,14,-1
 0 8 l 1,15,-1
 8 16 l 1,16,-1
 0 16 l 1,17,-1
 0 24 l 1,18,-1
 8 24 l 1,19,-1
 0 32 l 1,0,-1
EndSplineSet
EndChar

StartChar: plus
Encoding: 43 43 10
Width: 32
Flags: W
HStem: 16 8<4 12 20 28>
VStem: 12 8<8 16 24 32>
LayerCount: 2
Fore
SplineSet
12 32 m 29,0,-1
 20 32 l 1,1,-1
 20 24 l 1,2,-1
 28 24 l 1,3,-1
 28 16 l 1,4,-1
 20 16 l 1,5,-1
 20 8 l 1,6,-1
 12 8 l 1,7,-1
 12 16 l 1,8,-1
 4 16 l 1,9,-1
 4 24 l 1,10,-1
 12 24 l 1,11,-1
 12 32 l 29,0,-1
EndSplineSet
EndChar

StartChar: comma
Encoding: 44 44 11
Width: 32
Flags: W
HStem: -4 12<12 16>
VStem: 12 8<4 8>
LayerCount: 2
Fore
SplineSet
12 8 m 5,0,-1
 20 8 l 1,1,-1
 20 4 l 1,2,-1
 16 -4 l 1,3,-1
 8 -4 l 1,4,-1
 12 4 l 1,5,-1
 12 8 l 5,0,-1
EndSplineSet
EndChar

StartChar: hyphen
Encoding: 45 45 12
Width: 32
Flags: W
HStem: 16 8<4 28>
LayerCount: 2
Fore
SplineSet
4 24 m 29,0,-1
 28 24 l 1,1,-1
 28 16 l 1,2,-1
 4 16 l 1,3,-1
 4 24 l 29,0,-1
EndSplineSet
EndChar

StartChar: period
Encoding: 46 46 13
Width: 32
Flags: W
HStem: 0 8<12 20>
VStem: 12 8<0 8>
LayerCount: 2
Fore
SplineSet
12 8 m 25,0,-1
 20 8 l 1,1,-1
 20 0 l 1,2,-1
 12 0 l 1,3,-1
 12 8 l 25,0,-1
EndSplineSet
EndChar

StartChar: slash
Encoding: 47 47 14
Width: 32
Flags: MW
LayerCount: 2
Fore
SplineSet
20 40 m 25,0,-1
 28 40 l 1,1,-1
 8 0 l 1,2,-1
 0 0 l 1,3,-1
 20 40 l 25,0,-1
EndSplineSet
EndChar

StartChar: zero
Encoding: 48 48 15
Width: 32
Flags: W
HStem: 0 4<8 20> 36 4<8 20>
VStem: 0 8<6 10 18 34> 20 8<6 22 30 34>
LayerCount: 2
Fore
SplineSet
20 22 m 1,0,-1
 8 10 l 1,1,-1
 8 4 l 1,2,-1
 20 4 l 1,3,-1
 20 22 l 1,0,-1
20 36 m 1,4,-1
 8 36 l 1,5,-1
 8 18 l 1,6,-1
 20 30 l 1,7,-1
 20 36 l 1,4,-1
6 40 m 1,8,-1
 22 40 l 1,9,-1
 28 34 l 1,10,-1
 28 6 l 1,11,-1
 22 0 l 1,12,-1
 6 0 l 1,13,-1
 0 6 l 1,14,-1
 0 34 l 1,15,-1
 6 40 l 1,8,-1
EndSplineSet
EndChar

StartChar: one
Encoding: 49 49 16
Width: 32
Flags: MW
HStem: 0 4<4 12 20 28>
VStem: 12 8<4 28>
LayerCount: 2
Fore
SplineSet
4 0 m 25,0,-1
 4 4 l 1,1,-1
 12 4 l 1,2,-1
 12 28 l 1,3,-1
 4 28 l 1,4,-1
 4 30 l 1,5,-1
 14 40 l 1,6,-1
 20 40 l 1,7,-1
 20 4 l 1,8,-1
 28 4 l 1,9,-1
 28 0 l 1,10,-1
 4 0 l 25,0,-1
EndSplineSet
EndChar

StartChar: two
Encoding: 50 50 17
Width: 32
Flags: MW
HStem: 0 4<8 28> 36 4<8 20>
VStem: 0 8<28 34> 20 8<24 34>
LayerCount: 2
Fore
SplineSet
0 34 m 1,0,-1
 6 40 l 1,1,-1
 22 40 l 1,2,-1
 28 34 l 1,3,-1
 28 24 l 1,4,-1
 8 4 l 1,5,-1
 28 4 l 1,6,-1
 28 0 l 1,7,-1
 0 0 l 1,8,-1
 0 4 l 1,9,-1
 20 24 l 1,10,-1
 20 36 l 1,11,-1
 8 36 l 1,12,-1
 8 28 l 1,13,-1
 0 28 l 1,14,-1
 0 34 l 1,0,-1
EndSplineSet
EndChar

StartChar: three
Encoding: 51 51 18
Width: 32
Flags: MW
HStem: 0 4<8 20> 20 4<12 20> 36 4<8 20>
VStem: 0 8<6 12 28 34> 20 8<6 18 26 34>
LayerCount: 2
Fore
SplineSet
0 34 m 1,0,-1
 6 40 l 1,1,-1
 22 40 l 1,2,-1
 28 34 l 1,3,-1
 28 26 l 1,4,-1
 24 22 l 1,5,-1
 28 18 l 1,6,-1
 28 6 l 1,7,-1
 22 0 l 1,8,-1
 6 0 l 1,9,-1
 0 6 l 1,10,-1
 0 12 l 1,11,-1
 8 12 l 1,12,-1
 8 4 l 1,13,-1
 20 4 l 1,14,-1
 20 20 l 1,15,-1
 12 20 l 1,16,-1
 12 24 l 1,17,-1
 20 24 l 1,18,-1
 20 36 l 1,19,-1
 8 36 l 1,20,-1
 8 28 l 1,21,-1
 0 28 l 1,22,-1
 0 34 l 1,0,-1
EndSplineSet
EndChar

StartChar: four
Encoding: 52 52 19
Width: 32
Flags: MW
HStem: 8 4<8 16 24 28>
VStem: 16 8<0 8 12 28>
LayerCount: 2
Fore
SplineSet
16 28 m 1,0,-1
 8 12 l 1,1,-1
 16 12 l 1,2,-1
 16 28 l 1,0,-1
16 40 m 1,3,-1
 24 40 l 1,4,-1
 24 12 l 1,5,-1
 28 12 l 1,6,-1
 28 8 l 1,7,-1
 24 8 l 1,8,-1
 24 0 l 1,9,-1
 16 0 l 1,10,-1
 16 8 l 1,11,-1
 0 8 l 1,12,-1
 0 12 l 1,13,-1
 16 40 l 1,3,-1
EndSplineSet
EndChar

StartChar: A
Encoding: 65 65 20
Width: 32
Flags: MW
HStem: 12 4<8 20> 32 8<12 16>
VStem: 0 8<0 12 16 24> 20 8<0 12 16 24>
AnchorPoint: "bottom" 24 0 basechar 0
AnchorPoint: "top" 14 40 basechar 0
LayerCount: 2
Fore
SplineSet
16 32 m 1,0,-1
 12 32 l 1,1,-1
 8 24 l 1,2,-1
 8 16 l 1,3,-1
 20 16 l 1,4,-1
 20 24 l 1,5,-1
 16 32 l 1,0,-1
8 40 m 5,6,-1
 20 40 l 1,7,-1
 28 24 l 1,8,-1
 28 0 l 1,9,-1
 20 0 l 1,10,-1
 20 12 l 1,11,-1
 8 12 l 1,12,-1
 8 0 l 1,13,-1
 0 0 l 1,14,-1
 0 24 l 1,15,-1
 8 40 l 5,6,-1
EndSplineSet
EndChar

StartChar: B
Encoding: 66 66 21
Width: 32
Flags: W
HStem: 0 4<8 20> 20 4<8 20> 36 4<8 20>
VStem: 0 8<4 20 24 36> 20 8<6 18 26 34>
AnchorPoint: "bottom" 14 0 basechar 0
AnchorPoint: "top" 14 40 basechar 0
LayerCount: 2
Fore
SplineSet
20 20 m 1,0,-1
 8 20 l 1,1,-1
 8 4 l 1,2,-1
 20 4 l 1,3,-1
 20 20 l 1,0,-1
20 36 m 25,4,-1
 8 36 l 1,5,-1
 8 24 l 1,6,-1
 20 24 l 1,7,-1
 20 36 l 25,4,-1
0 40 m 1,8,-1
 22 40 l 1,9,-1
 28 34 l 1,10,-1
 28 26 l 1,11,-1
 24 22 l 1,12,-1
 28 18 l 1,13,-1
 28 6 l 1,14,-1
 22 0 l 1,15,-1
 0 0 l 1,16,-1
 0 40 l 1,8,-1
EndSplineSet
EndChar

StartChar: C
Encoding: 67 67 22
Width: 32
Flags: MW
HStem: 0 4<8 20> 36 4<8 20>
VStem: 0 8<6 34> 20 8<6 12 28 34>
AnchorPoint: "bottom" 14 0 basechar 0
AnchorPoint: "top" 14 40 basechar 0
LayerCount: 2
Fore
SplineSet
0 34 m 1,0,-1
 6 40 l 1,1,-1
 22 40 l 1,2,-1
 28 34 l 1,3,-1
 28 28 l 1,4,-1
 20 28 l 1,5,-1
 20 36 l 1,6,-1
 8 36 l 1,7,-1
 8 4 l 1,8,-1
 20 4 l 1,9,-1
 20 12 l 1,10,-1
 28 12 l 1,11,-1
 28 6 l 1,12,-1
 22 0 l 1,13,-1
 6 0 l 1,14,-1
 0 6 l 1,15,-1
 0 34 l 1,0,-1
EndSplineSet
EndChar

StartChar: five
Encoding: 53 53 23
Width: 32
Flags: W
HStem: 0 4<8 20> 20 4<8 20> 36 4<8 28>
VStem: 0 8<6 8 24 36> 20 8<6 18>
LayerCount: 2
Fore
SplineSet
0 8 m 1,0,-1
 8 8 l 1,1,-1
 8 4 l 1,2,-1
 20 4 l 1,3,-1
 20 20 l 1,4,-1
 0 20 l 1,5,-1
 0 40 l 1,6,-1
 28 40 l 1,7,-1
 28 36 l 1,8,-1
 8 36 l 1,9,-1
 8 24 l 1,10,-1
 22 24 l 1,11,-1
 28 18 l 1,12,-1
 28 6 l 1,13,-1
 22 0 l 1,14,-1
 6 0 l 1,15,-1
 0 6 l 1,16,-1
 0 8 l 1,0,-1
EndSplineSet
EndChar

StartChar: six
Encoding: 54 54 24
Width: 32
Flags: W
HStem: 0 4<8 20> 20 4<8 20> 36 4<14 24>
VStem: 0 8<6 20 24 30> 20 8<6 18>
LayerCount: 2
Fore
SplineSet
20 20 m 5,0,-1
 8 20 l 1,1,-1
 8 4 l 1,2,-1
 20 4 l 1,3,-1
 20 20 l 5,0,-1
10 40 m 5,4,-1
 24 40 l 1,5,-1
 24 36 l 1,6,-1
 14 36 l 1,7,-1
 8 30 l 1,8,-1
 8 24 l 1,9,-1
 22 24 l 1,10,-1
 28 18 l 1,11,-1
 28 6 l 1,12,-1
 22 0 l 1,13,-1
 6 0 l 1,14,-1
 0 6 l 1,15,-1
 0 24 l 1,16,-1
 0 30 l 1,17,-1
 10 40 l 5,4,-1
EndSplineSet
EndChar

StartChar: seven
Encoding: 55 55 25
Width: 32
Flags: MW
HStem: 36 4<0 20>
LayerCount: 2
Fore
SplineSet
0 40 m 1,0,-1
 28 40 l 1,1,-1
 28 36 l 1,2,-1
 12 0 l 1,3,-1
 4 0 l 1,4,-1
 20 36 l 1,5,-1
 0 36 l 1,6,-1
 0 40 l 1,0,-1
EndSplineSet
EndChar

StartChar: eight
Encoding: 56 56 26
Width: 32
Flags: W
HStem: 0 4<8 20> 20 4<8 20> 36 4<8 20>
VStem: 0 8<6 18 26 34> 20 8<6 18 26 34>
LayerCount: 2
Fore
SplineSet
20 20 m 1,0,-1
 8 20 l 1,1,-1
 8 4 l 1,2,-1
 20 4 l 1,3,-1
 20 20 l 1,0,-1
20 36 m 25,4,-1
 8 36 l 1,5,-1
 8 24 l 1,6,-1
 20 24 l 1,7,-1
 20 36 l 25,4,-1
6 40 m 1,8,-1
 22 40 l 1,9,-1
 28 34 l 1,10,-1
 28 26 l 1,11,-1
 24 22 l 1,12,-1
 28 18 l 1,13,-1
 28 6 l 1,14,-1
 22 0 l 1,15,-1
 6 0 l 1,16,-1
 0 6 l 1,17,-1
 0 18 l 1,18,-1
 4 22 l 1,19,-1
 0 26 l 1,20,-1
 0 34 l 1,21,-1
 6 40 l 1,8,-1
EndSplineSet
EndChar

StartChar: nine
Encoding: 57 57 27
Width: 32
Flags: W
HStem: 0 4<4 14> 20 4<8 20> 36 4<8 20>
VStem: 0 8<26 34> 20 8<10 20 24 34>
LayerCount: 2
Fore
SplineSet
8 24 m 1,0,-1
 20 24 l 1,1,-1
 20 36 l 1,2,-1
 8 36 l 1,3,-1
 8 24 l 1,0,-1
4 0 m 1,4,-1
 4 4 l 1,5,-1
 14 4 l 1,6,-1
 20 10 l 1,7,-1
 20 20 l 1,8,-1
 6 20 l 1,9,-1
 0 26 l 1,10,-1
 0 34 l 1,11,-1
 6 40 l 1,12,-1
 22 40 l 1,13,-1
 28 34 l 1,14,-1
 28 20 l 1,15,-1
 28 10 l 1,16,-1
 18 0 l 1,17,-1
 4 0 l 1,4,-1
EndSplineSet
EndChar

StartChar: colon
Encoding: 58 58 28
Width: 32
Flags: W
HStem: 0 8<12 20> 20 8<12 20>
VStem: 12 8<0 8 20 28>
LayerCount: 2
Fore
SplineSet
12 8 m 25,0,-1
 20 8 l 1,1,-1
 20 0 l 1,2,-1
 12 0 l 1,3,-1
 12 8 l 25,0,-1
12 28 m 25,4,-1
 20 28 l 1,5,-1
 20 20 l 1,6,-1
 12 20 l 1,7,-1
 12 28 l 25,4,-1
EndSplineSet
EndChar

StartChar: semicolon
Encoding: 59 59 29
Width: 32
Flags: W
HStem: 20 8<12 20>
VStem: 12 8<4 8 20 28>
LayerCount: 2
Fore
SplineSet
12 8 m 9,0,-1
 20 8 l 1,1,-1
 20 4 l 1,2,-1
 16 -4 l 1,3,-1
 8 -4 l 1,4,-1
 12 4 l 1,5,-1
 12 8 l 9,0,-1
12 28 m 25,6,-1
 20 28 l 1,7,-1
 20 20 l 1,8,-1
 12 20 l 1,9,-1
 12 28 l 25,6,-1
EndSplineSet
EndChar

StartChar: less
Encoding: 60 60 30
Width: 32
Flags: MW
LayerCount: 2
Fore
SplineSet
16 40 m 5,0,-1
 24 40 l 1,1,-1
 8 20 l 1,2,-1
 24 0 l 1,3,-1
 16 0 l 1,4,-1
 0 20 l 1,5,-1
 16 40 l 5,0,-1
EndSplineSet
EndChar

StartChar: greater
Encoding: 62 62 31
Width: 32
Flags: MW
LayerCount: 2
Fore
SplineSet
12 40 m 1,0,-1
 28 20 l 1,1,-1
 12 0 l 1,2,-1
 4 0 l 1,3,-1
 20 20 l 1,4,-1
 4 40 l 1,5,-1
 12 40 l 1,0,-1
EndSplineSet
EndChar

StartChar: equal
Encoding: 61 61 32
Width: 32
Flags: W
HStem: 8 8<0 28> 20 8<0 28>
LayerCount: 2
Fore
SplineSet
0 16 m 29,0,-1
 28 16 l 1,1,-1
 28 8 l 1,2,-1
 0 8 l 1,3,-1
 0 16 l 29,0,-1
0 28 m 5,4,-1
 28 28 l 1,5,-1
 28 20 l 1,6,-1
 0 20 l 1,7,-1
 0 28 l 5,4,-1
EndSplineSet
EndChar

StartChar: question
Encoding: 63 63 33
Width: 32
Flags: MW
HStem: 0 8<8 16> 36 4<8 16>
VStem: 0 8<28 34> 8 8<0 8> 16 8<24 34>
LayerCount: 2
Fore
SplineSet
0 28 m 5,0,-1
 0 34 l 1,1,-1
 6 40 l 1,2,-1
 18 40 l 1,3,-1
 24 34 l 1,4,-1
 24 24 l 1,5,-1
 16 16 l 1,6,-1
 8 16 l 1,7,-1
 16 24 l 1,8,-1
 16 36 l 1,9,-1
 8 36 l 1,10,-1
 8 28 l 1,11,-1
 0 28 l 5,0,-1
8 8 m 29,12,-1
 16 8 l 1,13,-1
 16 0 l 1,14,-1
 8 0 l 1,15,-1
 8 8 l 29,12,-1
EndSplineSet
EndChar

StartChar: at
Encoding: 64 64 34
Width: 32
Flags: W
HStem: 0 4<8 20> 12 4<12 16> 20 4<12 16> 36 4<8 20>
VStem: 0 8<6 16 20 34> 20 8<6 8 22 34>
LayerCount: 2
Fore
SplineSet
0 34 m 1,0,-1
 6 40 l 1,1,-1
 22 40 l 1,2,-1
 28 34 l 1,3,-1
 28 22 l 1,4,-1
 18 12 l 1,5,-1
 12 12 l 1,6,-1
 8 16 l 1,7,-1
 8 4 l 1,8,-1
 20 4 l 1,9,-1
 20 8 l 1,10,-1
 28 8 l 1,11,-1
 28 6 l 1,12,-1
 22 0 l 1,13,-1
 6 0 l 1,14,-1
 0 6 l 1,15,-1
 0 34 l 1,0,-1
12 24 m 1,16,-1
 16 24 l 1,17,-1
 20 20 l 1,18,-1
 20 36 l 1,19,-1
 8 36 l 1,20,-1
 8 20 l 1,21,-1
 12 24 l 1,16,-1
16 20 m 1,22,-1
 12 20 l 1,23,-1
 12 16 l 1,24,-1
 16 16 l 1,25,-1
 16 20 l 1,22,-1
EndSplineSet
EndChar

StartChar: D
Encoding: 68 68 35
Width: 32
Flags: W
HStem: 0 4<8 14> 36 4<8 14>
VStem: 0 8<4 36> 20 8<12 28>
AnchorPoint: "bottom" 14 0 basechar 0
AnchorPoint: "top" 14 40 basechar 0
LayerCount: 2
Fore
SplineSet
14 36 m 5,0,-1
 8 36 l 1,1,-1
 8 4 l 1,2,-1
 14 4 l 1,3,-1
 20 12 l 1,4,-1
 20 28 l 1,5,-1
 14 36 l 5,0,-1
0 40 m 29,6,-1
 20 40 l 1,7,-1
 28 28 l 1,8,-1
 28 12 l 1,9,-1
 20 0 l 1,10,-1
 0 0 l 1,11,-1
 0 40 l 29,6,-1
EndSplineSet
EndChar

StartChar: E
Encoding: 69 69 36
Width: 32
Flags: W
HStem: 0 4<8 28> 20 4<8 24> 36 4<8 28>
VStem: 0 8<4 20 24 36>
AnchorPoint: "bottom" 26 0 basechar 0
AnchorPoint: "top" 14 40 basechar 0
LayerCount: 2
Fore
SplineSet
0 40 m 25,0,-1
 28 40 l 1,1,-1
 28 36 l 1,2,-1
 8 36 l 1,3,-1
 8 24 l 1,4,-1
 24 24 l 1,5,-1
 24 20 l 1,6,-1
 8 20 l 1,7,-1
 8 4 l 1,8,-1
 28 4 l 1,9,-1
 28 0 l 1,10,-1
 0 0 l 1,11,-1
 0 40 l 25,0,-1
EndSplineSet
EndChar

StartChar: F
Encoding: 70 70 37
Width: 32
Flags: MW
HStem: 20 4<8 24> 36 4<8 28>
VStem: 0 8<0 20 24 36>
AnchorPoint: "bottom" 4 0 basechar 0
AnchorPoint: "top" 14 40 basechar 0
LayerCount: 2
Fore
SplineSet
0 40 m 25,0,-1
 28 40 l 1,1,-1
 28 36 l 1,2,-1
 8 36 l 1,3,-1
 8 24 l 1,4,-1
 24 24 l 1,5,-1
 24 20 l 1,6,-1
 8 20 l 1,7,-1
 8 0 l 1,8,-1
 0 0 l 1,9,-1
 0 40 l 25,0,-1
EndSplineSet
EndChar

StartChar: G
Encoding: 71 71 38
Width: 32
Flags: MW
HStem: 0 4<8 20> 16 4<12 20> 36 4<8 20>
VStem: 0 8<6 34> 20 8<6 16 28 34>
AnchorPoint: "bottom" 14 0 basechar 0
AnchorPoint: "top" 14 40 basechar 0
LayerCount: 2
Fore
SplineSet
0 34 m 5,0,-1
 6 40 l 1,1,-1
 22 40 l 1,2,-1
 28 34 l 1,3,-1
 28 28 l 1,4,-1
 20 28 l 1,5,-1
 20 36 l 1,6,-1
 8 36 l 1,7,-1
 8 4 l 1,8,-1
 20 4 l 1,9,-1
 20 16 l 1,10,-1
 12 16 l 1,11,-1
 12 20 l 1,12,-1
 28 20 l 1,13,-1
 28 6 l 1,14,-1
 22 0 l 1,15,-1
 6 0 l 1,16,-1
 0 6 l 1,17,-1
 0 34 l 5,0,-1
EndSplineSet
EndChar

StartChar: H
Encoding: 72 72 39
Width: 32
Flags: MW
HStem: 20 4<8 20>
VStem: 0 8<0 20 24 40> 20 8<0 20 24 40>
AnchorPoint: "bottom" 14 0 basechar 0
AnchorPoint: "top" 14 40 basechar 0
LayerCount: 2
Fore
SplineSet
0 40 m 25,0,-1
 8 40 l 1,1,-1
 8 24 l 1,2,-1
 20 24 l 1,3,-1
 20 40 l 1,4,-1
 28 40 l 1,5,-1
 28 0 l 1,6,-1
 20 0 l 1,7,-1
 20 20 l 1,8,-1
 8 20 l 1,9,-1
 8 0 l 1,10,-1
 0 0 l 1,11,-1
 0 40 l 25,0,-1
EndSplineSet
EndChar

StartChar: I
Encoding: 73 73 40
Width: 32
Flags: W
HStem: 0 4<4 8 16 20> 36 4<4 8 16 20>
VStem: 8 8<4 36>
AnchorPoint: "bottom" 12 0 basechar 0
AnchorPoint: "top" 12 40 basechar 0
LayerCount: 2
Fore
SplineSet
4 40 m 29,0,-1
 20 40 l 1,1,-1
 20 36 l 1,2,-1
 16 36 l 1,3,-1
 16 4 l 1,4,-1
 20 4 l 1,5,-1
 20 0 l 1,6,-1
 4 0 l 1,7,-1
 4 4 l 1,8,-1
 8 4 l 1,9,-1
 8 36 l 1,10,-1
 4 36 l 1,11,-1
 4 40 l 29,0,-1
EndSplineSet
EndChar

StartChar: J
Encoding: 74 74 41
Width: 32
Flags: MW
HStem: 0 4<8 20>
VStem: 0 8<6 12> 20 8<6 40>
LayerCount: 2
Fore
SplineSet
20 40 m 5,0,-1
 28 40 l 1,1,-1
 28 6 l 1,2,-1
 22 0 l 1,3,-1
 6 0 l 1,4,-1
 0 6 l 1,5,-1
 0 12 l 1,6,-1
 8 12 l 1,7,-1
 8 4 l 1,8,-1
 20 4 l 1,9,-1
 20 40 l 5,0,-1
EndSplineSet
EndChar

StartChar: K
Encoding: 75 75 42
Width: 32
Flags: MW
HStem: 16 8
VStem: 0 8<0 16 24 40>
AnchorPoint: "top" 14 40 basechar 0
AnchorPoint: "bottom" 14 0 basechar 0
LayerCount: 2
Fore
SplineSet
0 40 m 29,0,-1
 8 40 l 1,1,-1
 8 24 l 1,2,-1
 20 40 l 1,3,-1
 28 40 l 1,4,-1
 14 20 l 1,5,-1
 28 0 l 1,6,-1
 20 0 l 1,7,-1
 8 16 l 1,8,-1
 8 0 l 1,9,-1
 0 0 l 1,10,-1
 0 40 l 29,0,-1
EndSplineSet
EndChar

StartChar: L
Encoding: 76 76 43
Width: 32
Flags: MW
HStem: 0 4<8 28>
VStem: 0 8<4 40>
AnchorPoint: "top" 4 40 basechar 0
AnchorPoint: "bottom" 16 0 basechar 0
LayerCount: 2
Fore
SplineSet
0 40 m 29,0,-1
 8 40 l 1,1,-1
 8 4 l 1,2,-1
 28 4 l 1,3,-1
 28 0 l 1,4,-1
 0 0 l 1,5,-1
 0 40 l 29,0,-1
EndSplineSet
EndChar

StartChar: M
Encoding: 77 77 44
Width: 32
Flags: MW
VStem: 0 8<0 28> 20 8<0 28>
LayerCount: 2
Fore
SplineSet
0 0 m 29,0,-1
 0 40 l 1,1,-1
 8 40 l 1,2,-1
 14 32 l 1,3,-1
 20 40 l 1,4,-1
 28 40 l 1,5,-1
 28 0 l 1,6,-1
 20 0 l 1,7,-1
 20 28 l 1,8,-1
 14 20 l 1,9,-1
 8 28 l 1,10,-1
 8 0 l 1,11,-1
 0 0 l 29,0,-1
EndSplineSet
EndChar

StartChar: N
Encoding: 78 78 45
Width: 32
Flags: MW
VStem: 0 8<0 24> 20 8<16 40>
AnchorPoint: "bottom" 14 0 basechar 0
AnchorPoint: "top" 14 40 basechar 0
LayerCount: 2
Fore
SplineSet
0 40 m 25,0,-1
 8 40 l 1,1,-1
 20 16 l 1,2,-1
 20 40 l 1,3,-1
 28 40 l 1,4,-1
 28 0 l 1,5,-1
 20 0 l 1,6,-1
 8 24 l 1,7,-1
 8 0 l 1,8,-1
 0 0 l 1,9,-1
 0 40 l 25,0,-1
EndSplineSet
EndChar

StartChar: O
Encoding: 79 79 46
Width: 32
Flags: W
HStem: 0 4<8 20> 36 4<8 20>
VStem: 0 8<6 34> 20 8<6 34>
AnchorPoint: "bottom" 14 0 basechar 0
AnchorPoint: "top" 14 40 basechar 0
LayerCount: 2
Fore
SplineSet
20 36 m 29,0,-1
 8 36 l 1,1,-1
 8 4 l 1,2,-1
 20 4 l 1,3,-1
 20 36 l 29,0,-1
6 40 m 5,4,-1
 22 40 l 1,5,-1
 28 34 l 1,6,-1
 28 6 l 1,7,-1
 22 0 l 1,8,-1
 6 0 l 1,9,-1
 0 6 l 1,10,-1
 0 34 l 1,11,-1
 6 40 l 5,4,-1
EndSplineSet
EndChar

StartChar: P
Encoding: 80 80 47
Width: 32
Flags: MW
HStem: 20 4<8 20> 36 4<8 20>
VStem: 0 8<0 20 24 36> 20 8<26 34>
AnchorPoint: "bottom" 4 0 basechar 0
AnchorPoint: "top" 14 40 basechar 0
LayerCount: 2
Fore
SplineSet
20 36 m 25,0,-1
 8 36 l 1,1,-1
 8 24 l 1,2,-1
 20 24 l 1,3,-1
 20 36 l 25,0,-1
0 0 m 25,4,-1
 0 40 l 1,5,-1
 22 40 l 1,6,-1
 28 34 l 1,7,-1
 28 26 l 1,8,-1
 22 20 l 1,9,-1
 8 20 l 1,10,-1
 8 0 l 1,11,-1
 0 0 l 25,4,-1
EndSplineSet
EndChar

StartChar: Q
Encoding: 81 81 48
Width: 32
Flags: W
HStem: 0 4<8 12> 36 4<8 20>
VStem: 0 8<6 34> 20 8<12 34>
AnchorPoint: "bottom" 14 0 basechar 0
AnchorPoint: "top" 14 40 basechar 0
LayerCount: 2
Fore
SplineSet
20 36 m 25,0,-1
 8 36 l 1,1,-1
 8 4 l 1,2,-1
 12 4 l 1,3,-1
 20 12 l 1,4,-1
 20 36 l 25,0,-1
0 34 m 1,5,-1
 6 40 l 1,6,-1
 22 40 l 1,7,-1
 28 34 l 1,8,-1
 28 12 l 1,9,-1
 24 8 l 1,10,-1
 28 4 l 1,11,-1
 28 0 l 1,12,-1
 24 0 l 1,13,-1
 20 4 l 1,14,-1
 16 0 l 1,15,-1
 6 0 l 1,16,-1
 0 6 l 1,17,-1
 0 34 l 1,5,-1
EndSplineSet
EndChar

StartChar: R
Encoding: 82 82 49
Width: 32
Flags: MW
HStem: 20 4<16 20> 36 4<8 20>
VStem: 0 8<0 20 24 36> 20 8<0 6 26 34>
AnchorPoint: "bottom" 14 0 basechar 0
AnchorPoint: "top" 14 40 basechar 0
LayerCount: 2
Fore
SplineSet
20 36 m 1,0,-1
 8 36 l 1,1,-1
 8 24 l 1,2,-1
 20 24 l 1,3,-1
 20 36 l 1,0,-1
0 0 m 25,4,-1
 0 40 l 1,5,-1
 22 40 l 1,6,-1
 28 34 l 1,7,-1
 28 26 l 1,8,-1
 22 20 l 1,9,-1
 16 20 l 1,10,-1
 28 6 l 1,11,-1
 28 0 l 1,12,-1
 20 0 l 1,13,-1
 20 6 l 1,14,-1
 8 20 l 1,15,-1
 8 0 l 1,16,-1
 0 0 l 25,4,-1
EndSplineSet
EndChar

StartChar: S
Encoding: 83 83 50
Width: 32
Flags: W
HStem: 0 4<8 20> 36 4<8 20>
VStem: 0 8<6 8 28 34> 20 8<6 14 32 34>
AnchorPoint: "bottom" 14 0 basechar 0
AnchorPoint: "top" 14 40 basechar 0
LayerCount: 2
Fore
SplineSet
0 34 m 1,0,-1
 6 40 l 1,1,-1
 22 40 l 1,2,-1
 28 34 l 1,3,-1
 28 32 l 1,4,-1
 20 32 l 1,5,-1
 20 36 l 1,6,-1
 8 36 l 1,7,-1
 8 28 l 1,8,-1
 28 16 l 1,9,-1
 28 6 l 1,10,-1
 22 0 l 1,11,-1
 6 0 l 1,12,-1
 0 6 l 1,13,-1
 0 8 l 1,14,-1
 8 8 l 1,15,-1
 8 4 l 1,16,-1
 20 4 l 1,17,-1
 20 14 l 1,18,-1
 0 26 l 1,19,-1
 0 34 l 1,0,-1
EndSplineSet
EndChar

StartChar: T
Encoding: 84 84 51
Width: 32
Flags: MW
HStem: 36 4<0 8 16 24>
VStem: 8 8<0 36>
AnchorPoint: "bottom" 12 0 basechar 0
AnchorPoint: "top" 12 40 basechar 0
LayerCount: 2
Fore
SplineSet
0 40 m 29,0,-1
 24 40 l 1,1,-1
 24 36 l 1,2,-1
 16 36 l 1,3,-1
 16 0 l 1,4,-1
 8 0 l 1,5,-1
 8 36 l 1,6,-1
 0 36 l 1,7,-1
 0 40 l 29,0,-1
EndSplineSet
EndChar

StartChar: U
Encoding: 85 85 52
Width: 32
Flags: MW
HStem: 0 4<8 20>
VStem: 0 8<6 40> 20 8<6 40>
AnchorPoint: "bottom" 14 0 basechar 0
AnchorPoint: "top" 14 40 basechar 0
LayerCount: 2
Fore
SplineSet
0 40 m 25,0,-1
 8 40 l 1,1,-1
 8 4 l 1,2,-1
 20 4 l 1,3,-1
 20 40 l 1,4,-1
 28 40 l 1,5,-1
 28 6 l 1,6,-1
 22 0 l 1,7,-1
 6 0 l 1,8,-1
 0 6 l 1,9,-1
 0 40 l 25,0,-1
EndSplineSet
EndChar

StartChar: V
Encoding: 86 86 53
Width: 32
Flags: MW
LayerCount: 2
Fore
SplineSet
0 40 m 1,0,-1
 8 40 l 1,1,-1
 14 16 l 1,2,-1
 20 40 l 1,3,-1
 28 40 l 1,4,-1
 18 0 l 1,5,-1
 10 0 l 1,6,-1
 0 40 l 1,0,-1
EndSplineSet
EndChar

StartChar: W
Encoding: 87 87 54
Width: 32
Flags: MW
VStem: 0 8<12 40> 20 8<12 40>
AnchorPoint: "bottom" 14 0 basechar 0
AnchorPoint: "top" 14 40 basechar 0
LayerCount: 2
Fore
SplineSet
0 40 m 25,0,-1
 8 40 l 1,1,-1
 8 12 l 1,2,-1
 14 20 l 1,3,-1
 20 12 l 1,4,-1
 20 40 l 1,5,-1
 28 40 l 1,6,-1
 28 0 l 1,7,-1
 20 0 l 1,8,-1
 14 8 l 1,9,-1
 8 0 l 1,10,-1
 0 0 l 1,11,-1
 0 40 l 25,0,-1
EndSplineSet
EndChar

StartChar: X
Encoding: 88 88 55
Width: 32
Flags: MW
LayerCount: 2
Fore
SplineSet
0 40 m 5,0,-1
 8 40 l 1,1,-1
 14 28 l 1,2,-1
 20 40 l 1,3,-1
 28 40 l 1,4,-1
 18 20 l 1,5,-1
 28 0 l 1,6,-1
 20 0 l 1,7,-1
 14 12 l 1,8,-1
 8 0 l 1,9,-1
 0 0 l 1,10,-1
 10 20 l 1,11,-1
 0 40 l 5,0,-1
EndSplineSet
EndChar

StartChar: Y
Encoding: 89 89 56
Width: 32
Flags: MW
VStem: 10 8<0 16>
AnchorPoint: "bottom" 14 0 basechar 0
AnchorPoint: "top" 14 40 basechar 0
LayerCount: 2
Fore
SplineSet
0 40 m 1,0,-1
 8 40 l 1,1,-1
 14 24 l 1,2,-1
 20 40 l 1,3,-1
 28 40 l 1,4,-1
 18 16 l 1,5,-1
 18 0 l 1,6,-1
 10 0 l 1,7,-1
 10 16 l 1,8,-1
 0 40 l 1,0,-1
EndSplineSet
EndChar

StartChar: Z
Encoding: 90 90 57
Width: 32
Flags: W
HStem: 0 4<8 28> 36 4<0 20>
AnchorPoint: "bottom" 14 0 basechar 0
AnchorPoint: "top" 14 40 basechar 0
LayerCount: 2
Fore
SplineSet
0 40 m 5,0,-1
 28 40 l 1,1,-1
 28 36 l 1,2,-1
 8 4 l 1,3,-1
 28 4 l 1,4,-1
 28 0 l 1,5,-1
 0 0 l 1,6,-1
 0 4 l 1,7,-1
 20 36 l 1,8,-1
 0 36 l 1,9,-1
 0 40 l 5,0,-1
EndSplineSet
EndChar

StartChar: bracketleft
Encoding: 91 91 58
Width: 32
Flags: W
HStem: 0 4<8 20> 36 4<8 20>
VStem: 0 8<4 36>
LayerCount: 2
Fore
SplineSet
0 40 m 25,0,-1
 20 40 l 1,1,-1
 20 36 l 1,2,-1
 8 36 l 1,3,-1
 8 4 l 1,4,-1
 20 4 l 1,5,-1
 20 0 l 1,6,-1
 0 0 l 1,7,-1
 0 40 l 25,0,-1
EndSplineSet
EndChar

StartChar: backslash
Encoding: 92 92 59
Width: 32
Flags: MW
LayerCount: 2
Fore
SplineSet
0 40 m 25,0,-1
 8 40 l 1,1,-1
 28 0 l 1,2,-1
 20 0 l 1,3,-1
 0 40 l 25,0,-1
EndSplineSet
EndChar

StartChar: bracketright
Encoding: 93 93 60
Width: 32
Flags: W
HStem: 0 4<8 20> 36 4<8 20>
VStem: 20 8<4 36>
LayerCount: 2
Fore
SplineSet
8 40 m 25,0,-1
 28 40 l 1,1,-1
 28 0 l 1,2,-1
 8 0 l 1,3,-1
 8 4 l 1,4,-1
 20 4 l 1,5,-1
 20 36 l 1,6,-1
 8 36 l 1,7,-1
 8 40 l 25,0,-1
EndSplineSet
EndChar

StartChar: underscore
Encoding: 95 95 61
Width: 32
Flags: W
HStem: 0 4<0 28>
LayerCount: 2
Fore
SplineSet
0 4 m 29,0,-1
 28 4 l 1,1,-1
 28 0 l 1,2,-1
 0 0 l 1,3,-1
 0 4 l 29,0,-1
EndSplineSet
EndChar

StartChar: grave
Encoding: 96 96 62
Width: 32
Flags: W
HStem: 32 8<8 12>
VStem: 4 12
LayerCount: 2
Fore
SplineSet
4 40 m 25,0,-1
 12 40 l 1,1,-1
 16 32 l 1,2,-1
 8 32 l 1,3,-1
 4 40 l 25,0,-1
EndSplineSet
EndChar

StartChar: a
Encoding: 97 97 63
Width: 32
Flags: W
HStem: 0 4<8 20> 12 4<8 20> 24 4<4 20>
VStem: 0 8<6 10> 20 8<6 12 16 22>
CounterMasks: 1 e0
AnchorPoint: "bottom" 14 0 basechar 0
AnchorPoint: "top" 14 28 basechar 0
LayerCount: 2
Fore
SplineSet
20 12 m 25,0,-1
 8 12 l 1,1,-1
 8 4 l 1,2,-1
 20 4 l 1,3,-1
 20 12 l 25,0,-1
0 6 m 1,4,-1
 0 10 l 1,5,-1
 6 16 l 1,6,-1
 20 16 l 1,7,-1
 20 24 l 1,8,-1
 4 24 l 1,9,-1
 4 28 l 1,10,-1
 22 28 l 1,11,-1
 28 22 l 1,12,-1
 28 6 l 1,13,-1
 22 0 l 1,14,-1
 6 0 l 1,15,-1
 0 6 l 1,4,-1
EndSplineSet
EndChar

StartChar: b
Encoding: 98 98 64
Width: 32
Flags: MW
HStem: 0 4<8 20> 24 4<8 20>
VStem: 0 8<4 24 28 40> 20 8<6 22>
LayerCount: 2
Fore
SplineSet
20 24 m 25,0,-1
 8 24 l 1,1,-1
 8 4 l 1,2,-1
 20 4 l 1,3,-1
 20 24 l 25,0,-1
0 40 m 25,4,-1
 8 40 l 1,5,-1
 8 28 l 1,6,-1
 22 28 l 1,7,-1
 28 22 l 1,8,-1
 28 6 l 1,9,-1
 22 0 l 1,10,-1
 0 0 l 1,11,-1
 0 40 l 25,4,-1
EndSplineSet
EndChar

StartChar: c
Encoding: 99 99 65
Width: 32
Flags: W
HStem: 0 4<8 20> 24 4<8 20>
VStem: 0 8<6 22> 20 8<6 8 20 22>
AnchorPoint: "bottom" 14 0 basechar 0
AnchorPoint: "top" 14 28 basechar 0
LayerCount: 2
Fore
SplineSet
6 28 m 5,0,-1
 22 28 l 1,1,-1
 28 22 l 1,2,-1
 28 20 l 1,3,-1
 20 20 l 1,4,-1
 20 24 l 1,5,-1
 8 24 l 1,6,-1
 8 4 l 1,7,-1
 20 4 l 1,8,-1
 20 8 l 1,9,-1
 28 8 l 1,10,-1
 28 6 l 1,11,-1
 22 0 l 1,12,-1
 6 0 l 1,13,-1
 0 6 l 1,14,-1
 0 22 l 1,15,-1
 6 28 l 5,0,-1
EndSplineSet
EndChar

StartChar: d
Encoding: 100 100 66
Width: 32
Flags: MW
HStem: 0 4<8 20> 24 4<8 20>
VStem: 0 8<6 22> 20 8<4 24 28 40>
LayerCount: 2
Fore
SplineSet
20 24 m 29,0,-1
 8 24 l 1,1,-1
 8 4 l 1,2,-1
 20 4 l 1,3,-1
 20 24 l 29,0,-1
20 40 m 29,4,-1
 28 40 l 1,5,-1
 28 0 l 1,6,-1
 6 0 l 1,7,-1
 0 6 l 1,8,-1
 0 22 l 1,9,-1
 6 28 l 1,10,-1
 20 28 l 1,11,-1
 20 40 l 29,4,-1
EndSplineSet
EndChar

StartChar: e
Encoding: 101 101 67
Width: 32
Flags: W
HStem: 0 4<8 20> 12 4<8 20> 24 4<8 20>
VStem: 0 8<6 12 16 22> 20 8<6 8 16 22>
CounterMasks: 1 e0
AnchorPoint: "bottom" 14 0 basechar 0
AnchorPoint: "top" 14 28 basechar 0
LayerCount: 2
Fore
SplineSet
20 24 m 29,0,-1
 8 24 l 1,1,-1
 8 16 l 1,2,-1
 20 16 l 1,3,-1
 20 24 l 29,0,-1
6 28 m 5,4,-1
 22 28 l 1,5,-1
 28 22 l 1,6,-1
 28 12 l 1,7,-1
 8 12 l 1,8,-1
 8 4 l 1,9,-1
 20 4 l 1,10,-1
 20 8 l 1,11,-1
 28 8 l 1,12,-1
 28 6 l 1,13,-1
 22 0 l 1,14,-1
 6 0 l 1,15,-1
 0 6 l 1,16,-1
 0 22 l 1,17,-1
 6 28 l 5,4,-1
EndSplineSet
EndChar

StartChar: f
Encoding: 102 102 68
Width: 32
Flags: MW
HStem: 24 4<0 8 16 24> 36 4<16 24>
VStem: 8 8<0 24 28 34>
LayerCount: 2
Fore
SplineSet
8 0 m 1,0,-1
 8 24 l 1,1,-1
 0 24 l 1,2,-1
 0 28 l 1,3,-1
 8 28 l 1,4,-1
 8 34 l 1,5,-1
 14 40 l 1,6,-1
 24 40 l 1,7,-1
 24 36 l 1,8,-1
 16 36 l 1,9,-1
 16 28 l 1,10,-1
 24 28 l 1,11,-1
 24 24 l 1,12,-1
 16 24 l 1,13,-1
 16 0 l 1,14,-1
 8 0 l 1,0,-1
EndSplineSet
EndChar

StartChar: g
Encoding: 103 103 69
Width: 32
Flags: MW
HStem: -8 4<8 20> 4 4<8 20> 24 4<8 20>
VStem: 0 8<-2 0 10 22> 20 8<-2 4 8 24>
AnchorPoint: "bottom" 14 -8 basechar 0
AnchorPoint: "top" 14 28 basechar 0
LayerCount: 2
Fore
SplineSet
20 24 m 29,0,-1
 8 24 l 1,1,-1
 8 8 l 1,2,-1
 20 8 l 1,3,-1
 20 24 l 29,0,-1
0 22 m 5,4,-1
 6 28 l 1,5,-1
 28 28 l 1,6,-1
 28 -2 l 1,7,-1
 22 -8 l 1,8,-1
 6 -8 l 1,9,-1
 0 -2 l 1,10,-1
 0 0 l 1,11,-1
 8 0 l 1,12,-1
 8 -4 l 1,13,-1
 20 -4 l 1,14,-1
 20 4 l 1,15,-1
 6 4 l 1,16,-1
 0 10 l 1,17,-1
 0 22 l 5,4,-1
EndSplineSet
EndChar

StartChar: h
Encoding: 104 104 70
Width: 32
Flags: MW
HStem: 24 4<8 20>
VStem: 0 8<0 24 28 40> 20 8<0 22>
LayerCount: 2
Fore
SplineSet
0 40 m 29,0,-1
 8 40 l 1,1,-1
 8 28 l 1,2,-1
 22 28 l 1,3,-1
 28 22 l 1,4,-1
 28 0 l 1,5,-1
 20 0 l 1,6,-1
 20 24 l 1,7,-1
 8 24 l 1,8,-1
 8 0 l 1,9,-1
 0 0 l 1,10,-1
 0 40 l 29,0,-1
EndSplineSet
EndChar

StartChar: i
Encoding: 105 105 71
Width: 32
Flags: W
HStem: 0 4<4 8 16 20> 20 4<4 8> 32 8<8 16>
VStem: 8 8<4 20 32 40>
AnchorPoint: "bottom" 12 0 basechar 0
AnchorPoint: "top" 12 28 basechar 0
LayerCount: 2
Fore
SplineSet
8 32 m 29,0,-1
 8 40 l 1,1,-1
 16 40 l 1,2,-1
 16 32 l 1,3,-1
 8 32 l 29,0,-1
4 0 m 5,4,-1
 4 4 l 1,5,-1
 8 4 l 1,6,-1
 8 20 l 1,7,-1
 4 20 l 1,8,-1
 4 24 l 1,9,-1
 16 24 l 1,10,-1
 16 4 l 1,11,-1
 20 4 l 1,12,-1
 20 0 l 1,13,-1
 4 0 l 5,4,-1
EndSplineSet
EndChar

StartChar: j
Encoding: 106 106 72
Width: 32
Flags: MW
HStem: -8 4<8 20> 20 4<16 20> 32 8<20 28>
VStem: 20 8<-2 20 32 40>
AnchorPoint: "bottom" 14 -8 basechar 0
AnchorPoint: "top" 24 28 basechar 0
LayerCount: 2
Fore
SplineSet
16 24 m 1,0,-1
 28 24 l 1,1,-1
 28 -2 l 1,2,-1
 22 -8 l 1,3,-1
 6 -8 l 1,4,-1
 0 -2 l 1,5,-1
 0 0 l 1,6,-1
 8 0 l 1,7,-1
 8 -4 l 1,8,-1
 20 -4 l 1,9,-1
 20 20 l 1,10,-1
 16 20 l 1,11,-1
 16 24 l 1,0,-1
20 40 m 25,12,-1
 28 40 l 1,13,-1
 28 32 l 1,14,-1
 20 32 l 1,15,-1
 20 40 l 25,12,-1
EndSplineSet
EndChar

StartChar: k
Encoding: 107 107 73
Width: 32
Flags: MW
VStem: 0 8<0 12 16 40>
AnchorPoint: "bottom" 12 0 basechar 0
AnchorPoint: "top" 14 40 basechar 0
LayerCount: 2
Fore
SplineSet
0 40 m 25,0,-1
 8 40 l 1,1,-1
 8 16 l 1,2,-1
 20 28 l 1,3,-1
 28 28 l 1,4,-1
 16 16 l 1,5,-1
 16 12 l 1,6,-1
 28 0 l 1,7,-1
 20 0 l 1,8,-1
 8 12 l 1,9,-1
 8 0 l 1,10,-1
 0 0 l 1,11,-1
 0 40 l 25,0,-1
EndSplineSet
EndChar

StartChar: l
Encoding: 108 108 74
Width: 32
Flags: MW
VStem: 12 8<6 40>
AnchorPoint: "bottom" 16 0 basechar 0
AnchorPoint: "top" 16 40 basechar 0
LayerCount: 2
Fore
SplineSet
12 40 m 5,0,-1
 20 40 l 1,1,-1
 20 6 l 1,2,-1
 26 0 l 1,3,-1
 18 0 l 1,4,-1
 12 6 l 1,5,-1
 12 40 l 5,0,-1
EndSplineSet
EndChar

StartChar: m
Encoding: 109 109 75
Width: 32
Flags: MW
HStem: 20 8<8 10 16 20>
VStem: 0 8<0 20> 12 4<0 20> 20 8<0 20>
CounterMasks: 1 70
LayerCount: 2
Fore
SplineSet
0 0 m 25,0,-1
 0 28 l 1,1,-1
 10 28 l 1,2,-1
 16 22 l 1,3,-1
 16 28 l 1,4,-1
 22 28 l 1,5,-1
 28 22 l 1,6,-1
 28 0 l 1,7,-1
 20 0 l 1,8,-1
 20 20 l 1,9,-1
 16 20 l 1,10,-1
 16 0 l 1,11,-1
 12 0 l 1,12,-1
 12 20 l 1,13,-1
 8 20 l 1,14,-1
 8 0 l 1,15,-1
 0 0 l 25,0,-1
EndSplineSet
EndChar

StartChar: n
Encoding: 110 110 76
Width: 32
Flags: MW
HStem: 24 4<8 20>
VStem: 0 8<0 24> 20 8<0 22>
AnchorPoint: "bottom" 14 0 basechar 0
AnchorPoint: "top" 14 28 basechar 0
LayerCount: 2
Fore
SplineSet
0 0 m 25,0,-1
 0 28 l 1,1,-1
 22 28 l 1,2,-1
 28 22 l 1,3,-1
 28 0 l 1,4,-1
 20 0 l 1,5,-1
 20 24 l 1,6,-1
 8 24 l 1,7,-1
 8 0 l 1,8,-1
 0 0 l 25,0,-1
EndSplineSet
EndChar

StartChar: o
Encoding: 111 111 77
Width: 32
Flags: W
HStem: 0 4<8 20> 24 4<8 20>
VStem: 0 8<6 22> 20 8<6 22>
AnchorPoint: "bottom" 14 0 basechar 0
AnchorPoint: "top" 14 28 basechar 0
LayerCount: 2
Fore
SplineSet
20 24 m 29,0,-1
 8 24 l 1,1,-1
 8 4 l 1,2,-1
 20 4 l 1,3,-1
 20 24 l 29,0,-1
6 28 m 5,4,-1
 22 28 l 1,5,-1
 28 22 l 1,6,-1
 28 6 l 1,7,-1
 22 0 l 1,8,-1
 6 0 l 1,9,-1
 0 6 l 1,10,-1
 0 22 l 1,11,-1
 6 28 l 5,4,-1
EndSplineSet
EndChar

StartChar: p
Encoding: 112 112 78
Width: 32
Flags: MW
HStem: 0 4<8 20> 24 4<8 20>
VStem: 0 8<-8 0 4 24> 20 8<6 22>
LayerCount: 2
Fore
SplineSet
20 24 m 25,0,-1
 8 24 l 1,1,-1
 8 4 l 1,2,-1
 20 4 l 1,3,-1
 20 24 l 25,0,-1
0 -8 m 25,4,-1
 0 28 l 1,5,-1
 22 28 l 1,6,-1
 28 22 l 1,7,-1
 28 6 l 1,8,-1
 22 0 l 1,9,-1
 8 0 l 1,10,-1
 8 -8 l 1,11,-1
 0 -8 l 25,4,-1
EndSplineSet
EndChar

StartChar: q
Encoding: 113 113 79
Width: 32
Flags: MW
HStem: 0 4<8 20> 24 4<8 20>
VStem: 0 8<6 22> 20 8<-8 0 4 24>
LayerCount: 2
Fore
SplineSet
8 24 m 25,0,-1
 8 4 l 1,1,-1
 20 4 l 1,2,-1
 20 24 l 1,3,-1
 8 24 l 25,0,-1
28 -8 m 25,4,-1
 20 -8 l 1,5,-1
 20 0 l 1,6,-1
 6 0 l 1,7,-1
 0 6 l 1,8,-1
 0 22 l 1,9,-1
 6 28 l 1,10,-1
 28 28 l 1,11,-1
 28 -8 l 25,4,-1
EndSplineSet
EndChar

StartChar: r
Encoding: 114 114 80
Width: 32
Flags: MW
VStem: 0 8<0 10 20 28>
AnchorPoint: "bottom" 4 0 basechar 0
AnchorPoint: "top" 14 28 basechar 0
LayerCount: 2
Fore
SplineSet
0 0 m 25,0,-1
 0 28 l 1,1,-1
 8 28 l 1,2,-1
 8 20 l 1,3,-1
 16 28 l 1,4,-1
 26 28 l 1,5,-1
 8 10 l 1,6,-1
 8 0 l 1,7,-1
 0 0 l 25,0,-1
EndSplineSet
EndChar

StartChar: s
Encoding: 115 115 81
Width: 32
Flags: W
HStem: 0 4<8 20> 24 4<8 20>
VStem: 0 8<6 8 20 22> 20 8<6 8 20 22>
AnchorPoint: "bottom" 14 0 basechar 0
AnchorPoint: "top" 14 28 basechar 0
LayerCount: 2
Fore
SplineSet
0 22 m 1,0,-1
 6 28 l 1,1,-1
 22 28 l 1,2,-1
 28 22 l 1,3,-1
 28 20 l 1,4,-1
 20 20 l 1,5,-1
 20 24 l 1,6,-1
 8 24 l 1,7,-1
 8 20 l 1,8,-1
 28 10 l 1,9,-1
 28 6 l 1,10,-1
 22 0 l 1,11,-1
 6 0 l 1,12,-1
 0 6 l 1,13,-1
 0 8 l 1,14,-1
 8 8 l 1,15,-1
 8 4 l 1,16,-1
 20 4 l 1,17,-1
 20 8 l 1,18,-1
 0 18 l 1,19,-1
 0 22 l 1,0,-1
EndSplineSet
EndChar

StartChar: t
Encoding: 116 116 82
Width: 32
Flags: MW
HStem: 0 4<16 24> 24 4<0 8 16 24>
VStem: 8 8<6 24 28 40>
AnchorPoint: "top" 12 40 basechar 0
AnchorPoint: "bottom" 16 0 basechar 0
LayerCount: 2
Fore
SplineSet
8 40 m 1,0,-1
 16 40 l 1,1,-1
 16 28 l 1,2,-1
 24 28 l 1,3,-1
 24 24 l 1,4,-1
 16 24 l 1,5,-1
 16 4 l 1,6,-1
 24 4 l 1,7,-1
 24 0 l 1,8,-1
 14 0 l 1,9,-1
 8 6 l 1,10,-1
 8 24 l 1,11,-1
 0 24 l 1,12,-1
 0 28 l 1,13,-1
 8 28 l 1,14,-1
 8 40 l 1,0,-1
EndSplineSet
EndChar

StartChar: u
Encoding: 117 117 83
Width: 32
Flags: MW
HStem: 0 4<8 20>
VStem: 0 8<6 28> 20 8<6 28>
AnchorPoint: "bottom" 14 0 basechar 0
AnchorPoint: "top" 14 28 basechar 0
LayerCount: 2
Fore
SplineSet
0 28 m 1,0,-1
 8 28 l 1,1,-1
 8 4 l 1,2,-1
 20 4 l 1,3,-1
 20 28 l 1,4,-1
 28 28 l 1,5,-1
 28 6 l 1,6,-1
 22 0 l 1,7,-1
 6 0 l 1,8,-1
 0 6 l 1,9,-1
 0 28 l 1,0,-1
EndSplineSet
EndChar

StartChar: v
Encoding: 118 118 84
Width: 32
Flags: MW
VStem: 0 8 20 8
LayerCount: 2
Fore
SplineSet
0 28 m 1,0,-1
 8 28 l 1,1,-1
 14 10 l 1,2,-1
 20 28 l 1,3,-1
 28 28 l 1,4,-1
 18 0 l 1,5,-1
 10 0 l 1,6,-1
 0 28 l 1,0,-1
EndSplineSet
EndChar

StartChar: w
Encoding: 119 119 85
Width: 32
Flags: MW
VStem: 0 8<12 28> 20 8<12 28>
AnchorPoint: "bottom" 14 0 basechar 0
AnchorPoint: "top" 14 28 basechar 0
LayerCount: 2
Fore
SplineSet
0 28 m 25,0,-1
 8 28 l 1,1,-1
 8 12 l 1,2,-1
 14 20 l 1,3,-1
 20 12 l 1,4,-1
 20 28 l 1,5,-1
 28 28 l 1,6,-1
 28 0 l 1,7,-1
 20 0 l 1,8,-1
 14 8 l 1,9,-1
 8 0 l 1,10,-1
 0 0 l 1,11,-1
 0 28 l 25,0,-1
EndSplineSet
EndChar

StartChar: x
Encoding: 120 120 86
Width: 32
Flags: MW
LayerCount: 2
Fore
SplineSet
0 28 m 5,0,-1
 8 28 l 1,1,-1
 14 20 l 1,2,-1
 20 28 l 1,3,-1
 28 28 l 1,4,-1
 18 14 l 1,5,-1
 28 0 l 1,6,-1
 20 0 l 1,7,-1
 14 8 l 1,8,-1
 8 0 l 1,9,-1
 0 0 l 1,10,-1
 10 14 l 1,11,-1
 0 28 l 5,0,-1
EndSplineSet
EndChar

StartChar: y
Encoding: 121 121 87
Width: 32
Flags: MW
HStem: -8 4<4 16> 0 4<8 20>
VStem: 0 8<6 28> 20 8<4 28>
AnchorPoint: "bottom" 14 -8 basechar 0
AnchorPoint: "top" 14 28 basechar 0
LayerCount: 2
Fore
SplineSet
0 28 m 1,0,-1
 8 28 l 1,1,-1
 8 4 l 1,2,-1
 20 4 l 1,3,-1
 20 28 l 1,4,-1
 28 28 l 1,5,-1
 28 0 l 1,6,-1
 20 -8 l 1,7,-1
 4 -8 l 1,8,-1
 4 -4 l 1,9,-1
 16 -4 l 1,10,-1
 20 0 l 1,11,-1
 6 0 l 1,12,-1
 0 6 l 1,13,-1
 0 28 l 1,0,-1
EndSplineSet
EndChar

StartChar: z
Encoding: 122 122 88
Width: 32
Flags: W
HStem: 0 4<8 28> 24 4<0 20>
AnchorPoint: "bottom" 14 0 basechar 0
AnchorPoint: "top" 14 28 basechar 0
LayerCount: 2
Fore
SplineSet
0 28 m 25,0,-1
 28 28 l 1,1,-1
 28 24 l 1,2,-1
 8 4 l 1,3,-1
 28 4 l 1,4,-1
 28 0 l 1,5,-1
 0 0 l 1,6,-1
 0 4 l 1,7,-1
 20 24 l 1,8,-1
 0 24 l 1,9,-1
 0 28 l 25,0,-1
EndSplineSet
EndChar

StartChar: braceleft
Encoding: 123 123 89
Width: 32
Flags: W
HStem: 0 4<16 24> 36 4<16 24>
VStem: 8 8<6 16 24 34>
LayerCount: 2
Fore
SplineSet
14 40 m 1,0,-1
 24 40 l 1,1,-1
 24 36 l 1,2,-1
 16 36 l 1,3,-1
 16 24 l 1,4,-1
 10 20 l 1,5,-1
 16 16 l 1,6,-1
 16 4 l 1,7,-1
 24 4 l 1,8,-1
 24 0 l 1,9,-1
 14 0 l 1,10,-1
 8 6 l 1,11,-1
 8 16 l 1,12,-1
 2 20 l 1,13,-1
 8 24 l 1,14,-1
 8 34 l 1,15,-1
 14 40 l 1,0,-1
EndSplineSet
EndChar

StartChar: bar
Encoding: 124 124 90
Width: 32
Flags: MW
HStem: 0 40G<12 20>
VStem: 12 8<0 40>
LayerCount: 2
Fore
SplineSet
12 40 m 29,0,-1
 20 40 l 1,1,-1
 20 0 l 1,2,-1
 12 0 l 1,3,-1
 12 40 l 29,0,-1
EndSplineSet
EndChar

StartChar: braceright
Encoding: 125 125 91
Width: 32
Flags: W
HStem: 0 4<4 12> 36 4<4 12>
VStem: 12 8<6 16 24 34>
LayerCount: 2
Fore
SplineSet
14 40 m 1,0,-1
 20 34 l 1,1,-1
 20 24 l 1,2,-1
 26 20 l 1,3,-1
 20 16 l 1,4,-1
 20 6 l 1,5,-1
 14 0 l 1,6,-1
 4 0 l 1,7,-1
 4 4 l 1,8,-1
 12 4 l 1,9,-1
 12 16 l 1,10,-1
 18 20 l 1,11,-1
 12 24 l 1,12,-1
 12 36 l 1,13,-1
 4 36 l 1,14,-1
 4 40 l 1,15,-1
 14 40 l 1,0,-1
EndSplineSet
EndChar

StartChar: asciitilde
Encoding: 126 126 92
Width: 32
Flags: W
HStem: 12 16
LayerCount: 2
Fore
SplineSet
4 20 m 29,0,-1
 12 28 l 1,1,-1
 20 20 l 1,2,-1
 28 28 l 1,3,-1
 28 20 l 1,4,-1
 20 12 l 1,5,-1
 12 20 l 1,6,-1
 4 12 l 1,7,-1
 4 20 l 29,0,-1
EndSplineSet
EndChar

StartChar: gravecomb
Encoding: 768 768 93
Width: 32
Flags: W
HStem: 44 8<12 16>
VStem: 8 12
AnchorPoint: "topmark" 16 40 mark 0
AnchorPoint: "topmark" 16 52 basemark 0
AnchorPoint: "top" 16 40 mark 0
LayerCount: 2
Fore
SplineSet
8 52 m 1,0,-1
 16 52 l 1,1,-1
 20 44 l 1,2,-1
 12 44 l 1,3,-1
 8 52 l 1,0,-1
EndSplineSet
EndChar

StartChar: acutecomb
Encoding: 769 769 104
Width: 32
Flags: W
HStem: 44 8<16 20>
VStem: 12 12
AnchorPoint: "topmark" 16 40 mark 0
AnchorPoint: "topmark" 16 52 basemark 0
AnchorPoint: "top" 16 40 mark 0
LayerCount: 2
Fore
SplineSet
16 52 m 5,0,-1
 24 52 l 1,1,-1
 20 44 l 1,2,-1
 12 44 l 1,3,-1
 16 52 l 5,0,-1
EndSplineSet
EndChar

StartChar: uni0302
Encoding: 770 770 105
Width: 32
Flags: W
HStem: 44 8
AnchorPoint: "topmark" 16 40 mark 0
AnchorPoint: "topmark" 16 52 basemark 0
AnchorPoint: "top" 16 40 mark 0
LayerCount: 2
Fore
SplineSet
4 44 m 5,0,-1
 16 52 l 1,1,-1
 28 44 l 1,2,-1
 22 44 l 1,3,-1
 16 48 l 1,4,-1
 10 44 l 1,5,-1
 4 44 l 5,0,-1
EndSplineSet
EndChar

StartChar: tildecomb
Encoding: 771 771 106
Width: 32
Flags: W
HStem: 44 8
AnchorPoint: "topmark" 16 40 mark 0
AnchorPoint: "topmark" 16 52 basemark 0
AnchorPoint: "top" 16 40 mark 0
LayerCount: 2
Fore
SplineSet
4 48 m 1,0,-1
 12 52 l 1,1,-1
 20 48 l 1,2,-1
 28 52 l 1,3,-1
 28 48 l 1,4,-1
 20 44 l 1,5,-1
 12 48 l 1,6,-1
 4 44 l 1,7,-1
 4 48 l 1,0,-1
EndSplineSet
EndChar

StartChar: uni0304
Encoding: 772 772 129
Width: 32
Flags: W
HStem: 44 8<4 28>
AnchorPoint: "topmark" 16 40 mark 0
AnchorPoint: "topmark" 16 52 basemark 0
AnchorPoint: "top" 16 40 mark 0
LayerCount: 2
Fore
SplineSet
4 52 m 5,0,-1
 28 52 l 1,1,-1
 28 44 l 1,2,-1
 4 44 l 1,3,-1
 4 52 l 5,0,-1
EndSplineSet
EndChar

StartChar: uni0305
Encoding: 773 773 130
Width: 32
Flags: W
HStem: 48 4<0 32>
AnchorPoint: "topmark" 16 40 mark 0
AnchorPoint: "topmark" 16 52 basemark 0
AnchorPoint: "top" 16 40 mark 0
LayerCount: 2
Fore
SplineSet
0 52 m 5,0,-1
 32 52 l 1,1,-1
 32 48 l 1,2,-1
 0 48 l 1,3,-1
 0 52 l 5,0,-1
EndSplineSet
EndChar

StartChar: uni0306
Encoding: 774 774 131
Width: 32
Flags: W
HStem: 44 8<10 12 20 22>
AnchorPoint: "topmark" 16 40 mark 0
AnchorPoint: "topmark" 16 52 basemark 0
AnchorPoint: "top" 16 40 mark 0
LayerCount: 2
Fore
SplineSet
12 52 m 1,0,-1
 12 48 l 1,1,-1
 20 48 l 1,2,-1
 20 52 l 1,3,-1
 28 52 l 1,4,-1
 28 50 l 1,5,-1
 22 44 l 1,6,-1
 10 44 l 1,7,-1
 4 50 l 1,8,-1
 4 52 l 1,9,-1
 12 52 l 1,0,-1
EndSplineSet
EndChar

StartChar: uni0307
Encoding: 775 775 132
Width: 32
Flags: W
HStem: 44 8<12 20>
VStem: 12 8<44 52>
AnchorPoint: "topmark" 16 40 mark 0
AnchorPoint: "topmark" 16 52 basemark 0
AnchorPoint: "top" 16 40 mark 0
LayerCount: 2
Fore
SplineSet
12 52 m 1,0,-1
 20 52 l 1,1,-1
 20 44 l 1,2,-1
 12 44 l 1,3,-1
 12 52 l 1,0,-1
EndSplineSet
EndChar

StartChar: uni0308
Encoding: 776 776 133
Width: 32
Flags: W
HStem: 44 8<6 14 18 26>
VStem: 6 8<44 52> 18 8<44 52>
AnchorPoint: "topmark" 16 40 mark 0
AnchorPoint: "topmark" 16 52 basemark 0
AnchorPoint: "top" 16 40 mark 0
LayerCount: 2
Fore
SplineSet
18 52 m 1,0,-1
 26 52 l 1,1,-1
 26 44 l 1,2,-1
 18 44 l 1,3,-1
 18 52 l 1,0,-1
6 52 m 1,4,-1
 14 52 l 1,5,-1
 14 44 l 1,6,-1
 6 44 l 1,7,-1
 6 52 l 1,4,-1
EndSplineSet
EndChar

StartChar: dotlessi
Encoding: 305 305 180
Width: 32
Flags: W
HStem: 0 4<4 8 16 20> 20 4<4 8>
VStem: 8 8<4 20>
AnchorPoint: "bottom" 12 0 basechar 0
AnchorPoint: "top" 12 28 basechar 0
LayerCount: 2
Fore
SplineSet
4 0 m 1,0,-1
 4 4 l 1,1,-1
 8 4 l 1,2,-1
 8 20 l 1,3,-1
 4 20 l 1,4,-1
 4 24 l 1,5,-1
 16 24 l 1,6,-1
 16 4 l 1,7,-1
 20 4 l 1,8,-1
 20 0 l 1,9,-1
 4 0 l 1,0,-1
EndSplineSet
EndChar

StartChar: uni030A
Encoding: 778 778 247
Width: 32
Flags: W
HStem: 42 4<14 18> 48 4<14 18>
VStem: 10 4<46 48> 18 4<46 48>
AnchorPoint: "topmark" 16 40 mark 0
AnchorPoint: "topmark" 16 52 basemark 0
AnchorPoint: "top" 16 40 mark 0
LayerCount: 2
Fore
SplineSet
18 48 m 1,0,-1
 14 48 l 1,1,-1
 14 46 l 1,2,-1
 18 46 l 1,3,-1
 18 48 l 1,0,-1
14 52 m 1,4,-1
 18 52 l 1,5,-1
 22 48 l 1,6,-1
 22 46 l 1,7,-1
 18 42 l 1,8,-1
 14 42 l 1,9,-1
 10 46 l 1,10,-1
 10 48 l 1,11,-1
 14 52 l 1,4,-1
EndSplineSet
EndChar

StartChar: uni030C
Encoding: 780 780 248
Width: 32
Flags: W
HStem: 44 8
AnchorPoint: "topmark" 16 40 mark 0
AnchorPoint: "topmark" 16 52 basemark 0
AnchorPoint: "top" 16 40 mark 0
LayerCount: 2
Fore
SplineSet
28 52 m 5,0,-1
 16 44 l 1,1,-1
 4 52 l 1,2,-1
 10 52 l 1,3,-1
 16 48 l 1,4,-1
 22 52 l 1,5,-1
 28 52 l 5,0,-1
EndSplineSet
EndChar

StartChar: uni0237
Encoding: 567 567 254
Width: 32
Flags: MW
HStem: -8 4<8 20> 20 4<16 20>
VStem: 20 8<-2 20>
AnchorPoint: "bottom" 14 -8 basechar 0
AnchorPoint: "top" 24 28 basechar 0
LayerCount: 2
Fore
SplineSet
16 24 m 1,0,-1
 28 24 l 1,1,-1
 28 -2 l 1,2,-1
 22 -8 l 1,3,-1
 6 -8 l 1,4,-1
 0 -2 l 1,5,-1
 0 0 l 1,6,-1
 8 0 l 1,7,-1
 8 -4 l 1,8,-1
 20 -4 l 1,9,-1
 20 20 l 1,10,-1
 16 20 l 1,11,-1
 16 24 l 1,0,-1
EndSplineSet
EndChar

StartChar: exclamdown
Encoding: 161 161 255
Width: 32
VWidth: 48
Flags: MW
HStem: 24 8<12 20>
VStem: 12 8<-8 16 24 32>
LayerCount: 2
Fore
SplineSet
20 -8 m 29,0,-1
 12 -8 l 1,1,-1
 12 16 l 1,2,-1
 20 16 l 1,3,-1
 20 -8 l 29,0,-1
20 24 m 29,4,-1
 12 24 l 1,5,-1
 12 32 l 1,6,-1
 20 32 l 1,7,-1
 20 24 l 29,4,-1
EndSplineSet
EndChar

StartChar: quotesingle
Encoding: 39 39 266
Width: 32
Flags: W
HStem: 28 12<8 16>
VStem: 8 8<28 40>
LayerCount: 2
Fore
SplineSet
8 40 m 5,0,-1
 16 40 l 1,1,-1
 16 28 l 1,2,-1
 8 28 l 1,3,-1
 8 40 l 5,0,-1
EndSplineSet
EndChar

StartChar: asciicircum
Encoding: 94 94 267
Width: 32
Flags: W
HStem: 26 14
LayerCount: 2
Fore
SplineSet
0 26 m 5,0,-1
 14 40 l 1,1,-1
 28 26 l 1,2,-1
 20 26 l 1,3,-1
 14 32 l 1,4,-1
 8 26 l 1,5,-1
 0 26 l 5,0,-1
EndSplineSet
EndChar

StartChar: cent
Encoding: 162 162 268
Width: 32
Flags: MW
HStem: 4 4<8 12 16 20> 20 4<8 12 16 20>
VStem: 0 8<10 18> 12 4<0 4 8 20 24 28> 20 8<10 12 16 18>
CounterMasks: 1 38
LayerCount: 2
Fore
SplineSet
12 20 m 25,0,-1
 8 20 l 1,1,-1
 8 8 l 1,2,-1
 12 8 l 1,3,-1
 12 20 l 25,0,-1
12 28 m 1,4,-1
 16 28 l 1,5,-1
 16 24 l 1,6,-1
 22 24 l 1,7,-1
 28 18 l 1,8,-1
 28 16 l 1,9,-1
 20 16 l 1,10,-1
 20 20 l 1,11,-1
 16 20 l 1,12,-1
 16 8 l 1,13,-1
 20 8 l 1,14,-1
 20 12 l 1,15,-1
 28 12 l 1,16,-1
 28 10 l 1,17,-1
 22 4 l 1,18,-1
 16 4 l 1,19,-1
 16 0 l 1,20,-1
 12 0 l 1,21,-1
 12 4 l 1,22,-1
 6 4 l 1,23,-1
 0 10 l 1,24,-1
 0 18 l 1,25,-1
 6 24 l 1,26,-1
 12 24 l 1,27,-1
 12 28 l 1,4,-1
EndSplineSet
EndChar

StartChar: sterling
Encoding: 163 163 269
Width: 32
Flags: MW
HStem: 0 4<0 4 12 28> 24 4<0 4 12 28>
VStem: 4 8<4 24 28 34> 20 8<32 34>
LayerCount: 2
Fore
SplineSet
0 0 m 25,0,-1
 0 4 l 1,1,-1
 4 4 l 1,2,-1
 4 24 l 1,3,-1
 0 24 l 1,4,-1
 0 28 l 1,5,-1
 4 28 l 1,6,-1
 4 34 l 1,7,-1
 10 40 l 1,8,-1
 22 40 l 1,9,-1
 28 34 l 1,10,-1
 28 32 l 1,11,-1
 20 32 l 1,12,-1
 20 36 l 1,13,-1
 12 36 l 1,14,-1
 12 28 l 1,15,-1
 28 28 l 1,16,-1
 28 24 l 1,17,-1
 12 24 l 1,18,-1
 12 4 l 1,19,-1
 28 4 l 1,20,-1
 28 0 l 1,21,-1
 0 0 l 25,0,-1
EndSplineSet
EndChar

StartChar: currency
Encoding: 164 164 270
Width: 32
Flags: W
HStem: 4 8<10 18> 24 8<10 18>
VStem: 0 8<14 22> 20 8<14 22>
LayerCount: 2
Fore
SplineSet
20 24 m 25,0,-1
 8 24 l 1,1,-1
 8 12 l 1,2,-1
 20 12 l 1,3,-1
 20 24 l 25,0,-1
10 32 m 1,4,-1
 18 32 l 1,5,-1
 22 28 l 1,6,-1
 24 32 l 1,7,-1
 28 32 l 1,8,-1
 28 28 l 1,9,-1
 24 26 l 1,10,-1
 28 22 l 1,11,-1
 28 14 l 1,12,-1
 24 10 l 1,13,-1
 28 8 l 1,14,-1
 28 4 l 1,15,-1
 24 4 l 1,16,-1
 22 8 l 1,17,-1
 18 4 l 1,18,-1
 10 4 l 1,19,-1
 6 8 l 1,20,-1
 4 4 l 1,21,-1
 0 4 l 1,22,-1
 0 8 l 1,23,-1
 4 10 l 1,24,-1
 0 14 l 1,25,-1
 0 22 l 1,26,-1
 4 26 l 1,27,-1
 0 28 l 1,28,-1
 0 32 l 1,29,-1
 4 32 l 1,30,-1
 6 28 l 1,31,-1
 10 32 l 1,4,-1
EndSplineSet
EndChar

StartChar: yen
Encoding: 165 165 271
Width: 32
Flags: MW
HStem: 4 4<4 10 18 24> 12 4<4 10 18 24>
VStem: 10 8<0 4 8 12>
LayerCount: 2
Fore
SplineSet
0 40 m 1,0,-1
 8 40 l 1,1,-1
 14 24 l 1,2,-1
 20 40 l 1,3,-1
 28 40 l 1,4,-1
 18 16 l 1,5,-1
 24 16 l 1,6,-1
 24 12 l 1,7,-1
 18 12 l 1,8,-1
 18 8 l 1,9,-1
 24 8 l 1,10,-1
 24 4 l 1,11,-1
 18 4 l 1,12,-1
 18 0 l 1,13,-1
 10 0 l 1,14,-1
 10 4 l 1,15,-1
 4 4 l 1,16,-1
 4 8 l 1,17,-1
 10 8 l 1,18,-1
 10 12 l 1,19,-1
 4 12 l 1,20,-1
 4 16 l 1,21,-1
 10 16 l 1,22,-1
 0 40 l 1,0,-1
EndSplineSet
EndChar

StartChar: brokenbar
Encoding: 166 166 272
Width: 32
Flags: MW
VStem: 12 8<0 16 24 40>
LayerCount: 2
Fore
SplineSet
12 16 m 1,0,-1
 20 16 l 1,1,-1
 20 0 l 1,2,-1
 12 0 l 1,3,-1
 12 16 l 1,0,-1
20 24 m 1,4,-1
 12 24 l 1,5,-1
 12 40 l 1,6,-1
 20 40 l 1,7,-1
 20 24 l 1,4,-1
EndSplineSet
EndChar

StartChar: section
Encoding: 167 167 273
Width: 32
Flags: W
HStem: 0 4<4 10> 36 4<18 24>
VStem: 0 8<14 26> 20 8<14 26>
LayerCount: 2
Fore
SplineSet
20 28 m 5,0,-1
 8 28 l 1,1,-1
 8 12 l 1,2,-1
 20 12 l 1,3,-1
 20 28 l 5,0,-1
0 26 m 5,4,-1
 14 40 l 1,5,-1
 24 40 l 1,6,-1
 24 36 l 1,7,-1
 18 36 l 1,8,-1
 28 26 l 1,9,-1
 28 14 l 1,10,-1
 14 0 l 1,11,-1
 4 0 l 1,12,-1
 4 4 l 1,13,-1
 10 4 l 1,14,-1
 0 14 l 1,15,-1
 0 26 l 5,4,-1
EndSplineSet
EndChar

StartChar: dieresis
Encoding: 168 168 274
Width: 32
Flags: W
HStem: 32 8<4 12 16 24>
VStem: 4 8<32 40> 16 8<32 40>
LayerCount: 2
Fore
SplineSet
16 40 m 1,0,-1
 24 40 l 1,1,-1
 24 32 l 1,2,-1
 16 32 l 1,3,-1
 16 40 l 1,0,-1
4 40 m 1,4,-1
 12 40 l 1,5,-1
 12 32 l 1,6,-1
 4 32 l 1,7,-1
 4 40 l 1,4,-1
EndSplineSet
EndChar

StartChar: copyright
Encoding: 169 169 275
Width: 32
Flags: W
HStem: 0 4<6 22> 8 4<14 20> 24 4<14 20> 32 4<6 22>
VStem: 0 4<6 30> 8 4<14 22> 24 4<6 30>
LayerCount: 2
Fore
SplineSet
8 22 m 1,0,-1
 14 28 l 1,1,-1
 20 28 l 1,2,-1
 20 24 l 1,3,-1
 14 24 l 1,4,-1
 12 22 l 1,5,-1
 12 14 l 1,6,-1
 14 12 l 1,7,-1
 20 12 l 1,8,-1
 20 8 l 1,9,-1
 14 8 l 1,10,-1
 8 14 l 1,11,-1
 8 22 l 1,0,-1
24 30 m 1,12,-1
 22 32 l 1,13,-1
 6 32 l 1,14,-1
 4 30 l 1,15,-1
 4 6 l 1,16,-1
 6 4 l 1,17,-1
 22 4 l 1,18,-1
 24 6 l 1,19,-1
 24 30 l 1,12,-1
6 36 m 1,20,-1
 22 36 l 1,21,-1
 28 30 l 1,22,-1
 28 6 l 1,23,-1
 22 0 l 1,24,-1
 6 0 l 1,25,-1
 0 6 l 1,26,-1
 0 30 l 1,27,-1
 6 36 l 1,20,-1
EndSplineSet
EndChar

StartChar: ordfeminine
Encoding: 170 170 276
Width: 32
Flags: W
HStem: 20 4<12 16> 28 4<12 16> 36 4<8 14>
VStem: 8 4<24 28> 16 4<24 28 32 34>
CounterMasks: 1 e0
LayerCount: 2
Fore
SplineSet
16 28 m 25,0,-1
 12 28 l 1,1,-1
 12 24 l 1,2,-1
 16 24 l 1,3,-1
 16 28 l 25,0,-1
8 40 m 1,4,-1
 14 40 l 1,5,-1
 20 34 l 1,6,-1
 20 20 l 1,7,-1
 12 20 l 1,8,-1
 8 24 l 1,9,-1
 8 28 l 1,10,-1
 12 32 l 1,11,-1
 16 32 l 1,12,-1
 16 36 l 1,13,-1
 8 36 l 1,14,-1
 8 40 l 1,4,-1
EndSplineSet
EndChar

StartChar: guillemotleft
Encoding: 171 171 277
Width: 32
Flags: MW
LayerCount: 2
Fore
SplineSet
20 20 m 1,0,-1
 28 20 l 1,1,-1
 20 10 l 1,2,-1
 28 0 l 1,3,-1
 20 0 l 1,4,-1
 12 10 l 1,5,-1
 20 20 l 1,0,-1
8 20 m 5,6,-1
 16 20 l 1,7,-1
 8 10 l 1,8,-1
 16 0 l 1,9,-1
 8 0 l 1,10,-1
 0 10 l 1,11,-1
 8 20 l 5,6,-1
EndSplineSet
EndChar

StartChar: logicalnot
Encoding: 172 172 278
Width: 32
Flags: W
HStem: 20 8<20 28> 24 4<0 20>
VStem: 20 8<20 24>
LayerCount: 2
Fore
SplineSet
0 28 m 5,0,-1
 28 28 l 1,1,-1
 28 20 l 1,2,-1
 20 20 l 1,3,-1
 20 24 l 1,4,-1
 0 24 l 1,5,-1
 0 28 l 5,0,-1
EndSplineSet
EndChar

StartChar: uni00AD
Encoding: 173 173 279
Width: 32
Flags: W
HStem: 16 8<4 28>
LayerCount: 2
Fore
SplineSet
4 24 m 29,0,-1
 28 24 l 1,1,-1
 28 16 l 1,2,-1
 4 16 l 1,3,-1
 4 24 l 29,0,-1
EndSplineSet
EndChar

StartChar: uni0327
Encoding: 807 807 280
Width: 32
Flags: W
HStem: -12 12
VStem: 12 8
AnchorPoint: "bottom" 14 0 mark 0
LayerCount: 2
Fore
SplineSet
12 0 m 5,0,-1
 16 0 l 1,1,-1
 20 -6 l 1,2,-1
 16 -12 l 1,3,-1
 12 -12 l 1,4,-1
 16 -6 l 1,5,-1
 12 0 l 5,0,-1
EndSplineSet
EndChar

StartChar: uni0328
Encoding: 808 808 283
Width: 32
Flags: W
HStem: -12 12
VStem: 8 8
AnchorPoint: "bottom" 14 0 mark 0
LayerCount: 2
Fore
SplineSet
12 0 m 5,0,-1
 16 0 l 1,1,-1
 12 -6 l 1,2,-1
 16 -12 l 1,3,-1
 12 -12 l 1,4,-1
 8 -6 l 1,5,-1
 12 0 l 5,0,-1
EndSplineSet
EndChar

StartChar: registered
Encoding: 174 174 296
Width: 32
Flags: MW
HStem: 0 4<6 22> 16 4<12 14> 24 4<12 14> 32 4<6 22>
VStem: 0 4<6 30> 8 4<8 16 20 24> 16 4<8 14 22 22> 24 4<6 30>
LayerCount: 2
Back
Fore
SplineSet
16 24 m 25,0,-1
 12 24 l 1,1,-1
 12 20 l 1,2,-1
 16 20 l 1,3,-1
 16 24 l 25,0,-1
8 28 m 25,4,-1
 14 28 l 1,5,-1
 20 22 l 1,6,-1
 16 18 l 1,7,-1
 20 14 l 1,8,-1
 20 8 l 1,9,-1
 16 8 l 1,10,-1
 16 14 l 1,11,-1
 14 16 l 1,12,-1
 12 16 l 1,13,-1
 12 8 l 1,14,-1
 8 8 l 1,15,-1
 8 28 l 25,4,-1
22 32 m 25,16,-1
 6 32 l 1,17,-1
 4 30 l 1,18,-1
 4 6 l 1,19,-1
 6 4 l 1,20,-1
 22 4 l 1,21,-1
 24 6 l 1,22,-1
 24 30 l 1,23,-1
 22 32 l 25,16,-1
6 36 m 1,24,-1
 22 36 l 1,25,-1
 28 30 l 1,26,-1
 28 6 l 1,27,-1
 22 0 l 1,28,-1
 6 0 l 1,29,-1
 0 6 l 1,30,-1
 0 30 l 1,31,-1
 6 36 l 1,24,-1
EndSplineSet
EndChar

StartChar: macron
Encoding: 175 175 297
Width: 32
Flags: W
HStem: 44 8<4 28>
LayerCount: 2
Fore
SplineSet
4 52 m 25,0,-1
 28 52 l 1,1,-1
 28 44 l 1,2,-1
 4 44 l 1,3,-1
 4 52 l 25,0,-1
EndSplineSet
EndChar

StartChar: degree
Encoding: 176 176 298
Width: 32
Flags: W
HStem: 20 4<12 16> 36 4<12 16>
VStem: 4 8<26 34> 16 8<26 34>
LayerCount: 2
Back
Fore
SplineSet
16 36 m 25,0,-1
 12 36 l 1,1,-1
 12 24 l 1,2,-1
 16 24 l 1,3,-1
 16 36 l 25,0,-1
10 40 m 1,4,-1
 18 40 l 1,5,-1
 24 34 l 1,6,-1
 24 26 l 1,7,-1
 18 20 l 1,8,-1
 10 20 l 1,9,-1
 4 26 l 1,10,-1
 4 34 l 1,11,-1
 10 40 l 1,4,-1
EndSplineSet
EndChar

StartChar: plusminus
Encoding: 177 177 299
Width: 32
Flags: MW
HStem: 0 8<4 28> 24 8<4 12 20 28>
VStem: 12 8<16 24 32 40>
LayerCount: 2
Fore
SplineSet
4 8 m 29,0,-1
 28 8 l 1,1,-1
 28 0 l 1,2,-1
 4 0 l 1,3,-1
 4 8 l 29,0,-1
12 40 m 25,4,-1
 20 40 l 1,5,-1
 20 32 l 1,6,-1
 28 32 l 1,7,-1
 28 24 l 1,8,-1
 20 24 l 1,9,-1
 20 16 l 1,10,-1
 12 16 l 1,11,-1
 12 24 l 1,12,-1
 4 24 l 1,13,-1
 4 32 l 1,14,-1
 12 32 l 1,15,-1
 12 40 l 25,4,-1
EndSplineSet
EndChar

StartChar: uni00B2
Encoding: 178 178 300
Width: 32
Flags: W
HStem: 20 4<12 20> 28 4<12 16> 36 4<8 16>
VStem: 8 4<24 28> 16 4<32 36>
CounterMasks: 1 e0
LayerCount: 2
Fore
SplineSet
8 40 m 5,0,-1
 20 40 l 1,1,-1
 20 28 l 1,2,-1
 12 28 l 1,3,-1
 12 24 l 1,4,-1
 20 24 l 1,5,-1
 20 20 l 1,6,-1
 8 20 l 1,7,-1
 8 32 l 1,8,-1
 16 32 l 1,9,-1
 16 36 l 1,10,-1
 8 36 l 1,11,-1
 8 40 l 5,0,-1
EndSplineSet
EndChar

StartChar: uni00B3
Encoding: 179 179 301
Width: 32
Flags: MW
HStem: 20 4<8 16> 28 4<8 16> 36 4<8 16>
VStem: 16 4<24 28 32 36>
CounterMasks: 1 e0
LayerCount: 2
Fore
SplineSet
8 40 m 1,0,-1
 20 40 l 1,1,-1
 20 20 l 1,2,-1
 8 20 l 1,3,-1
 8 24 l 1,4,-1
 16 24 l 1,5,-1
 16 28 l 1,6,-1
 8 28 l 1,7,-1
 8 32 l 1,8,-1
 16 32 l 1,9,-1
 16 36 l 1,10,-1
 8 36 l 1,11,-1
 8 40 l 1,0,-1
EndSplineSet
EndChar

StartChar: acute
Encoding: 180 180 302
Width: 32
Flags: W
HStem: 32 8<12 16>
VStem: 8 12
LayerCount: 2
Fore
SplineSet
12 40 m 1,0,-1
 20 40 l 1,1,-1
 16 32 l 1,2,-1
 8 32 l 1,3,-1
 12 40 l 1,0,-1
EndSplineSet
EndChar

StartChar: mu
Encoding: 181 181 303
Width: 32
Flags: MW
HStem: 0 4<8 20>
VStem: 0 8<-8 0 4 28> 20 8<6 28>
LayerCount: 2
Fore
SplineSet
0 28 m 25,0,-1
 8 28 l 1,1,-1
 8 4 l 1,2,-1
 20 4 l 1,3,-1
 20 28 l 1,4,-1
 28 28 l 1,5,-1
 28 6 l 1,6,-1
 22 0 l 1,7,-1
 8 0 l 1,8,-1
 8 -8 l 1,9,-1
 0 -8 l 1,10,-1
 0 28 l 25,0,-1
EndSplineSet
EndChar

StartChar: paragraph
Encoding: 182 182 304
Width: 32
Flags: MW
HStem: 36 4<16 20>
VStem: 8 8<0 18> 20 8<0 36>
LayerCount: 2
Fore
SplineSet
10 40 m 1,0,-1
 28 40 l 1,1,-1
 28 0 l 1,2,-1
 20 0 l 1,3,-1
 20 36 l 1,4,-1
 16 36 l 1,5,-1
 16 0 l 1,6,-1
 8 0 l 1,7,-1
 8 18 l 1,8,-1
 0 26 l 1,9,-1
 0 30 l 1,10,-1
 10 40 l 1,0,-1
EndSplineSet
EndChar

StartChar: periodcentered
Encoding: 183 183 305
Width: 32
Flags: W
HStem: 16 8<12 20>
VStem: 12 8<16 24>
LayerCount: 2
Fore
SplineSet
12 24 m 1,0,-1
 20 24 l 1,1,-1
 20 16 l 1,2,-1
 12 16 l 1,3,-1
 12 24 l 1,0,-1
EndSplineSet
EndChar

StartChar: cedilla
Encoding: 184 184 306
Width: 32
Flags: W
HStem: -12 12
VStem: 12 8
LayerCount: 2
Fore
SplineSet
12 0 m 25,0,-1
 16 0 l 1,1,-1
 20 -6 l 1,2,-1
 16 -12 l 1,3,-1
 12 -12 l 1,4,-1
 16 -6 l 1,5,-1
 12 0 l 25,0,-1
EndSplineSet
EndChar

StartChar: uni00B9
Encoding: 185 185 307
Width: 32
Flags: MW
HStem: 20 4<8 12 16 20> 32 4<8 12>
VStem: 12 4<24 32 36 40>
LayerCount: 2
Fore
SplineSet
12 40 m 1,0,-1
 16 40 l 1,1,-1
 16 24 l 1,2,-1
 20 24 l 1,3,-1
 20 20 l 1,4,-1
 8 20 l 1,5,-1
 8 24 l 1,6,-1
 12 24 l 1,7,-1
 12 32 l 1,8,-1
 8 32 l 1,9,-1
 8 36 l 1,10,-1
 12 36 l 1,11,-1
 12 40 l 1,0,-1
EndSplineSet
EndChar

StartChar: ordmasculine
Encoding: 186 186 308
Width: 32
Flags: W
HStem: 20 4<12 16> 36 4<12 16>
VStem: 8 4<24 36> 16 4<24 36>
LayerCount: 2
Fore
SplineSet
16 36 m 1,0,-1
 12 36 l 1,1,-1
 12 24 l 1,2,-1
 16 24 l 1,3,-1
 16 36 l 1,0,-1
8 36 m 1,4,-1
 12 40 l 1,5,-1
 16 40 l 1,6,-1
 20 36 l 1,7,-1
 20 24 l 1,8,-1
 16 20 l 1,9,-1
 12 20 l 1,10,-1
 8 24 l 1,11,-1
 8 36 l 1,4,-1
EndSplineSet
EndChar

StartChar: guillemotright
Encoding: 187 187 309
Width: 32
Flags: W
HStem: 0 42G<8 8 20 20>
LayerCount: 2
Fore
SplineSet
8 0 m 5,0,-1
 0 0 l 1,1,-1
 8 10 l 1,2,-1
 0 20 l 1,3,-1
 8 20 l 1,4,-1
 16 10 l 1,5,-1
 8 0 l 5,0,-1
20 0 m 5,6,-1
 12 0 l 1,7,-1
 20 10 l 1,8,-1
 12 20 l 1,9,-1
 20 20 l 1,10,-1
 28 10 l 1,11,-1
 20 0 l 5,6,-1
EndSplineSet
EndChar

StartChar: onequarter
Encoding: 188 188 310
Width: 32
Flags: MW
HStem: 4 4<20 24> 24 4<0 4 8 12> 36 4<0 4>
VStem: 4 4<28 36 40 44> 16 4<8 16> 24 4<-4 4 8 16>
LayerCount: 2
Back
Fore
SplineSet
24 36 m 1,0,-1
 28 36 l 1,1,-1
 4 4 l 1,2,-1
 0 4 l 1,3,-1
 24 36 l 1,0,-1
16 16 m 29,4,-1
 20 16 l 1,5,-1
 20 8 l 1,6,-1
 24 8 l 1,7,-1
 24 16 l 1,8,-1
 28 16 l 1,9,-1
 28 -4 l 1,10,-1
 24 -4 l 1,11,-1
 24 4 l 1,12,-1
 16 4 l 1,13,-1
 16 16 l 29,4,-1
0 40 m 25,14,-1
 4 40 l 1,15,-1
 4 44 l 1,16,-1
 8 44 l 1,17,-1
 8 28 l 1,18,-1
 12 28 l 1,19,-1
 12 24 l 1,20,-1
 0 24 l 1,21,-1
 0 28 l 1,22,-1
 4 28 l 1,23,-1
 4 36 l 1,24,-1
 0 36 l 1,25,-1
 0 40 l 25,14,-1
EndSplineSet
EndChar

StartChar: onehalf
Encoding: 189 189 311
Width: 32
Flags: MW
HStem: -4 4<20 28> 4 4<20 24> 12 4<16 24> 24 4<0 4 8 12> 36 4<0 4>
VStem: 4 4<28 36 40 44> 16 4<0 4> 24 4<8 12>
LayerCount: 2
Fore
SplineSet
16 16 m 1,0,-1
 28 16 l 1,1,-1
 28 4 l 1,2,-1
 20 4 l 1,3,-1
 20 0 l 1,4,-1
 28 0 l 1,5,-1
 28 -4 l 1,6,-1
 16 -4 l 1,7,-1
 16 8 l 1,8,-1
 24 8 l 1,9,-1
 24 12 l 1,10,-1
 16 12 l 1,11,-1
 16 16 l 1,0,-1
24 36 m 1,12,-1
 28 36 l 1,13,-1
 4 4 l 1,14,-1
 0 4 l 1,15,-1
 24 36 l 1,12,-1
0 40 m 25,16,-1
 4 40 l 1,17,-1
 4 44 l 1,18,-1
 8 44 l 1,19,-1
 8 28 l 1,20,-1
 12 28 l 1,21,-1
 12 24 l 1,22,-1
 0 24 l 1,23,-1
 0 28 l 1,24,-1
 4 28 l 1,25,-1
 4 36 l 1,26,-1
 0 36 l 1,27,-1
 0 40 l 25,16,-1
EndSplineSet
EndChar

StartChar: threequarters
Encoding: 190 190 312
Width: 32
Flags: MW
HStem: 4 4<20 24> 24 4<0 8> 32 4<0 8> 40 4<0 8>
VStem: 8 4<28 32 36 40> 16 4<8 16> 24 4<-4 4 8 16>
LayerCount: 2
Fore
SplineSet
24 36 m 1,0,-1
 28 36 l 1,1,-1
 4 4 l 1,2,-1
 0 4 l 1,3,-1
 24 36 l 1,0,-1
16 16 m 29,4,-1
 20 16 l 1,5,-1
 20 8 l 1,6,-1
 24 8 l 1,7,-1
 24 16 l 1,8,-1
 28 16 l 1,9,-1
 28 -4 l 1,10,-1
 24 -4 l 1,11,-1
 24 4 l 1,12,-1
 16 4 l 1,13,-1
 16 16 l 29,4,-1
0 36 m 1,14,-1
 8 36 l 1,15,-1
 8 40 l 1,16,-1
 0 40 l 1,17,-1
 0 44 l 1,18,-1
 12 44 l 1,19,-1
 12 24 l 1,20,-1
 0 24 l 1,21,-1
 0 28 l 1,22,-1
 8 28 l 1,23,-1
 8 32 l 1,24,-1
 0 32 l 1,25,-1
 0 36 l 1,14,-1
EndSplineSet
EndChar

StartChar: questiondown
Encoding: 191 191 313
Width: 32
Flags: W
HStem: -8 4<8 16> 24 8<8 16>
VStem: 0 8<-2 8> 8 8<24 32> 16 8<-2 4>
LayerCount: 2
Fore
SplineSet
24 4 m 5,0,-1
 24 -2 l 1,1,-1
 18 -8 l 1,2,-1
 6 -8 l 1,3,-1
 0 -2 l 1,4,-1
 0 8 l 1,5,-1
 8 16 l 1,6,-1
 16 16 l 1,7,-1
 8 8 l 1,8,-1
 8 -4 l 1,9,-1
 16 -4 l 1,10,-1
 16 4 l 1,11,-1
 24 4 l 5,0,-1
16 24 m 29,12,-1
 8 24 l 1,13,-1
 8 32 l 1,14,-1
 16 32 l 1,15,-1
 16 24 l 29,12,-1
EndSplineSet
EndChar

StartChar: AE
Encoding: 198 198 314
Width: 32
Flags: W
HStem: 0 4<20 28> 12 4<8 12> 20 4<20 28> 36 4<8 12 20 28>
VStem: 0 8<0 12 16 34> 12 8<4 12 16 20 24 36>
AnchorPoint: "bottom" 14 0 basechar 0
AnchorPoint: "top" 14 40 basechar 0
LayerCount: 2
Fore
SplineSet
12 36 m 25,0,-1
 8 36 l 1,1,-1
 8 16 l 1,2,-1
 12 16 l 1,3,-1
 12 36 l 25,0,-1
6 40 m 1,4,-1
 28 40 l 1,5,-1
 28 36 l 1,6,-1
 20 36 l 1,7,-1
 20 24 l 1,8,-1
 28 24 l 1,9,-1
 28 20 l 1,10,-1
 20 20 l 1,11,-1
 20 4 l 1,12,-1
 28 4 l 1,13,-1
 28 0 l 1,14,-1
 12 0 l 1,15,-1
 12 12 l 1,16,-1
 8 12 l 1,17,-1
 8 0 l 1,18,-1
 0 0 l 1,19,-1
 0 34 l 1,20,-1
 6 40 l 1,4,-1
EndSplineSet
EndChar

StartChar: ae
Encoding: 230 230 315
Width: 32
Flags: MW
HStem: 0 4<8 12 20 28> 8 4<20 24> 16 4<8 12> 24 4<4 12>
VStem: 0 8<6 14> 12 8<4 8 12 16> 24 4<12 20>
AnchorPoint: "bottom" 14 0 basechar 0
AnchorPoint: "top" 14 28 basechar 0
LayerCount: 2
Fore
SplineSet
12 16 m 1,0,-1
 8 16 l 1,1,-1
 8 4 l 1,2,-1
 12 4 l 1,3,-1
 12 16 l 1,0,-1
24 20 m 1,4,-1
 20 20 l 1,5,-1
 20 12 l 1,6,-1
 24 12 l 1,7,-1
 24 20 l 1,4,-1
4 28 m 1,8,-1
 22 28 l 1,9,-1
 28 22 l 1,10,-1
 28 8 l 1,11,-1
 20 8 l 1,12,-1
 20 4 l 1,13,-1
 28 4 l 1,14,-1
 28 0 l 1,15,-1
 6 0 l 1,16,-1
 0 6 l 1,17,-1
 0 14 l 1,18,-1
 6 20 l 1,19,-1
 12 20 l 1,20,-1
 12 24 l 1,21,-1
 4 24 l 1,22,-1
 4 28 l 1,8,-1
EndSplineSet
EndChar

StartChar: Eth
Encoding: 208 208 316
Width: 32
Flags: W
HStem: 0 4<12 14> 16 8<0 4 12 16> 36 4<12 14>
VStem: 4 8<4 16 24 36> 20 8<12 28>
CounterMasks: 1 e0
AnchorPoint: "top" 14 40 basechar 0
AnchorPoint: "bottom" 14 0 basechar 0
LayerCount: 2
Fore
SplineSet
14 36 m 5,0,-1
 12 36 l 1,1,-1
 12 24 l 1,2,-1
 16 24 l 1,3,-1
 16 16 l 1,4,-1
 12 16 l 1,5,-1
 12 4 l 1,6,-1
 14 4 l 1,7,-1
 20 12 l 1,8,-1
 20 28 l 1,9,-1
 14 36 l 5,0,-1
4 40 m 5,10,-1
 20 40 l 1,11,-1
 28 28 l 1,12,-1
 28 12 l 1,13,-1
 20 0 l 1,14,-1
 4 0 l 1,15,-1
 4 16 l 1,16,-1
 0 16 l 1,17,-1
 0 24 l 1,18,-1
 4 24 l 1,19,-1
 4 40 l 5,10,-1
EndSplineSet
EndChar

StartChar: eth
Encoding: 240 240 317
Width: 32
Flags: MW
HStem: 0 4<8 16> 24 4<8 16> 32 4<12 16 24 28>
VStem: 0 8<6 22> 16 8<4 24 28 32 36 40>
LayerCount: 2
Fore
SplineSet
16 40 m 5,0,-1
 24 40 l 1,1,-1
 24 36 l 1,2,-1
 28 36 l 1,3,-1
 28 32 l 1,4,-1
 24 32 l 1,5,-1
 24 0 l 1,6,-1
 6 0 l 1,7,-1
 0 6 l 1,8,-1
 0 22 l 1,9,-1
 6 28 l 1,10,-1
 16 28 l 1,11,-1
 16 32 l 1,12,-1
 12 32 l 1,13,-1
 12 36 l 1,14,-1
 16 36 l 1,15,-1
 16 40 l 5,0,-1
16 24 m 5,16,-1
 8 24 l 1,17,-1
 8 4 l 1,18,-1
 16 4 l 1,19,-1
 16 24 l 5,16,-1
EndSplineSet
EndChar

StartChar: multiply
Encoding: 215 215 318
Width: 32
Flags: MW
LayerCount: 2
Fore
SplineSet
4 28 m 1,0,-1
 4 32 l 1,1,-1
 8 32 l 1,2,-1
 16 24 l 1,3,-1
 24 32 l 1,4,-1
 28 32 l 1,5,-1
 28 28 l 1,6,-1
 20 20 l 1,7,-1
 28 12 l 1,8,-1
 28 8 l 1,9,-1
 24 8 l 1,10,-1
 16 16 l 1,11,-1
 8 8 l 1,12,-1
 4 8 l 1,13,-1
 4 12 l 1,14,-1
 12 20 l 1,15,-1
 4 28 l 1,0,-1
EndSplineSet
EndChar

StartChar: divide
Encoding: 247 247 319
Width: 32
Flags: W
HStem: 8 4<12 20> 16 8<4 28> 28 4<12 20>
VStem: 12 8<8 12 28 32>
CounterMasks: 1 e0
LayerCount: 2
Fore
SplineSet
20 28 m 5,0,-1
 12 28 l 1,1,-1
 12 32 l 1,2,-1
 20 32 l 1,3,-1
 20 28 l 5,0,-1
20 12 m 5,4,-1
 20 8 l 1,5,-1
 12 8 l 1,6,-1
 12 12 l 1,7,-1
 20 12 l 5,4,-1
28 16 m 5,8,-1
 4 16 l 1,9,-1
 4 24 l 1,10,-1
 28 24 l 1,11,-1
 28 16 l 5,8,-1
EndSplineSet
EndChar

StartChar: Oslash
Encoding: 216 216 320
Width: 32
Flags: MW
HStem: 0 4<8 20> 36 4<8 20>
VStem: 0 8<12 34> 20 8<6 28>
AnchorPoint: "top" 14 40 basechar 0
AnchorPoint: "bottom" 14 0 basechar 0
LayerCount: 2
Fore
SplineSet
24 44 m 5,0,-1
 28 44 l 1,1,-1
 28 40 l 1,2,-1
 28 34 l 1,3,-1
 28 6 l 1,4,-1
 22 0 l 1,5,-1
 4 0 l 1,6,-1
 4 -4 l 1,7,-1
 0 -4 l 1,8,-1
 0 2 l 1,9,-1
 0 6 l 1,10,-1
 0 34 l 1,11,-1
 6 40 l 1,12,-1
 24 40 l 1,13,-1
 24 44 l 5,0,-1
8 12 m 5,14,-1
 20 36 l 1,15,-1
 8 36 l 1,16,-1
 8 12 l 5,14,-1
8 4 m 5,17,-1
 20 4 l 1,18,-1
 20 28 l 1,19,-1
 8 4 l 5,17,-1
EndSplineSet
EndChar

StartChar: oslash
Encoding: 248 248 321
Width: 32
Flags: MW
HStem: 0 4<8 20> 24 4<8 20>
VStem: 0 8<10 22> 20 8<6 18>
AnchorPoint: "top" 14 28 basechar 0
AnchorPoint: "bottom" 14 0 basechar 0
LayerCount: 2
Fore
SplineSet
24 32 m 5,0,-1
 28 32 l 1,1,-1
 28 6 l 1,2,-1
 22 0 l 1,3,-1
 4 0 l 1,4,-1
 4 -4 l 1,5,-1
 0 -4 l 1,6,-1
 0 22 l 1,7,-1
 6 28 l 1,8,-1
 24 28 l 1,9,-1
 24 32 l 5,0,-1
20 24 m 5,10,-1
 8 24 l 1,11,-1
 8 10 l 1,12,-1
 20 24 l 5,10,-1
8 4 m 5,13,-1
 20 4 l 1,14,-1
 20 18 l 1,15,-1
 8 4 l 5,13,-1
EndSplineSet
EndChar

StartChar: Thorn
Encoding: 222 222 322
Width: 32
Flags: MW
HStem: 12 4<8 20> 24 4<8 20>
VStem: 0 8<0 12 16 24 28 40> 20 8<18 22>
LayerCount: 2
Fore
SplineSet
20 24 m 5,0,-1
 8 24 l 1,1,-1
 8 16 l 1,2,-1
 20 16 l 1,3,-1
 20 24 l 5,0,-1
0 40 m 29,4,-1
 8 40 l 1,5,-1
 8 28 l 1,6,-1
 22 28 l 1,7,-1
 28 22 l 1,8,-1
 28 18 l 1,9,-1
 22 12 l 1,10,-1
 8 12 l 1,11,-1
 8 0 l 1,12,-1
 0 0 l 1,13,-1
 0 40 l 29,4,-1
EndSplineSet
EndChar

StartChar: thorn
Encoding: 254 254 323
Width: 32
Flags: W
HStem: 0 40G<0 8> 4 4<8 20> 24 4<8 20>
VStem: 0 8<-8 4 8 24 28 40> 20 8<10 22>
LayerCount: 2
Fore
SplineSet
20 24 m 1,0,-1
 8 24 l 1,1,-1
 8 8 l 1,2,-1
 20 8 l 1,3,-1
 20 24 l 1,0,-1
0 40 m 25,4,-1
 8 40 l 1,5,-1
 8 28 l 1,6,-1
 22 28 l 1,7,-1
 28 22 l 1,8,-1
 28 10 l 1,9,-1
 22 4 l 1,10,-1
 8 4 l 1,11,-1
 8 -8 l 1,12,-1
 0 -8 l 1,13,-1
 0 40 l 25,4,-1
EndSplineSet
EndChar

StartChar: germandbls
Encoding: 223 223 324
Width: 32
Flags: MW
HStem: 36 4<8 20>
VStem: 0 8<0 36> 20 8<8 16>
LayerCount: 2
Fore
SplineSet
0 0 m 1,0,-1
 0 40 l 1,1,-1
 22 40 l 1,2,-1
 28 34 l 1,3,-1
 22 28 l 1,4,-1
 22 24 l 1,5,-1
 28 18 l 1,6,-1
 28 6 l 1,7,-1
 22 0 l 1,8,-1
 12 0 l 1,9,-1
 20 8 l 1,10,-1
 20 16 l 1,11,-1
 12 24 l 1,12,-1
 12 28 l 1,13,-1
 20 36 l 1,14,-1
 8 36 l 1,15,-1
 8 0 l 1,16,-1
 0 0 l 1,0,-1
EndSplineSet
EndChar

StartChar: Dcroat
Encoding: 272 272 329
Width: 32
Flags: W
HStem: 0 4<12 14> 16 8<0 4 12 16> 36 4<12 14>
VStem: 4 8<4 16 24 36> 20 8<12 28>
CounterMasks: 1 e0
AnchorPoint: "bottom" 14 0 basechar 0
AnchorPoint: "top" 14 40 basechar 0
LayerCount: 2
Fore
SplineSet
14 36 m 5,0,-1
 12 36 l 1,1,-1
 12 24 l 1,2,-1
 16 24 l 1,3,-1
 16 16 l 1,4,-1
 12 16 l 1,5,-1
 12 4 l 1,6,-1
 14 4 l 1,7,-1
 20 12 l 1,8,-1
 20 28 l 1,9,-1
 14 36 l 5,0,-1
4 40 m 5,10,-1
 20 40 l 1,11,-1
 28 28 l 1,12,-1
 28 12 l 1,13,-1
 20 0 l 1,14,-1
 4 0 l 1,15,-1
 4 16 l 1,16,-1
 0 16 l 1,17,-1
 0 24 l 1,18,-1
 4 24 l 1,19,-1
 4 40 l 5,10,-1
EndSplineSet
EndChar

StartChar: dcroat
Encoding: 273 273 330
Width: 32
Flags: MW
HStem: 0 4<8 16> 24 4<8 16> 32 4<12 16 24 28>
VStem: 0 8<6 22> 16 8<4 24 28 32 36 40>
LayerCount: 2
Fore
SplineSet
16 40 m 1,0,-1
 24 40 l 1,1,-1
 24 36 l 1,2,-1
 28 36 l 1,3,-1
 28 32 l 1,4,-1
 24 32 l 1,5,-1
 24 0 l 1,6,-1
 6 0 l 1,7,-1
 0 6 l 1,8,-1
 0 22 l 1,9,-1
 6 28 l 1,10,-1
 16 28 l 1,11,-1
 16 32 l 1,12,-1
 12 32 l 1,13,-1
 12 36 l 1,14,-1
 16 36 l 1,15,-1
 16 40 l 1,0,-1
16 24 m 1,16,-1
 8 24 l 1,17,-1
 8 4 l 1,18,-1
 16 4 l 1,19,-1
 16 24 l 1,16,-1
EndSplineSet
EndChar

StartChar: uni030B
Encoding: 779 779 331
Width: 32
Flags: W
HStem: 44 8<8 12 20 24>
AnchorPoint: "topmark" 16 40 mark 0
AnchorPoint: "topmark" 16 52 basemark 0
AnchorPoint: "top" 16 40 mark 0
LayerCount: 2
Fore
SplineSet
20 52 m 5,0,-1
 28 52 l 1,1,-1
 24 44 l 1,2,-1
 16 44 l 1,3,-1
 20 52 l 5,0,-1
8 52 m 5,4,-1
 16 52 l 1,5,-1
 12 44 l 1,6,-1
 4 44 l 1,7,-1
 8 52 l 5,4,-1
EndSplineSet
EndChar

StartChar: ogonek
Encoding: 731 731 332
Width: 32
Flags: W
HStem: -12 12
VStem: 8 8
AnchorPoint: "bottom" 14 0 mark 0
LayerCount: 2
Fore
SplineSet
12 0 m 5,0,-1
 16 0 l 1,1,-1
 12 -6 l 1,2,-1
 16 -12 l 1,3,-1
 12 -12 l 1,4,-1
 8 -6 l 1,5,-1
 12 0 l 5,0,-1
EndSplineSet
EndChar

StartChar: hungarumlaut
Encoding: 733 733 333
Width: 32
Flags: W
HStem: 44 8<8 12 20 24>
LayerCount: 2
Fore
SplineSet
20 52 m 5,0,-1
 28 52 l 1,1,-1
 24 44 l 1,2,-1
 16 44 l 1,3,-1
 20 52 l 5,0,-1
8 52 m 5,4,-1
 16 52 l 1,5,-1
 12 44 l 1,6,-1
 4 44 l 1,7,-1
 8 52 l 5,4,-1
EndSplineSet
EndChar

StartChar: uni02C9
Encoding: 713 713 334
Width: 32
Flags: W
HStem: 44 8<4 28>
LayerCount: 2
Fore
SplineSet
4 52 m 5,0,-1
 28 52 l 1,1,-1
 28 44 l 1,2,-1
 4 44 l 1,3,-1
 4 52 l 5,0,-1
EndSplineSet
EndChar

StartChar: caron
Encoding: 711 711 335
Width: 32
Flags: W
HStem: 44 8
LayerCount: 2
Fore
SplineSet
28 52 m 5,0,-1
 16 44 l 1,1,-1
 4 52 l 1,2,-1
 10 52 l 1,3,-1
 16 48 l 1,4,-1
 22 52 l 1,5,-1
 28 52 l 5,0,-1
EndSplineSet
EndChar

StartChar: circumflex
Encoding: 710 710 336
Width: 32
Flags: W
HStem: 44 8
LayerCount: 2
Fore
SplineSet
4 44 m 5,0,-1
 16 52 l 1,1,-1
 28 44 l 1,2,-1
 22 44 l 1,3,-1
 16 48 l 1,4,-1
 10 44 l 1,5,-1
 4 44 l 5,0,-1
EndSplineSet
EndChar

StartChar: dcaron
Encoding: 271 271 341
Width: 32
Flags: MW
HStem: 0 4<8 12> 24 4<8 12>
VStem: 0 8<6 22> 12 8<4 24 28 40> 24 4<28 40>
LayerCount: 2
Fore
SplineSet
24 40 m 5,0,-1
 28 40 l 1,1,-1
 28 28 l 1,2,-1
 24 28 l 1,3,-1
 24 40 l 5,0,-1
12 24 m 25,4,-1
 8 24 l 1,5,-1
 8 4 l 1,6,-1
 12 4 l 1,7,-1
 12 24 l 25,4,-1
12 40 m 25,8,-1
 20 40 l 1,9,-1
 20 0 l 1,10,-1
 6 0 l 1,11,-1
 0 6 l 1,12,-1
 0 22 l 1,13,-1
 6 28 l 1,14,-1
 12 28 l 1,15,-1
 12 40 l 25,8,-1
EndSplineSet
EndChar

StartChar: Hbar
Encoding: 294 294 344
Width: 32
Flags: MW
HStem: 20 4<8 20> 28 4<8 20>
VStem: 0 8<0 20 24 28 32 40> 20 8<0 20 24 28 32 40>
AnchorPoint: "bottom" 14 0 basechar 0
AnchorPoint: "top" 14 40 basechar 0
LayerCount: 2
Fore
SplineSet
0 40 m 1,0,-1
 8 40 l 1,1,-1
 8 32 l 1,2,-1
 20 32 l 1,3,-1
 20 40 l 1,4,-1
 28 40 l 1,5,-1
 28 0 l 1,6,-1
 20 0 l 1,7,-1
 20 20 l 1,8,-1
 8 20 l 1,9,-1
 8 0 l 1,10,-1
 0 0 l 1,11,-1
 0 40 l 1,0,-1
8 28 m 1,12,-1
 8 24 l 1,13,-1
 20 24 l 1,14,-1
 20 28 l 1,15,-1
 8 28 l 1,12,-1
EndSplineSet
EndChar

StartChar: hbar
Encoding: 295 295 345
Width: 32
Flags: MW
HStem: 24 4<12 20> 32 4<0 4 12 16>
VStem: 4 8<0 24 28 32 36 40> 20 8<0 22>
LayerCount: 2
Fore
SplineSet
4 40 m 5,0,-1
 12 40 l 1,1,-1
 12 36 l 1,2,-1
 16 36 l 1,3,-1
 16 32 l 1,4,-1
 12 32 l 1,5,-1
 12 28 l 1,6,-1
 22 28 l 1,7,-1
 28 22 l 1,8,-1
 28 0 l 1,9,-1
 20 0 l 1,10,-1
 20 24 l 1,11,-1
 12 24 l 1,12,-1
 12 0 l 1,13,-1
 4 0 l 1,14,-1
 4 32 l 1,15,-1
 0 32 l 1,16,-1
 0 36 l 1,17,-1
 4 36 l 1,18,-1
 4 40 l 5,0,-1
EndSplineSet
EndChar

StartChar: IJ
Encoding: 306 306 346
Width: 32
Flags: MW
HStem: 0 4<20 24>
VStem: 0 8<0 40> 12 8<6 12> 24 8<6 40>
CounterMasks: 1 70
LayerCount: 2
Fore
SplineSet
24 40 m 1,0,-1
 32 40 l 1,1,-1
 32 6 l 1,2,-1
 26 0 l 1,3,-1
 18 0 l 1,4,-1
 12 6 l 1,5,-1
 12 12 l 1,6,-1
 20 12 l 1,7,-1
 20 4 l 1,8,-1
 24 4 l 1,9,-1
 24 40 l 1,0,-1
0 40 m 1,10,-1
 8 40 l 1,11,-1
 8 0 l 1,12,-1
 0 0 l 1,13,-1
 0 40 l 1,10,-1
EndSplineSet
EndChar

StartChar: ij
Encoding: 307 307 347
Width: 32
Flags: MW
HStem: -8 4<20 24> 20 4<20 24> 32 8<0 8 24 32>
VStem: 0 8<0 24 32 40> 24 8<-2 20 32 40>
LayerCount: 2
Fore
SplineSet
20 24 m 5,0,-1
 32 24 l 1,1,-1
 32 -2 l 1,2,-1
 26 -8 l 1,3,-1
 18 -8 l 1,4,-1
 12 -2 l 1,5,-1
 12 0 l 1,6,-1
 20 0 l 1,7,-1
 20 -4 l 1,8,-1
 24 -4 l 1,9,-1
 24 20 l 1,10,-1
 20 20 l 1,11,-1
 20 24 l 5,0,-1
24 40 m 29,12,-1
 32 40 l 1,13,-1
 32 32 l 1,14,-1
 24 32 l 1,15,-1
 24 40 l 29,12,-1
0 32 m 29,16,-1
 0 40 l 1,17,-1
 8 40 l 1,18,-1
 8 32 l 1,19,-1
 0 32 l 29,16,-1
0 0 m 5,20,-1
 0 24 l 1,21,-1
 8 24 l 1,22,-1
 8 0 l 1,23,-1
 0 0 l 5,20,-1
EndSplineSet
EndChar

StartChar: kgreenlandic
Encoding: 312 312 350
Width: 32
Flags: MW
VStem: 0 8<0 10 18 28>
LayerCount: 2
Fore
SplineSet
0 28 m 25,0,-1
 8 28 l 1,1,-1
 8 18 l 1,2,-1
 20 28 l 1,3,-1
 28 28 l 1,4,-1
 12 14 l 1,5,-1
 28 0 l 1,6,-1
 20 0 l 1,7,-1
 8 10 l 1,8,-1
 8 0 l 1,9,-1
 0 0 l 1,10,-1
 0 28 l 25,0,-1
EndSplineSet
EndChar

StartChar: lslash
Encoding: 322 322 357
Width: 32
Flags: MW
VStem: 12 8<6 12 16 20 24 40>
AnchorPoint: "top" 16 40 basechar 0
AnchorPoint: "bottom" 16 0 basechar 0
LayerCount: 2
Fore
SplineSet
12 40 m 1,0,-1
 20 40 l 1,1,-1
 20 24 l 1,2,-1
 24 28 l 1,3,-1
 28 28 l 1,4,-1
 20 20 l 1,5,-1
 20 6 l 1,6,-1
 26 0 l 1,7,-1
 18 0 l 1,8,-1
 12 6 l 1,9,-1
 12 12 l 1,10,-1
 8 8 l 1,11,-1
 4 8 l 1,12,-1
 12 16 l 1,13,-1
 12 40 l 1,0,-1
EndSplineSet
EndChar

StartChar: Lslash
Encoding: 321 321 358
Width: 32
Flags: MW
HStem: 0 4<12 28>
VStem: 4 8<4 12 16 20 24 40>
AnchorPoint: "bottom" 16 0 basechar 0
AnchorPoint: "top" 8 40 basechar 0
LayerCount: 2
Fore
SplineSet
4 40 m 1,0,-1
 12 40 l 1,1,-1
 12 24 l 1,2,-1
 16 28 l 1,3,-1
 20 28 l 1,4,-1
 12 20 l 1,5,-1
 12 4 l 1,6,-1
 28 4 l 1,7,-1
 28 0 l 1,8,-1
 4 0 l 1,9,-1
 4 12 l 1,10,-1
 0 12 l 1,11,-1
 4 16 l 1,12,-1
 4 40 l 1,0,-1
EndSplineSet
EndChar

StartChar: eng
Encoding: 331 331 362
Width: 32
Flags: MW
HStem: 24 4<8 20>
VStem: 0 8<0 24> 20 8<0 22>
AnchorPoint: "bottom" 14 -8 basechar 0
AnchorPoint: "top" 14 28 basechar 0
LayerCount: 2
Fore
SplineSet
0 0 m 1,0,-1
 0 28 l 1,1,-1
 22 28 l 1,2,-1
 28 22 l 1,3,-1
 28 0 l 1,4,-1
 20 -8 l 1,5,-1
 12 -8 l 1,6,-1
 20 0 l 1,7,-1
 20 24 l 1,8,-1
 8 24 l 1,9,-1
 8 0 l 1,10,-1
 0 0 l 1,0,-1
EndSplineSet
EndChar

StartChar: Eng
Encoding: 330 330 363
Width: 32
Flags: MW
HStem: 36 4<8 20>
VStem: 0 8<0 36> 20 8<0 34>
AnchorPoint: "bottom" 14 -8 basechar 0
AnchorPoint: "top" 14 40 basechar 0
LayerCount: 2
Fore
SplineSet
0 0 m 1,0,-1
 0 40 l 1,1,-1
 22 40 l 1,2,-1
 28 34 l 1,3,-1
 28 0 l 1,4,-1
 20 -8 l 1,5,-1
 12 -8 l 1,6,-1
 20 0 l 1,7,-1
 20 36 l 1,8,-1
 8 36 l 1,9,-1
 8 0 l 1,10,-1
 0 0 l 1,0,-1
EndSplineSet
EndChar

StartChar: OE
Encoding: 338 338 364
Width: 32
Flags: W
HStem: 0 4<8 12 20 28> 20 4<20 28> 36 4<8 12 20 28>
VStem: 0 8<6 34> 12 8<4 20 24 36>
AnchorPoint: "bottom" 14 0 basechar 0
AnchorPoint: "top" 14 40 basechar 0
LayerCount: 2
Fore
SplineSet
12 36 m 1,0,-1
 8 36 l 1,1,-1
 8 4 l 1,2,-1
 12 4 l 1,3,-1
 12 36 l 1,0,-1
6 40 m 1,4,-1
 28 40 l 1,5,-1
 28 36 l 1,6,-1
 20 36 l 1,7,-1
 20 24 l 1,8,-1
 28 24 l 1,9,-1
 28 20 l 1,10,-1
 20 20 l 1,11,-1
 20 4 l 1,12,-1
 28 4 l 1,13,-1
 28 0 l 1,14,-1
 6 0 l 1,15,-1
 0 6 l 1,16,-1
 0 34 l 1,17,-1
 6 40 l 1,4,-1
EndSplineSet
EndChar

StartChar: oe
Encoding: 339 339 365
Width: 32
Flags: MW
HStem: 0 4<8 12 20 28> 8 4<20 24> 24 4<8 12>
VStem: 0 8<6 22> 12 8<4 8 12 20> 24 4<12 20>
AnchorPoint: "bottom" 14 0 basechar 0
AnchorPoint: "top" 14 28 basechar 0
LayerCount: 2
Fore
SplineSet
12 24 m 1,0,-1
 8 24 l 1,1,-1
 8 4 l 1,2,-1
 12 4 l 1,3,-1
 12 24 l 1,0,-1
24 20 m 1,4,-1
 20 20 l 1,5,-1
 20 12 l 1,6,-1
 24 12 l 1,7,-1
 24 20 l 1,4,-1
6 28 m 1,8,-1
 22 28 l 1,9,-1
 28 22 l 1,10,-1
 28 8 l 1,11,-1
 20 8 l 1,12,-1
 20 4 l 1,13,-1
 28 4 l 1,14,-1
 28 0 l 1,15,-1
 6 0 l 1,16,-1
 0 6 l 1,17,-1
 0 22 l 1,18,-1
 6 28 l 1,8,-1
EndSplineSet
EndChar

StartChar: Tbar
Encoding: 358 358 369
Width: 32
Flags: MW
HStem: 24 4<4 8 16 20> 36 4<0 8 16 24>
VStem: 8 8<0 24 28 36>
AnchorPoint: "top" 12 40 basechar 0
AnchorPoint: "bottom" 12 0 basechar 0
LayerCount: 2
Fore
SplineSet
0 40 m 1,0,-1
 24 40 l 1,1,-1
 24 36 l 1,2,-1
 16 36 l 1,3,-1
 16 28 l 1,4,-1
 20 28 l 1,5,-1
 20 24 l 1,6,-1
 16 24 l 1,7,-1
 16 0 l 1,8,-1
 8 0 l 1,9,-1
 8 24 l 1,10,-1
 4 24 l 1,11,-1
 4 28 l 1,12,-1
 8 28 l 1,13,-1
 8 36 l 1,14,-1
 0 36 l 1,15,-1
 0 40 l 1,0,-1
EndSplineSet
EndChar

StartChar: tbar
Encoding: 359 359 370
Width: 32
Flags: MW
HStem: 0 4<16 24> 16 4<4 8 16 20> 24 4<0 8 16 24>
VStem: 8 8<6 16 20 24 28 40>
AnchorPoint: "top" 12 40 basechar 0
AnchorPoint: "bottom" 16 0 basechar 0
LayerCount: 2
Fore
SplineSet
8 40 m 1,0,-1
 16 40 l 1,1,-1
 16 28 l 1,2,-1
 24 28 l 1,3,-1
 24 24 l 1,4,-1
 16 24 l 1,5,-1
 16 20 l 1,6,-1
 20 20 l 1,7,-1
 20 16 l 1,8,-1
 16 16 l 1,9,-1
 16 4 l 1,10,-1
 24 4 l 1,11,-1
 24 0 l 1,12,-1
 14 0 l 1,13,-1
 8 6 l 1,14,-1
 8 16 l 1,15,-1
 4 16 l 1,16,-1
 4 20 l 1,17,-1
 8 20 l 1,18,-1
 8 24 l 1,19,-1
 0 24 l 1,20,-1
 0 28 l 1,21,-1
 8 28 l 1,22,-1
 8 40 l 1,0,-1
EndSplineSet
EndChar

StartChar: longs
Encoding: 383 383 371
Width: 32
Flags: MW
VStem: 8 8<0 32>
LayerCount: 2
Fore
SplineSet
16 40 m 1,0,-1
 24 40 l 1,1,-1
 16 32 l 1,2,-1
 16 0 l 1,3,-1
 8 0 l 1,4,-1
 8 32 l 1,5,-1
 16 40 l 1,0,-1
EndSplineSet
EndChar

StartChar: florin
Encoding: 402 402 372
Width: 32
Flags: MW
HStem: -8 4<0 8> 24 4<0 8 16 24> 36 4<16 24>
VStem: 8 8<-2 24 28 34>
LayerCount: 2
Fore
SplineSet
0 -4 m 1,0,-1
 8 -4 l 1,1,-1
 8 24 l 1,2,-1
 0 24 l 1,3,-1
 0 28 l 1,4,-1
 8 28 l 1,5,-1
 8 34 l 1,6,-1
 14 40 l 1,7,-1
 24 40 l 1,8,-1
 24 36 l 1,9,-1
 16 36 l 1,10,-1
 16 28 l 1,11,-1
 24 28 l 1,12,-1
 24 24 l 1,13,-1
 16 24 l 1,14,-1
 16 -2 l 1,15,-1
 10 -8 l 1,16,-1
 0 -8 l 1,17,-1
 0 -4 l 1,0,-1
EndSplineSet
EndChar

StartChar: Aringacute
Encoding: 506 506 374
Width: 32
Flags: MW
HStem: 4 4<8 20> 20 8<12 16> 30 4<12 16> 36 4<12 16> 42 8<14 18>
VStem: 0 8<0 4 8 12> 20 8<0 4 8 12>
AnchorPoint: "top" 14 28 basechar 0
AnchorPoint: "bottom" 24 0 basechar 0
LayerCount: 2
Fore
SplineSet
16 20 m 1
 12 20 l 1
 8 12 l 1
 8 8 l 1
 20 8 l 1
 20 12 l 1
 16 20 l 1
8 28 m 1
 20 28 l 1
 28 12 l 1
 28 0 l 1
 20 0 l 1
 20 4 l 1
 8 4 l 1
 8 0 l 1
 0 0 l 1
 0 12 l 1
 8 28 l 1
EndSplineSet
Refer: 104 769 N 1 0 0 1 -2 -2 2
Refer: 247 778 N 1 0 0 1 -2 -12 2
EndChar

StartChar: dieresistonos
Encoding: 901 901 376
Width: 32
Flags: W
HStem: 32 8<0 8 12 16 20 28>
VStem: 0 8<32 40> 20 8<32 40>
LayerCount: 2
Fore
SplineSet
20 40 m 25,0,-1
 28 40 l 1,1,-1
 28 32 l 1,2,-1
 20 32 l 1,3,-1
 20 40 l 25,0,-1
10 32 m 1,4,-1
 12 40 l 1,5,-1
 18 40 l 1,6,-1
 16 32 l 1,7,-1
 10 32 l 1,4,-1
0 40 m 25,8,-1
 8 40 l 1,9,-1
 8 32 l 1,10,-1
 0 32 l 1,11,-1
 0 40 l 25,8,-1
EndSplineSet
EndChar

StartChar: uni03A9
Encoding: 937 937 384
Width: 32
Flags: MW
HStem: 0 4<0 4 24 28> 32 8<12 16>
VStem: 0 8<16 28> 20 8<16 28>
LayerCount: 2
Fore
SplineSet
0 4 m 1,0,-1
 4 4 l 1,1,-1
 4 8 l 1,2,-1
 0 14 l 1,3,-1
 0 34 l 1,4,-1
 6 40 l 1,5,-1
 22 40 l 1,6,-1
 28 34 l 1,7,-1
 28 14 l 1,8,-1
 24 8 l 1,9,-1
 24 4 l 1,10,-1
 28 4 l 1,11,-1
 28 0 l 1,12,-1
 16 0 l 1,13,-1
 16 10 l 1,14,-1
 20 16 l 1,15,-1
 20 28 l 1,16,-1
 16 32 l 1,17,-1
 12 32 l 1,18,-1
 8 28 l 1,19,-1
 8 16 l 1,20,-1
 12 10 l 1,21,-1
 12 0 l 1,22,-1
 0 0 l 1,23,-1
 0 4 l 1,0,-1
EndSplineSet
EndChar

StartChar: iota
Encoding: 953 953 386
Width: 32
Flags: MW
VStem: 12 8<6 28>
AnchorPoint: "top" 16 28 basechar 0
AnchorPoint: "bottom" 16 0 basechar 0
LayerCount: 2
Fore
SplineSet
12 28 m 5,0,-1
 20 28 l 1,1,-1
 20 6 l 1,2,-1
 26 0 l 1,3,-1
 18 0 l 1,4,-1
 12 6 l 1,5,-1
 12 28 l 5,0,-1
EndSplineSet
EndChar

StartChar: Gamma
Encoding: 915 915 388
Width: 32
Flags: MW
HStem: 36 4<8 28>
VStem: 0 8<0 36>
LayerCount: 2
Fore
SplineSet
0 40 m 25,0,-1
 28 40 l 1,1,-1
 28 36 l 1,2,-1
 8 36 l 1,3,-1
 8 0 l 1,4,-1
 0 0 l 1,5,-1
 0 40 l 25,0,-1
EndSplineSet
EndChar

StartChar: uni0394
Encoding: 916 916 389
Width: 32
Flags: MW
HStem: 0 4<8 20>
LayerCount: 2
Fore
SplineSet
14 26 m 5,0,-1
 8 4 l 1,1,-1
 20 4 l 1,2,-1
 14 26 l 5,0,-1
0 0 m 29,3,-1
 12 40 l 1,4,-1
 16 40 l 1,5,-1
 28 0 l 1,6,-1
 0 0 l 29,3,-1
EndSplineSet
EndChar

StartChar: Lambda
Encoding: 923 923 390
Width: 32
Flags: MW
LayerCount: 2
Fore
SplineSet
0 0 m 1,0,-1
 12 40 l 1,1,-1
 16 40 l 1,2,-1
 28 0 l 1,3,-1
 20 0 l 1,4,-1
 20 4 l 1,5,-1
 14 26 l 1,6,-1
 8 4 l 1,7,-1
 8 0 l 1,8,-1
 0 0 l 1,0,-1
EndSplineSet
EndChar

StartChar: Theta
Encoding: 920 920 396
Width: 32
Flags: W
HStem: 0 4<8 20> 20 4<12 16> 36 4<8 20>
VStem: 0 8<6 34> 12 4<20 24> 20 8<6 34>
CounterMasks: 1 1c
AnchorPoint: "top" 14 40 basechar 0
AnchorPoint: "bottom" 14 0 basechar 0
LayerCount: 2
Fore
SplineSet
12 24 m 5,0,-1
 16 24 l 1,1,-1
 16 20 l 1,2,-1
 12 20 l 1,3,-1
 12 24 l 5,0,-1
20 36 m 29,4,-1
 8 36 l 1,5,-1
 8 4 l 1,6,-1
 20 4 l 1,7,-1
 20 36 l 29,4,-1
6 40 m 5,8,-1
 22 40 l 1,9,-1
 28 34 l 1,10,-1
 28 6 l 1,11,-1
 22 0 l 1,12,-1
 6 0 l 1,13,-1
 0 6 l 1,14,-1
 0 34 l 1,15,-1
 6 40 l 5,8,-1
EndSplineSet
EndChar

StartChar: Xi
Encoding: 926 926 401
Width: 32
Flags: W
HStem: 0 4<0 28> 20 4<4 24> 36 4<0 28>
LayerCount: 2
Fore
SplineSet
0 4 m 1,0,-1
 28 4 l 1,1,-1
 28 0 l 1,2,-1
 0 0 l 1,3,-1
 0 4 l 1,0,-1
4 24 m 1,4,-1
 24 24 l 1,5,-1
 24 20 l 1,6,-1
 4 20 l 1,7,-1
 4 24 l 1,4,-1
0 40 m 1,8,-1
 28 40 l 1,9,-1
 28 36 l 1,10,-1
 0 36 l 1,11,-1
 0 40 l 1,8,-1
EndSplineSet
EndChar

StartChar: Pi
Encoding: 928 928 403
Width: 32
Flags: MW
HStem: 36 4<8 20>
VStem: 0 8<0 36> 20 8<0 36>
LayerCount: 2
Fore
SplineSet
0 40 m 25,0,-1
 28 40 l 1,1,-1
 28 0 l 1,2,-1
 20 0 l 1,3,-1
 20 36 l 1,4,-1
 8 36 l 1,5,-1
 8 0 l 1,6,-1
 0 0 l 1,7,-1
 0 40 l 25,0,-1
EndSplineSet
EndChar

StartChar: Sigma
Encoding: 931 931 405
Width: 32
Flags: W
HStem: 0 4<8 28> 36 4<8 28>
LayerCount: 2
Fore
SplineSet
0 40 m 1,0,-1
 28 40 l 1,1,-1
 28 36 l 1,2,-1
 8 36 l 1,3,-1
 20 22 l 1,4,-1
 20 18 l 1,5,-1
 8 4 l 1,6,-1
 28 4 l 1,7,-1
 28 0 l 1,8,-1
 0 0 l 1,9,-1
 0 6 l 1,10,-1
 12 20 l 1,11,-1
 0 34 l 1,12,-1
 0 40 l 1,0,-1
EndSplineSet
EndChar

StartChar: Phi
Encoding: 934 934 408
Width: 32
Flags: MW
HStem: 4 4<8 12 16 20> 32 4<8 12 16 20>
VStem: 0 8<10 30> 12 4<0 4 8 32 36 40> 20 8<10 30>
CounterMasks: 1 38
LayerCount: 2
Fore
SplineSet
20 32 m 5,0,-1
 16 32 l 1,1,-1
 16 8 l 1,2,-1
 20 8 l 1,3,-1
 20 32 l 5,0,-1
12 32 m 25,4,-1
 8 32 l 1,5,-1
 8 8 l 1,6,-1
 12 8 l 1,7,-1
 12 32 l 25,4,-1
0 30 m 1,8,-1
 6 36 l 1,9,-1
 12 36 l 1,10,-1
 12 40 l 1,11,-1
 16 40 l 1,12,-1
 16 36 l 1,13,-1
 22 36 l 1,14,-1
 28 30 l 1,15,-1
 28 10 l 1,16,-1
 22 4 l 1,17,-1
 16 4 l 1,18,-1
 16 0 l 1,19,-1
 12 0 l 1,20,-1
 12 4 l 1,21,-1
 6 4 l 1,22,-1
 0 10 l 1,23,-1
 0 30 l 1,8,-1
EndSplineSet
EndChar

StartChar: Psi
Encoding: 936 936 410
Width: 32
Flags: MW
HStem: 8 4<8 12 16 20>
VStem: 0 8<14 40> 12 4<0 8 12 40> 20 8<14 40>
LayerCount: 2
Fore
SplineSet
0 40 m 29,0,-1
 8 40 l 1,1,-1
 8 12 l 1,2,-1
 12 12 l 1,3,-1
 12 40 l 1,4,-1
 16 40 l 1,5,-1
 16 12 l 1,6,-1
 20 12 l 1,7,-1
 20 40 l 1,8,-1
 28 40 l 1,9,-1
 28 14 l 1,10,-1
 22 8 l 1,11,-1
 16 8 l 1,12,-1
 16 0 l 1,13,-1
 12 0 l 1,14,-1
 12 8 l 1,15,-1
 6 8 l 1,16,-1
 0 14 l 1,17,-1
 0 40 l 29,0,-1
EndSplineSet
EndChar

StartChar: alpha
Encoding: 945 945 413
Width: 32
Flags: W
HStem: 0 4<8 12 24 28> 24 4<8 12 24 28>
VStem: 0 8<6 22> 12 8<10 18>
LayerCount: 2
Fore
SplineSet
12 24 m 1,0,-1
 8 24 l 1,1,-1
 8 4 l 1,2,-1
 12 4 l 1,3,-1
 12 24 l 1,0,-1
6 28 m 1,4,-1
 16 28 l 1,5,-1
 18 24 l 1,6,-1
 20 28 l 1,7,-1
 28 28 l 1,8,-1
 28 24 l 1,9,-1
 24 24 l 1,10,-1
 20 18 l 1,11,-1
 20 10 l 1,12,-1
 24 4 l 1,13,-1
 28 4 l 1,14,-1
 28 0 l 1,15,-1
 20 0 l 1,16,-1
 18 4 l 1,17,-1
 16 0 l 1,18,-1
 6 0 l 1,19,-1
 0 6 l 1,20,-1
 0 22 l 1,21,-1
 6 28 l 1,4,-1
EndSplineSet
EndChar

StartChar: epsilon
Encoding: 949 949 414
Width: 32
Flags: W
HStem: 0 4<8 28> 12 4<8 24> 24 4<8 28>
VStem: 0 8<6 10 18 22>
CounterMasks: 1 e0
LayerCount: 2
Fore
SplineSet
6 28 m 5,0,-1
 28 28 l 1,1,-1
 28 24 l 1,2,-1
 8 24 l 1,3,-1
 8 16 l 1,4,-1
 24 16 l 1,5,-1
 24 12 l 1,6,-1
 8 12 l 1,7,-1
 8 4 l 1,8,-1
 28 4 l 1,9,-1
 28 0 l 1,10,-1
 6 0 l 1,11,-1
 0 6 l 1,12,-1
 0 10 l 1,13,-1
 4 14 l 1,14,-1
 0 18 l 1,15,-1
 0 22 l 1,16,-1
 6 28 l 5,0,-1
EndSplineSet
EndChar

StartChar: eta
Encoding: 951 951 417
Width: 32
Flags: MW
HStem: 24 4<8 20>
VStem: 0 8<0 24> 20 8<-8 22>
LayerCount: 2
Fore
SplineSet
0 0 m 1,0,-1
 0 28 l 1,1,-1
 22 28 l 1,2,-1
 28 22 l 1,3,-1
 28 -8 l 1,4,-1
 20 -8 l 1,5,-1
 20 24 l 1,6,-1
 8 24 l 1,7,-1
 8 0 l 1,8,-1
 0 0 l 1,0,-1
EndSplineSet
EndChar

StartChar: theta
Encoding: 952 952 425
Width: 32
Flags: W
HStem: 0 4<8 20> 20 4<8 20> 36 4<8 20>
VStem: 0 8<6 20 24 34> 20 8<6 20 24 34>
AnchorPoint: "bottom" 14 0 basechar 0
AnchorPoint: "top" 14 40 basechar 0
LayerCount: 2
Fore
SplineSet
6 40 m 1,0,-1
 22 40 l 1,1,-1
 28 34 l 1,2,-1
 28 6 l 1,3,-1
 22 0 l 1,4,-1
 6 0 l 1,5,-1
 0 6 l 1,6,-1
 0 34 l 1,7,-1
 6 40 l 1,0,-1
20 36 m 1,8,-1
 8 36 l 1,9,-1
 8 24 l 1,10,-1
 20 24 l 1,11,-1
 20 36 l 1,8,-1
8 20 m 1,12,-1
 8 4 l 1,13,-1
 20 4 l 1,14,-1
 20 20 l 1,15,-1
 8 20 l 1,12,-1
EndSplineSet
EndChar

StartChar: beta
Encoding: 946 946 426
Width: 32
Flags: MW
HStem: 36 4<8 20>
VStem: 0 8<-8 36> 20 8<8 16>
LayerCount: 2
Fore
SplineSet
0 -8 m 5,0,-1
 0 40 l 1,1,-1
 22 40 l 1,2,-1
 28 34 l 1,3,-1
 22 28 l 1,4,-1
 22 24 l 1,5,-1
 28 18 l 1,6,-1
 28 6 l 1,7,-1
 22 0 l 1,8,-1
 12 0 l 1,9,-1
 20 8 l 1,10,-1
 20 16 l 1,11,-1
 12 24 l 1,12,-1
 12 28 l 1,13,-1
 20 36 l 1,14,-1
 8 36 l 1,15,-1
 8 -8 l 1,16,-1
 0 -8 l 5,0,-1
EndSplineSet
EndChar

StartChar: sigma
Encoding: 963 963 427
Width: 32
Flags: W
HStem: 0 4<8 16> 24 4<8 16 24 28>
VStem: 0 8<6 22> 16 8<6 24>
LayerCount: 2
Fore
SplineSet
16 24 m 1,0,-1
 8 24 l 1,1,-1
 8 4 l 1,2,-1
 16 4 l 1,3,-1
 16 24 l 1,0,-1
0 22 m 1,4,-1
 6 28 l 1,5,-1
 28 28 l 1,6,-1
 28 24 l 1,7,-1
 24 24 l 1,8,-1
 24 6 l 1,9,-1
 18 0 l 1,10,-1
 6 0 l 1,11,-1
 0 6 l 1,12,-1
 0 22 l 1,4,-1
EndSplineSet
EndChar

StartChar: tau
Encoding: 964 964 428
Width: 32
Flags: W
HStem: 0 4<16 24> 24 4<0 8 16 24>
VStem: 8 8<6 24>
LayerCount: 2
Fore
SplineSet
0 28 m 5,0,-1
 24 28 l 1,1,-1
 24 24 l 1,2,-1
 16 24 l 1,3,-1
 16 4 l 1,4,-1
 24 4 l 1,5,-1
 24 0 l 1,6,-1
 14 0 l 1,7,-1
 8 6 l 1,8,-1
 8 24 l 1,9,-1
 0 24 l 1,10,-1
 0 28 l 5,0,-1
EndSplineSet
EndChar

StartChar: gamma
Encoding: 947 947 434
Width: 32
Flags: MW
VStem: 10 8<-8 4>
LayerCount: 2
Fore
SplineSet
0 28 m 1,0,-1
 8 28 l 1,1,-1
 14 12 l 1,2,-1
 20 28 l 1,3,-1
 28 28 l 1,4,-1
 18 4 l 1,5,-1
 18 -8 l 1,6,-1
 10 -8 l 1,7,-1
 10 4 l 1,8,-1
 0 28 l 1,0,-1
EndSplineSet
EndChar

StartChar: lambda
Encoding: 955 955 435
Width: 32
Flags: MW
LayerCount: 2
Fore
SplineSet
0 40 m 5,0,-1
 8 40 l 1,1,-1
 28 0 l 1,2,-1
 20 0 l 1,3,-1
 14 12 l 1,4,-1
 8 0 l 1,5,-1
 0 0 l 1,6,-1
 10 20 l 1,7,-1
 0 40 l 5,0,-1
EndSplineSet
EndChar

StartChar: psi
Encoding: 968 968 436
Width: 32
Flags: MW
HStem: 0 4<8 12 16 20>
VStem: 0 8<6 28> 12 4<-8 0 4 32> 20 8<6 28>
LayerCount: 2
Fore
SplineSet
0 28 m 25,0,-1
 8 28 l 1,1,-1
 8 4 l 1,2,-1
 12 4 l 1,3,-1
 12 32 l 1,4,-1
 16 32 l 1,5,-1
 16 4 l 1,6,-1
 20 4 l 1,7,-1
 20 28 l 1,8,-1
 28 28 l 1,9,-1
 28 6 l 1,10,-1
 22 0 l 1,11,-1
 16 0 l 1,12,-1
 16 -8 l 1,13,-1
 12 -8 l 1,14,-1
 12 0 l 1,15,-1
 6 0 l 1,16,-1
 0 6 l 1,17,-1
 0 28 l 25,0,-1
EndSplineSet
EndChar

StartChar: phi
Encoding: 966 966 437
Width: 32
Flags: MW
HStem: 0 4<8 12 16 20> 24 4<16 20>
VStem: 0 8<6 28> 12 4<-4 0 4 24> 20 8<6 22>
LayerCount: 2
Fore
SplineSet
20 24 m 5,0,-1
 16 24 l 1,1,-1
 16 4 l 1,2,-1
 20 4 l 1,3,-1
 20 24 l 5,0,-1
0 28 m 1,4,-1
 8 28 l 1,5,-1
 8 4 l 1,6,-1
 12 4 l 1,7,-1
 12 28 l 1,8,-1
 22 28 l 1,9,-1
 28 22 l 1,10,-1
 28 6 l 1,11,-1
 22 0 l 1,12,-1
 16 0 l 1,13,-1
 16 -4 l 1,14,-1
 12 -4 l 1,15,-1
 12 0 l 1,16,-1
 6 0 l 1,17,-1
 0 6 l 1,18,-1
 0 28 l 1,4,-1
EndSplineSet
EndChar

StartChar: chi
Encoding: 967 967 438
Width: 32
Flags: MW
LayerCount: 2
Fore
SplineSet
0 28 m 1,0,-1
 8 28 l 1,1,-1
 14 18 l 1,2,-1
 20 28 l 1,3,-1
 28 28 l 1,4,-1
 18 10 l 1,5,-1
 28 -8 l 1,6,-1
 20 -8 l 1,7,-1
 14 2 l 1,8,-1
 8 -8 l 1,9,-1
 0 -8 l 1,10,-1
 10 10 l 1,11,-1
 0 28 l 1,0,-1
EndSplineSet
EndChar

StartChar: rho
Encoding: 961 961 439
Width: 32
Flags: MW
HStem: 0 4<8 20> 24 4<8 20>
VStem: 0 8<-8 0 4 22> 20 8<6 22>
LayerCount: 2
Fore
SplineSet
20 24 m 1,0,-1
 8 24 l 1,1,-1
 8 4 l 1,2,-1
 20 4 l 1,3,-1
 20 24 l 1,0,-1
0 -8 m 1,4,-1
 0 22 l 1,5,-1
 6 28 l 1,6,-1
 22 28 l 1,7,-1
 28 22 l 1,8,-1
 28 6 l 1,9,-1
 22 0 l 1,10,-1
 8 0 l 1,11,-1
 8 -8 l 1,12,-1
 0 -8 l 1,4,-1
EndSplineSet
EndChar

StartChar: pi
Encoding: 960 960 440
Width: 32
Flags: MW
HStem: 24 4<0 4 12 16 24 28>
VStem: 4 8<0 24> 16 8<0 24>
LayerCount: 2
Fore
SplineSet
0 28 m 25,0,-1
 28 28 l 1,1,-1
 28 24 l 1,2,-1
 24 24 l 1,3,-1
 24 0 l 1,4,-1
 16 0 l 1,5,-1
 16 24 l 1,6,-1
 12 24 l 1,7,-1
 12 0 l 1,8,-1
 4 0 l 1,9,-1
 4 24 l 1,10,-1
 0 24 l 1,11,-1
 0 28 l 25,0,-1
EndSplineSet
EndChar

StartChar: omega
Encoding: 969 969 441
Width: 32
Flags: MW
HStem: 0 4<8 10 18 20>
VStem: 0 8<6 22> 12 4<4 16> 20 8<6 22>
CounterMasks: 1 70
LayerCount: 2
Fore
SplineSet
0 22 m 1,0,-1
 6 28 l 1,1,-1
 8 28 l 1,2,-1
 8 4 l 1,3,-1
 12 4 l 1,4,-1
 12 16 l 1,5,-1
 16 16 l 1,6,-1
 16 4 l 1,7,-1
 20 4 l 1,8,-1
 20 28 l 1,9,-1
 22 28 l 1,10,-1
 28 22 l 1,11,-1
 28 6 l 1,12,-1
 22 0 l 1,13,-1
 18 0 l 1,14,-1
 14 2 l 1,15,-1
 10 0 l 1,16,-1
 6 0 l 1,17,-1
 0 6 l 1,18,-1
 0 22 l 1,0,-1
EndSplineSet
EndChar

StartChar: delta
Encoding: 948 948 442
Width: 32
Flags: MW
HStem: 0 4<8 20> 24 4<8 20>
VStem: 0 8<6 22> 12 8<36 40> 20 8<4 24>
LayerCount: 2
Fore
SplineSet
20 24 m 29,0,-1
 8 24 l 1,1,-1
 8 4 l 1,2,-1
 20 4 l 1,3,-1
 20 24 l 29,0,-1
12 40 m 13,4,-1
 20 40 l 1,5,-1
 20 36 l 1,6,-1
 28 28 l 1,7,-1
 28 0 l 1,8,-1
 6 0 l 1,9,-1
 0 6 l 1,10,-1
 0 22 l 1,11,-1
 6 28 l 1,12,-1
 20 28 l 1,13,-1
 12 36 l 1,14,-1
 12 40 l 13,4,-1
EndSplineSet
EndChar

StartChar: sigma1
Encoding: 962 962 443
Width: 32
Flags: MW
HStem: 0 4<8 20> 24 4<8 20>
VStem: 0 8<6 22> 20 8<-8 0 20 22>
AnchorPoint: "top" 14 28 basechar 0
AnchorPoint: "bottom" 14 0 basechar 0
LayerCount: 2
Fore
SplineSet
6 28 m 1,0,-1
 22 28 l 1,1,-1
 28 22 l 1,2,-1
 28 20 l 1,3,-1
 20 20 l 1,4,-1
 20 24 l 1,5,-1
 8 24 l 1,6,-1
 8 4 l 1,7,-1
 28 4 l 1,8,-1
 28 -8 l 1,9,-1
 20 -8 l 1,10,-1
 20 0 l 1,11,-1
 6 0 l 1,12,-1
 0 6 l 1,13,-1
 0 22 l 1,14,-1
 6 28 l 1,0,-1
EndSplineSet
EndChar

StartChar: zeta
Encoding: 950 950 444
Width: 32
Flags: MW
HStem: 0 4<8 20> 36 4<0 20>
VStem: 0 8<4 12> 20 8<-8 0>
AnchorPoint: "top" 14 40 basechar 0
AnchorPoint: "bottom" 14 0 basechar 0
LayerCount: 2
Fore
SplineSet
0 40 m 5,0,-1
 28 40 l 1,1,-1
 28 36 l 1,2,-1
 8 12 l 1,3,-1
 8 4 l 1,4,-1
 28 4 l 1,5,-1
 28 -8 l 1,6,-1
 20 -8 l 1,7,-1
 20 0 l 1,8,-1
 0 0 l 1,9,-1
 0 12 l 1,10,-1
 20 36 l 1,11,-1
 0 36 l 1,12,-1
 0 40 l 5,0,-1
EndSplineSet
EndChar

StartChar: xi
Encoding: 958 958 445
Width: 32
Flags: MW
HStem: 0 4<8 20> 20 4<8 24> 36 4<8 28>
VStem: 0 8<6 18 26 34> 20 8<-8 0>
LayerCount: 2
Fore
SplineSet
6 40 m 1,0,-1
 28 40 l 1,1,-1
 28 36 l 1,2,-1
 8 36 l 1,3,-1
 8 24 l 1,4,-1
 24 24 l 1,5,-1
 24 20 l 1,6,-1
 8 20 l 1,7,-1
 8 4 l 1,8,-1
 28 4 l 1,9,-1
 28 -8 l 1,10,-1
 20 -8 l 1,11,-1
 20 0 l 1,12,-1
 6 0 l 1,13,-1
 0 6 l 1,14,-1
 0 18 l 1,15,-1
 4 22 l 1,16,-1
 0 26 l 1,17,-1
 0 34 l 1,18,-1
 6 40 l 1,0,-1
EndSplineSet
EndChar

StartChar: uni045F
Encoding: 1119 1119 449
Width: 32
Flags: MW
HStem: 0 4<8 12 16 20>
VStem: 0 8<4 28> 12 4<-8 0> 20 8<4 28>
CounterMasks: 1 70
LayerCount: 2
Fore
SplineSet
0 28 m 1,0,-1
 8 28 l 1,1,-1
 8 4 l 1,2,-1
 20 4 l 1,3,-1
 20 28 l 1,4,-1
 28 28 l 1,5,-1
 28 0 l 1,6,-1
 16 0 l 1,7,-1
 16 -8 l 1,8,-1
 12 -8 l 1,9,-1
 12 0 l 1,10,-1
 0 0 l 1,11,-1
 0 28 l 1,0,-1
EndSplineSet
EndChar

StartChar: uni043F
Encoding: 1087 1087 477
Width: 32
Flags: MW
HStem: 24 4<8 20>
VStem: 0 8<0 24> 20 8<0 24>
LayerCount: 2
Fore
SplineSet
0 0 m 1,0,-1
 0 28 l 1,1,-1
 28 28 l 1,2,-1
 28 0 l 1,3,-1
 20 0 l 1,4,-1
 20 24 l 1,5,-1
 8 24 l 1,6,-1
 8 0 l 1,7,-1
 0 0 l 1,0,-1
EndSplineSet
EndChar

StartChar: uni043D
Encoding: 1085 1085 478
Width: 32
Flags: MW
HStem: 12 4<8 20>
VStem: 0 8<0 12 16 28> 20 8<0 12 16 28>
LayerCount: 2
Fore
SplineSet
0 28 m 1,0,-1
 8 28 l 1,1,-1
 8 16 l 1,2,-1
 20 16 l 1,3,-1
 20 28 l 1,4,-1
 28 28 l 1,5,-1
 28 0 l 1,6,-1
 20 0 l 1,7,-1
 20 12 l 1,8,-1
 8 12 l 1,9,-1
 8 0 l 1,10,-1
 0 0 l 1,11,-1
 0 28 l 1,0,-1
EndSplineSet
EndChar

StartChar: uni0442
Encoding: 1090 1090 479
Width: 32
Flags: MW
HStem: 24 4<0 8 16 24>
VStem: 8 8<0 24>
LayerCount: 2
Fore
SplineSet
0 28 m 25,0,-1
 24 28 l 1,1,-1
 24 24 l 1,2,-1
 16 24 l 1,3,-1
 16 0 l 1,4,-1
 8 0 l 1,5,-1
 8 24 l 1,6,-1
 0 24 l 1,7,-1
 0 28 l 25,0,-1
EndSplineSet
EndChar

StartChar: uni0433
Encoding: 1075 1075 486
Width: 32
Flags: MW
HStem: 24 4<8 28>
VStem: 0 8<0 24>
AnchorPoint: "bottom" 4 0 basechar 0
AnchorPoint: "top" 14 28 basechar 0
LayerCount: 2
Fore
SplineSet
0 0 m 1,0,-1
 0 28 l 1,1,-1
 28 28 l 1,2,-1
 28 24 l 1,3,-1
 8 24 l 1,4,-1
 8 0 l 1,5,-1
 0 0 l 1,0,-1
EndSplineSet
EndChar

StartChar: uni042F
Encoding: 1071 1071 487
Width: 32
Flags: MW
HStem: 20 4<8 12> 36 4<8 20>
VStem: 0 8<0 6 26 34> 20 8<0 20 24 36>
LayerCount: 2
Fore
SplineSet
8 36 m 1,0,-1
 8 24 l 1,1,-1
 20 24 l 1,2,-1
 20 36 l 1,3,-1
 8 36 l 1,0,-1
28 0 m 25,4,-1
 20 0 l 1,5,-1
 20 20 l 1,6,-1
 8 6 l 1,7,-1
 8 0 l 1,8,-1
 0 0 l 1,9,-1
 0 6 l 1,10,-1
 12 20 l 1,11,-1
 6 20 l 1,12,-1
 0 26 l 1,13,-1
 0 34 l 1,14,-1
 6 40 l 1,15,-1
 28 40 l 1,16,-1
 28 0 l 25,4,-1
EndSplineSet
EndChar

StartChar: uni044F
Encoding: 1103 1103 488
Width: 32
Flags: MW
HStem: 12 4<8 12> 24 4<8 20>
VStem: 0 8<18 22> 20 8<0 12 16 24>
LayerCount: 2
Fore
SplineSet
8 24 m 1,0,-1
 8 16 l 1,1,-1
 20 16 l 1,2,-1
 20 24 l 1,3,-1
 8 24 l 1,0,-1
28 0 m 25,4,-1
 20 0 l 1,5,-1
 20 12 l 1,6,-1
 8 0 l 1,7,-1
 0 0 l 1,8,-1
 12 12 l 1,9,-1
 6 12 l 1,10,-1
 0 18 l 1,11,-1
 0 22 l 1,12,-1
 6 28 l 1,13,-1
 28 28 l 1,14,-1
 28 0 l 25,4,-1
EndSplineSet
EndChar

StartChar: uni043C
Encoding: 1084 1084 489
Width: 32
Flags: MW
VStem: 0 8<0 16> 20 8<0 16>
LayerCount: 2
Fore
SplineSet
0 0 m 25,0,-1
 0 28 l 1,1,-1
 8 28 l 1,2,-1
 14 20 l 1,3,-1
 20 28 l 1,4,-1
 28 28 l 1,5,-1
 28 0 l 1,6,-1
 20 0 l 1,7,-1
 20 16 l 1,8,-1
 14 8 l 1,9,-1
 8 16 l 1,10,-1
 8 0 l 1,11,-1
 0 0 l 25,0,-1
EndSplineSet
EndChar

StartChar: uni0432
Encoding: 1074 1074 490
Width: 32
Flags: W
HStem: 0 4<8 20> 12 4<8 20> 24 4<8 20>
VStem: 0 8<4 12 16 24> 20 8<6 10 18 22>
CounterMasks: 1 e0
LayerCount: 2
Fore
SplineSet
20 12 m 1,0,-1
 8 12 l 1,1,-1
 8 4 l 1,2,-1
 20 4 l 1,3,-1
 20 12 l 1,0,-1
20 24 m 25,4,-1
 8 24 l 1,5,-1
 8 16 l 1,6,-1
 20 16 l 1,7,-1
 20 24 l 25,4,-1
0 28 m 1,8,-1
 22 28 l 1,9,-1
 28 22 l 1,10,-1
 28 18 l 1,11,-1
 24 14 l 1,12,-1
 28 10 l 1,13,-1
 28 6 l 1,14,-1
 22 0 l 1,15,-1
 0 0 l 1,16,-1
 0 28 l 1,8,-1
EndSplineSet
EndChar

StartChar: uni0428
Encoding: 1064 1064 491
Width: 32
Flags: MW
HStem: 0 4<8 12 16 20>
VStem: 0 8<4 40> 12 4<4 40> 20 8<4 40>
CounterMasks: 1 70
LayerCount: 2
Fore
SplineSet
0 40 m 29,0,-1
 8 40 l 1,1,-1
 8 4 l 1,2,-1
 12 4 l 1,3,-1
 12 40 l 1,4,-1
 16 40 l 1,5,-1
 16 4 l 1,6,-1
 20 4 l 1,7,-1
 20 40 l 1,8,-1
 28 40 l 1,9,-1
 28 0 l 1,10,-1
 0 0 l 1,11,-1
 0 40 l 29,0,-1
EndSplineSet
EndChar

StartChar: uni0448
Encoding: 1096 1096 492
Width: 32
Flags: MW
HStem: 0 4<8 12 16 20>
VStem: 0 8<4 28> 12 4<4 28> 20 8<4 28>
CounterMasks: 1 70
LayerCount: 2
Fore
SplineSet
0 28 m 29,0,-1
 8 28 l 1,1,-1
 8 4 l 1,2,-1
 12 4 l 1,3,-1
 12 28 l 1,4,-1
 16 28 l 1,5,-1
 16 4 l 1,6,-1
 20 4 l 1,7,-1
 20 28 l 1,8,-1
 28 28 l 1,9,-1
 28 0 l 1,10,-1
 0 0 l 1,11,-1
 0 28 l 29,0,-1
EndSplineSet
EndChar

StartChar: uni0429
Encoding: 1065 1065 493
Width: 32
Flags: MW
HStem: 0 4<8 12 16 20>
VStem: 0 8<4 40> 12 4<4 40> 20 4<4 40> 24 4<-8 0>
LayerCount: 2
Fore
SplineSet
0 40 m 25,0,-1
 8 40 l 1,1,-1
 8 4 l 1,2,-1
 12 4 l 1,3,-1
 12 40 l 1,4,-1
 16 40 l 1,5,-1
 16 4 l 1,6,-1
 20 4 l 1,7,-1
 20 40 l 1,8,-1
 24 40 l 1,9,-1
 24 4 l 1,10,-1
 28 4 l 1,11,-1
 28 -8 l 1,12,-1
 24 -8 l 1,13,-1
 24 0 l 1,14,-1
 0 0 l 1,15,-1
 0 40 l 25,0,-1
EndSplineSet
EndChar

StartChar: uni0449
Encoding: 1097 1097 494
Width: 32
Flags: MW
HStem: 0 4<8 12 16 20>
VStem: 0 8<4 28> 12 4<4 28> 20 4<4 28> 24 4<-8 0>
LayerCount: 2
Fore
SplineSet
0 28 m 25,0,-1
 8 28 l 1,1,-1
 8 4 l 1,2,-1
 12 4 l 1,3,-1
 12 28 l 1,4,-1
 16 28 l 1,5,-1
 16 4 l 1,6,-1
 20 4 l 1,7,-1
 20 28 l 1,8,-1
 24 28 l 1,9,-1
 24 4 l 1,10,-1
 28 4 l 1,11,-1
 28 -8 l 1,12,-1
 24 -8 l 1,13,-1
 24 0 l 1,14,-1
 0 0 l 1,15,-1
 0 28 l 25,0,-1
EndSplineSet
EndChar

StartChar: uni0416
Encoding: 1046 1046 495
Width: 32
Flags: MW
VStem: 12 4<0 16 24 40>
LayerCount: 2
Fore
SplineSet
0 40 m 5,0,-1
 8 40 l 1,1,-1
 12 24 l 1,2,-1
 12 40 l 1,3,-1
 16 40 l 1,4,-1
 16 24 l 1,5,-1
 20 40 l 1,6,-1
 28 40 l 1,7,-1
 22 20 l 1,8,-1
 28 0 l 1,9,-1
 20 0 l 1,10,-1
 16 16 l 1,11,-1
 16 0 l 1,12,-1
 12 0 l 1,13,-1
 12 16 l 1,14,-1
 8 0 l 1,15,-1
 0 0 l 1,16,-1
 6 20 l 1,17,-1
 0 40 l 5,0,-1
EndSplineSet
EndChar

StartChar: uni0436
Encoding: 1078 1078 496
Width: 32
Flags: MW
VStem: 12 4<0 10 18 28>
LayerCount: 2
Fore
SplineSet
0 28 m 1,0,-1
 8 28 l 1,1,-1
 12 18 l 1,2,-1
 12 28 l 1,3,-1
 16 28 l 1,4,-1
 16 18 l 1,5,-1
 20 28 l 1,6,-1
 28 28 l 1,7,-1
 22 14 l 1,8,-1
 28 0 l 1,9,-1
 20 0 l 1,10,-1
 16 10 l 1,11,-1
 16 0 l 1,12,-1
 12 0 l 1,13,-1
 12 10 l 1,14,-1
 8 0 l 1,15,-1
 0 0 l 1,16,-1
 6 14 l 1,17,-1
 0 28 l 1,0,-1
EndSplineSet
EndChar

StartChar: uni0426
Encoding: 1062 1062 497
Width: 32
Flags: MW
HStem: 0 4<8 16>
VStem: 0 8<4 40> 16 8<4 40> 24 4<-8 0>
LayerCount: 2
Fore
SplineSet
0 40 m 5,0,-1
 8 40 l 1,1,-1
 8 4 l 1,2,-1
 16 4 l 1,3,-1
 16 40 l 1,4,-1
 24 40 l 1,5,-1
 24 4 l 1,6,-1
 28 4 l 1,7,-1
 28 -8 l 1,8,-1
 24 -8 l 1,9,-1
 24 0 l 1,10,-1
 0 0 l 1,11,-1
 0 40 l 5,0,-1
EndSplineSet
EndChar

StartChar: uni0446
Encoding: 1094 1094 498
Width: 32
Flags: MW
HStem: 0 4<8 16>
VStem: 0 8<4 28> 16 8<4 28> 24 4<-8 0>
LayerCount: 2
Fore
SplineSet
0 28 m 5,0,-1
 8 28 l 1,1,-1
 8 4 l 1,2,-1
 16 4 l 1,3,-1
 16 28 l 1,4,-1
 24 28 l 1,5,-1
 24 4 l 1,6,-1
 28 4 l 1,7,-1
 28 -8 l 1,8,-1
 24 -8 l 1,9,-1
 24 0 l 1,10,-1
 0 0 l 1,11,-1
 0 28 l 5,0,-1
EndSplineSet
EndChar

StartChar: uni0427
Encoding: 1063 1063 499
Width: 32
Flags: MW
HStem: 16 4<8 20>
VStem: 0 8<22 40> 20 8<0 16 20 40>
LayerCount: 2
Fore
SplineSet
0 40 m 5,0,-1
 8 40 l 1,1,-1
 8 20 l 1,2,-1
 20 20 l 1,3,-1
 20 40 l 1,4,-1
 28 40 l 1,5,-1
 28 0 l 1,6,-1
 20 0 l 1,7,-1
 20 16 l 1,8,-1
 6 16 l 1,9,-1
 0 22 l 1,10,-1
 0 40 l 5,0,-1
EndSplineSet
EndChar

StartChar: uni0447
Encoding: 1095 1095 500
Width: 32
Flags: MW
HStem: 12 4<8 20>
VStem: 0 8<18 28> 20 8<0 12 16 28>
LayerCount: 2
Fore
SplineSet
0 28 m 1,0,-1
 8 28 l 1,1,-1
 8 16 l 1,2,-1
 20 16 l 1,3,-1
 20 28 l 1,4,-1
 28 28 l 1,5,-1
 28 0 l 1,6,-1
 20 0 l 1,7,-1
 20 12 l 1,8,-1
 6 12 l 1,9,-1
 0 18 l 1,10,-1
 0 28 l 1,0,-1
EndSplineSet
EndChar

StartChar: uni040F
Encoding: 1039 1039 501
Width: 32
Flags: MW
HStem: 0 4<8 12 16 20>
VStem: 0 8<4 40> 12 4<-8 0> 20 8<4 40>
CounterMasks: 1 70
LayerCount: 2
Fore
SplineSet
0 40 m 1,0,-1
 8 40 l 1,1,-1
 8 4 l 1,2,-1
 20 4 l 1,3,-1
 20 40 l 1,4,-1
 28 40 l 1,5,-1
 28 0 l 1,6,-1
 16 0 l 1,7,-1
 16 -8 l 1,8,-1
 12 -8 l 1,9,-1
 12 0 l 1,10,-1
 0 0 l 1,11,-1
 0 40 l 1,0,-1
EndSplineSet
EndChar

StartChar: uni0437
Encoding: 1079 1079 502
Width: 32
Flags: W
HStem: 0 4<0 20> 12 4<4 20> 24 4<0 20>
VStem: 20 8<6 10 18 22>
CounterMasks: 1 e0
LayerCount: 2
Fore
SplineSet
22 0 m 5,0,-1
 0 0 l 1,1,-1
 0 4 l 1,2,-1
 20 4 l 1,3,-1
 20 12 l 1,4,-1
 4 12 l 1,5,-1
 4 16 l 1,6,-1
 20 16 l 1,7,-1
 20 24 l 1,8,-1
 0 24 l 1,9,-1
 0 28 l 1,10,-1
 22 28 l 1,11,-1
 28 22 l 1,12,-1
 28 18 l 1,13,-1
 24 14 l 1,14,-1
 28 10 l 1,15,-1
 28 6 l 1,16,-1
 22 0 l 5,0,-1
EndSplineSet
EndChar

StartChar: uni0417
Encoding: 1047 1047 503
Width: 32
Flags: W
HStem: 0 4<0 20> 20 4<4 20> 36 4<0 20>
VStem: 20 8<6 18 26 34>
LayerCount: 2
Fore
SplineSet
22 0 m 5,0,-1
 0 0 l 1,1,-1
 0 4 l 1,2,-1
 20 4 l 1,3,-1
 20 20 l 1,4,-1
 4 20 l 1,5,-1
 4 24 l 1,6,-1
 20 24 l 1,7,-1
 20 36 l 1,8,-1
 0 36 l 1,9,-1
 0 40 l 1,10,-1
 22 40 l 1,11,-1
 28 34 l 1,12,-1
 28 26 l 1,13,-1
 24 22 l 1,14,-1
 28 18 l 1,15,-1
 28 6 l 1,16,-1
 22 0 l 5,0,-1
EndSplineSet
EndChar

StartChar: uni0411
Encoding: 1041 1041 504
Width: 32
Flags: W
HStem: 0 4<8 20> 24 4<8 20> 36 4<8 24>
VStem: 0 8<4 24 28 36> 20 8<6 22>
LayerCount: 2
Fore
SplineSet
20 24 m 5,0,-1
 8 24 l 1,1,-1
 8 4 l 1,2,-1
 20 4 l 1,3,-1
 20 24 l 5,0,-1
0 40 m 5,4,-1
 24 40 l 1,5,-1
 24 36 l 1,6,-1
 8 36 l 1,7,-1
 8 28 l 1,8,-1
 22 28 l 1,9,-1
 28 22 l 1,10,-1
 28 6 l 1,11,-1
 22 0 l 1,12,-1
 0 0 l 1,13,-1
 0 40 l 5,4,-1
EndSplineSet
EndChar

StartChar: uni042A
Encoding: 1066 1066 505
Width: 32
Flags: W
HStem: 0 4<12 20> 24 4<12 20> 36 4<0 4>
VStem: 4 8<4 24 28 36> 20 8<6 22>
LayerCount: 2
Fore
SplineSet
20 24 m 5,0,-1
 12 24 l 1,1,-1
 12 4 l 1,2,-1
 20 4 l 1,3,-1
 20 24 l 5,0,-1
4 36 m 5,4,-1
 0 36 l 1,5,-1
 0 40 l 1,6,-1
 12 40 l 1,7,-1
 12 28 l 1,8,-1
 22 28 l 1,9,-1
 28 22 l 1,10,-1
 28 6 l 1,11,-1
 22 0 l 1,12,-1
 4 0 l 1,13,-1
 4 36 l 5,4,-1
EndSplineSet
EndChar

StartChar: uni044A
Encoding: 1098 1098 506
Width: 32
Flags: W
HStem: 0 4<12 20> 12 4<12 20> 24 4<0 4>
VStem: 4 8<4 12 16 24> 20 8<6 10>
CounterMasks: 1 e0
LayerCount: 2
Fore
SplineSet
20 12 m 1,0,-1
 12 12 l 1,1,-1
 12 4 l 1,2,-1
 20 4 l 1,3,-1
 20 12 l 1,0,-1
4 24 m 1,4,-1
 0 24 l 1,5,-1
 0 28 l 1,6,-1
 12 28 l 1,7,-1
 12 16 l 1,8,-1
 22 16 l 1,9,-1
 28 10 l 1,10,-1
 28 6 l 1,11,-1
 22 0 l 1,12,-1
 4 0 l 1,13,-1
 4 24 l 1,4,-1
EndSplineSet
EndChar

StartChar: uni044C
Encoding: 1100 1100 508
Width: 32
Flags: MW
HStem: 0 4<8 20> 12 4<8 20>
VStem: 0 8<4 12 16 28> 20 8<6 10>
LayerCount: 2
Fore
SplineSet
20 12 m 5,0,-1
 8 12 l 1,1,-1
 8 4 l 1,2,-1
 20 4 l 1,3,-1
 20 12 l 5,0,-1
0 28 m 29,4,-1
 8 28 l 1,5,-1
 8 16 l 1,6,-1
 22 16 l 1,7,-1
 28 10 l 1,8,-1
 28 6 l 1,9,-1
 22 0 l 1,10,-1
 0 0 l 1,11,-1
 0 28 l 29,4,-1
EndSplineSet
EndChar

StartChar: uni042B
Encoding: 1067 1067 509
Width: 32
Flags: MW
HStem: 0 4<8 12> 24 4<8 12>
VStem: 0 8<4 24 28 40> 12 4<4 24> 20 8<0 40>
LayerCount: 2
Fore
SplineSet
20 40 m 25,0,-1
 28 40 l 1,1,-1
 28 0 l 1,2,-1
 20 0 l 1,3,-1
 20 40 l 25,0,-1
12 24 m 1,4,-1
 8 24 l 1,5,-1
 8 4 l 1,6,-1
 12 4 l 1,7,-1
 12 24 l 1,4,-1
0 40 m 25,8,-1
 8 40 l 1,9,-1
 8 28 l 1,10,-1
 12 28 l 1,11,-1
 16 24 l 1,12,-1
 16 4 l 1,13,-1
 12 0 l 1,14,-1
 0 0 l 1,15,-1
 0 40 l 25,8,-1
EndSplineSet
EndChar

StartChar: uni044B
Encoding: 1099 1099 510
Width: 32
Flags: MW
HStem: 0 4<8 12> 12 4<8 12>
VStem: 0 8<4 12 16 28> 12 4<4 12> 20 8<0 28>
LayerCount: 2
Fore
SplineSet
20 28 m 25,0,-1
 28 28 l 1,1,-1
 28 0 l 1,2,-1
 20 0 l 1,3,-1
 20 28 l 25,0,-1
12 12 m 5,4,-1
 8 12 l 1,5,-1
 8 4 l 1,6,-1
 12 4 l 1,7,-1
 12 12 l 5,4,-1
0 28 m 25,8,-1
 8 28 l 1,9,-1
 8 16 l 1,10,-1
 12 16 l 1,11,-1
 16 12 l 1,12,-1
 16 4 l 1,13,-1
 12 0 l 1,14,-1
 0 0 l 1,15,-1
 0 28 l 25,8,-1
EndSplineSet
EndChar

StartChar: uni042E
Encoding: 1070 1070 511
Width: 32
Flags: MW
HStem: 0 4<16 20> 20 4<4 8> 36 4<16 20>
VStem: 0 4<0 20 24 40> 8 8<6 20 24 34> 20 8<6 34>
LayerCount: 2
Fore
SplineSet
20 36 m 5,0,-1
 16 36 l 1,1,-1
 16 4 l 1,2,-1
 20 4 l 1,3,-1
 20 36 l 5,0,-1
0 40 m 25,4,-1
 4 40 l 1,5,-1
 4 24 l 1,6,-1
 8 24 l 1,7,-1
 8 34 l 1,8,-1
 14 40 l 1,9,-1
 22 40 l 1,10,-1
 28 34 l 1,11,-1
 28 6 l 1,12,-1
 22 0 l 1,13,-1
 14 0 l 1,14,-1
 8 6 l 1,15,-1
 8 20 l 1,16,-1
 4 20 l 1,17,-1
 4 0 l 1,18,-1
 0 0 l 1,19,-1
 0 40 l 25,4,-1
EndSplineSet
EndChar

StartChar: uni044E
Encoding: 1102 1102 512
Width: 32
Flags: MW
HStem: 0 4<16 20> 12 4<4 8> 24 4<16 20>
VStem: 0 4<0 12 16 28> 8 8<6 12 16 22> 20 8<6 22>
CounterMasks: 1 e0
LayerCount: 2
Fore
SplineSet
20 24 m 5,0,-1
 16 24 l 1,1,-1
 16 4 l 1,2,-1
 20 4 l 1,3,-1
 20 24 l 5,0,-1
0 28 m 25,4,-1
 4 28 l 1,5,-1
 4 16 l 1,6,-1
 8 16 l 1,7,-1
 8 22 l 1,8,-1
 14 28 l 1,9,-1
 22 28 l 1,10,-1
 28 22 l 1,11,-1
 28 6 l 1,12,-1
 22 0 l 1,13,-1
 14 0 l 1,14,-1
 8 6 l 1,15,-1
 8 12 l 1,16,-1
 4 12 l 1,17,-1
 4 0 l 1,18,-1
 0 0 l 1,19,-1
 0 28 l 25,4,-1
EndSplineSet
EndChar

StartChar: uni0444
Encoding: 1092 1092 513
Width: 32
Flags: MW
HStem: 0 4<8 12 16 20> 24 4<8 12 16 20>
VStem: 0 8<6 22> 12 4<-8 0 4 24 28 36> 20 8<6 22>
LayerCount: 2
Fore
SplineSet
20 24 m 5,0,-1
 16 24 l 1,1,-1
 16 4 l 1,2,-1
 20 4 l 1,3,-1
 20 24 l 5,0,-1
12 24 m 25,4,-1
 8 24 l 1,5,-1
 8 4 l 1,6,-1
 12 4 l 1,7,-1
 12 24 l 25,4,-1
0 22 m 1,8,-1
 6 28 l 1,9,-1
 12 28 l 1,10,-1
 12 36 l 1,11,-1
 16 36 l 1,12,-1
 16 28 l 1,13,-1
 22 28 l 1,14,-1
 28 22 l 1,15,-1
 28 6 l 1,16,-1
 22 0 l 1,17,-1
 16 0 l 1,18,-1
 16 -8 l 1,19,-1
 12 -8 l 1,20,-1
 12 0 l 1,21,-1
 6 0 l 1,22,-1
 0 6 l 1,23,-1
 0 22 l 1,8,-1
EndSplineSet
EndChar

StartChar: uni040A
Encoding: 1034 1034 514
Width: 32
Flags: MW
HStem: 0 4<16 20> 24 4<4 8 16 20>
VStem: 0 4<0 24 28 40> 8 8<4 24 28 40> 20 8<6 22>
LayerCount: 2
Fore
SplineSet
8 40 m 1,0,-1
 16 40 l 1,1,-1
 16 28 l 1,2,-1
 22 28 l 1,3,-1
 28 22 l 1,4,-1
 28 6 l 1,5,-1
 22 0 l 1,6,-1
 8 0 l 1,7,-1
 8 24 l 1,8,-1
 4 24 l 1,9,-1
 4 0 l 1,10,-1
 0 0 l 1,11,-1
 0 40 l 1,12,-1
 4 40 l 1,13,-1
 4 28 l 1,14,-1
 8 28 l 1,15,-1
 8 40 l 1,0,-1
20 24 m 1,16,-1
 16 24 l 1,17,-1
 16 4 l 1,18,-1
 20 4 l 1,19,-1
 20 24 l 1,16,-1
EndSplineSet
EndChar

StartChar: uni045A
Encoding: 1114 1114 515
Width: 32
Flags: MW
HStem: 0 4<16 20> 12 4<4 8 16 20>
VStem: 0 4<0 12 16 28> 8 8<4 12 16 28> 20 8<6 10>
LayerCount: 2
Fore
SplineSet
8 28 m 1,0,-1
 16 28 l 1,1,-1
 16 16 l 1,2,-1
 22 16 l 1,3,-1
 28 10 l 1,4,-1
 28 6 l 1,5,-1
 22 0 l 1,6,-1
 8 0 l 1,7,-1
 8 12 l 1,8,-1
 4 12 l 1,9,-1
 4 0 l 1,10,-1
 0 0 l 1,11,-1
 0 28 l 1,12,-1
 4 28 l 1,13,-1
 4 16 l 1,14,-1
 8 16 l 1,15,-1
 8 28 l 1,0,-1
20 12 m 5,16,-1
 16 12 l 1,17,-1
 16 4 l 1,18,-1
 20 4 l 1,19,-1
 20 12 l 5,16,-1
EndSplineSet
EndChar

StartChar: uni0418
Encoding: 1048 1048 516
Width: 32
Flags: MW
VStem: 0 8<16 40> 20 8<0 24>
AnchorPoint: "bottom" 14 0 basechar 0
AnchorPoint: "top" 14 40 basechar 0
LayerCount: 2
Fore
SplineSet
0 0 m 25,0,-1
 0 40 l 1,1,-1
 8 40 l 1,2,-1
 8 16 l 1,3,-1
 20 40 l 1,4,-1
 28 40 l 1,5,-1
 28 0 l 1,6,-1
 20 0 l 1,7,-1
 20 24 l 1,8,-1
 8 0 l 1,9,-1
 0 0 l 25,0,-1
EndSplineSet
EndChar

StartChar: uni0438
Encoding: 1080 1080 517
Width: 32
Flags: MW
VStem: 0 8<12 28> 20 8<0 16>
AnchorPoint: "bottom" 14 0 basechar 0
AnchorPoint: "top" 14 28 basechar 0
LayerCount: 2
Fore
SplineSet
0 0 m 25,0,-1
 0 28 l 1,1,-1
 8 28 l 1,2,-1
 8 12 l 1,3,-1
 20 28 l 1,4,-1
 28 28 l 1,5,-1
 28 0 l 1,6,-1
 20 0 l 1,7,-1
 20 16 l 1,8,-1
 8 0 l 1,9,-1
 0 0 l 25,0,-1
EndSplineSet
EndChar

StartChar: uni0423
Encoding: 1059 1059 523
Width: 32
Flags: MW
HStem: 0 4<4 14> 12 4<8 20>
VStem: 0 8<18 40> 20 8<10 12 16 40>
AnchorPoint: "bottom" 14 0 basechar 0
AnchorPoint: "top" 14 40 basechar 0
LayerCount: 2
Fore
SplineSet
0 40 m 1,0,-1
 8 40 l 1,1,-1
 8 16 l 1,2,-1
 20 16 l 1,3,-1
 20 40 l 1,4,-1
 28 40 l 1,5,-1
 28 12 l 1,6,-1
 28 10 l 1,7,-1
 18 0 l 1,8,-1
 4 0 l 1,9,-1
 4 4 l 1,10,-1
 14 4 l 1,11,-1
 20 10 l 1,12,-1
 20 12 l 1,13,-1
 6 12 l 1,14,-1
 0 18 l 1,15,-1
 0 40 l 1,0,-1
EndSplineSet
EndChar

StartChar: uni042D
Encoding: 1069 1069 529
Width: 32
Flags: W
HStem: 0 4<0 14> 20 4<8 20> 36 4<0 14>
VStem: 20 8<10 20 24 30>
LayerCount: 2
Fore
SplineSet
18 0 m 5,0,-1
 0 0 l 1,1,-1
 0 4 l 1,2,-1
 14 4 l 1,3,-1
 20 10 l 1,4,-1
 20 20 l 1,5,-1
 8 20 l 1,6,-1
 8 24 l 1,7,-1
 20 24 l 1,8,-1
 20 30 l 1,9,-1
 14 36 l 1,10,-1
 0 36 l 1,11,-1
 0 40 l 1,12,-1
 18 40 l 1,13,-1
 28 30 l 1,14,-1
 28 10 l 1,15,-1
 18 0 l 5,0,-1
EndSplineSet
EndChar

StartChar: uni0404
Encoding: 1028 1028 530
Width: 32
Flags: W
HStem: 0 4<14 28> 20 4<8 20> 36 4<14 28>
VStem: 0 8<10 20 24 30>
LayerCount: 2
Fore
SplineSet
10 0 m 5,0,-1
 0 10 l 1,1,-1
 0 30 l 1,2,-1
 10 40 l 1,3,-1
 28 40 l 1,4,-1
 28 36 l 1,5,-1
 14 36 l 1,6,-1
 8 30 l 1,7,-1
 8 24 l 1,8,-1
 20 24 l 1,9,-1
 20 20 l 1,10,-1
 8 20 l 1,11,-1
 8 10 l 1,12,-1
 14 4 l 1,13,-1
 28 4 l 1,14,-1
 28 0 l 1,15,-1
 10 0 l 5,0,-1
EndSplineSet
EndChar

StartChar: uni044D
Encoding: 1101 1101 531
Width: 32
Flags: W
HStem: 0 4<0 14> 12 4<8 20> 24 4<0 14>
VStem: 20 8<10 12 16 18>
CounterMasks: 1 e0
LayerCount: 2
Fore
SplineSet
18 0 m 5,0,-1
 0 0 l 1,1,-1
 0 4 l 1,2,-1
 14 4 l 1,3,-1
 20 10 l 1,4,-1
 20 12 l 1,5,-1
 8 12 l 1,6,-1
 8 16 l 1,7,-1
 20 16 l 1,8,-1
 20 18 l 1,9,-1
 14 24 l 1,10,-1
 0 24 l 1,11,-1
 0 28 l 1,12,-1
 18 28 l 1,13,-1
 28 18 l 1,14,-1
 28 10 l 1,15,-1
 18 0 l 5,0,-1
EndSplineSet
EndChar

StartChar: uni0454
Encoding: 1108 1108 532
Width: 32
Flags: W
HStem: 0 4<14 28> 12 4<8 20> 24 4<14 28>
VStem: 0 8<10 12 16 18>
CounterMasks: 1 e0
LayerCount: 2
Fore
SplineSet
10 0 m 5,0,-1
 0 10 l 1,1,-1
 0 18 l 1,2,-1
 10 28 l 1,3,-1
 28 28 l 1,4,-1
 28 24 l 1,5,-1
 14 24 l 1,6,-1
 8 18 l 1,7,-1
 8 16 l 1,8,-1
 20 16 l 1,9,-1
 20 12 l 1,10,-1
 8 12 l 1,11,-1
 8 10 l 1,12,-1
 14 4 l 1,13,-1
 28 4 l 1,14,-1
 28 0 l 1,15,-1
 10 0 l 5,0,-1
EndSplineSet
EndChar

StartChar: uni041B
Encoding: 1051 1051 533
Width: 32
Flags: W
HStem: 0 4<0 4> 36 4<12 20>
VStem: 4 8<4 36> 20 8<0 36>
LayerCount: 2
Fore
SplineSet
0 4 m 25,0,-1
 4 4 l 1,1,-1
 4 40 l 1,2,-1
 28 40 l 1,3,-1
 28 0 l 1,4,-1
 20 0 l 1,5,-1
 20 36 l 1,6,-1
 12 36 l 1,7,-1
 12 0 l 1,8,-1
 0 0 l 1,9,-1
 0 4 l 25,0,-1
EndSplineSet
EndChar

StartChar: uni043B
Encoding: 1083 1083 534
Width: 32
Flags: W
HStem: 0 4<0 4> 24 4<12 20>
VStem: 4 8<4 24> 20 8<0 24>
LayerCount: 2
Fore
SplineSet
0 4 m 25,0,-1
 4 4 l 1,1,-1
 4 28 l 1,2,-1
 28 28 l 1,3,-1
 28 0 l 1,4,-1
 20 0 l 1,5,-1
 20 24 l 1,6,-1
 12 24 l 1,7,-1
 12 0 l 1,8,-1
 0 0 l 1,9,-1
 0 4 l 25,0,-1
EndSplineSet
EndChar

StartChar: uni0431
Encoding: 1073 1073 535
Width: 32
Flags: W
HStem: 0 4<8 20> 24 4<8 20> 36 4<16 20>
VStem: 0 8<4 24> 20 8<6 22>
LayerCount: 2
Fore
SplineSet
8 24 m 25,0,-1
 8 4 l 1,1,-1
 20 4 l 1,2,-1
 20 24 l 1,3,-1
 8 24 l 25,0,-1
20 36 m 1,4,-1
 16 36 l 1,5,-1
 8 28 l 1,6,-1
 22 28 l 1,7,-1
 28 22 l 1,8,-1
 28 6 l 1,9,-1
 22 0 l 1,10,-1
 0 0 l 1,11,-1
 0 28 l 1,12,-1
 12 40 l 1,13,-1
 20 40 l 1,14,-1
 20 36 l 1,4,-1
EndSplineSet
EndChar

StartChar: uni040B
Encoding: 1035 1035 536
Width: 32
Flags: MW
HStem: 24 4<12 20> 36 4<0 4 12 16>
VStem: 4 8<0 24 28 36> 20 8<0 22>
LayerCount: 2
Fore
SplineSet
0 40 m 5,0,-1
 16 40 l 1,1,-1
 16 36 l 1,2,-1
 12 36 l 1,3,-1
 12 28 l 1,4,-1
 22 28 l 1,5,-1
 28 22 l 1,6,-1
 28 0 l 1,7,-1
 20 0 l 1,8,-1
 20 24 l 1,9,-1
 12 24 l 1,10,-1
 12 0 l 1,11,-1
 4 0 l 1,12,-1
 4 36 l 1,13,-1
 0 36 l 1,14,-1
 0 40 l 5,0,-1
EndSplineSet
EndChar

StartChar: uni0402
Encoding: 1026 1026 537
Width: 32
Flags: W
HStem: 0 4<16 20> 24 4<12 20> 36 4<0 4 12 16>
VStem: 4 8<0 24 28 36> 20 8<6 22>
LayerCount: 2
Fore
SplineSet
0 40 m 5,0,-1
 16 40 l 1,1,-1
 16 36 l 1,2,-1
 12 36 l 1,3,-1
 12 28 l 1,4,-1
 22 28 l 1,5,-1
 28 22 l 1,6,-1
 28 6 l 1,7,-1
 22 0 l 1,8,-1
 16 0 l 1,9,-1
 16 4 l 1,10,-1
 20 4 l 1,11,-1
 20 24 l 1,12,-1
 12 24 l 1,13,-1
 12 0 l 1,14,-1
 4 0 l 1,15,-1
 4 36 l 1,16,-1
 0 36 l 1,17,-1
 0 40 l 5,0,-1
EndSplineSet
EndChar

StartChar: uni0452
Encoding: 1106 1106 538
Width: 32
Flags: MW
HStem: 24 4<12 20> 32 4<0 4 12 16>
VStem: 4 8<0 24 28 32 36 40> 20 8<0 22>
LayerCount: 2
Fore
SplineSet
4 40 m 1,0,-1
 12 40 l 1,1,-1
 12 36 l 1,2,-1
 16 36 l 1,3,-1
 16 32 l 1,4,-1
 12 32 l 1,5,-1
 12 28 l 1,6,-1
 22 28 l 1,7,-1
 28 22 l 1,8,-1
 28 0 l 1,9,-1
 24 -8 l 1,10,-1
 16 -8 l 1,11,-1
 20 0 l 1,12,-1
 20 24 l 1,13,-1
 12 24 l 1,14,-1
 12 0 l 1,15,-1
 4 0 l 1,16,-1
 4 32 l 1,17,-1
 0 32 l 1,18,-1
 0 36 l 1,19,-1
 4 36 l 1,20,-1
 4 40 l 1,0,-1
EndSplineSet
EndChar

StartChar: uni0409
Encoding: 1033 1033 539
Width: 32
Flags: MW
HStem: 0 4<16 20> 24 4<16 20> 36 4<4 8>
VStem: 0 4<0 36> 8 8<4 24 28 36> 20 8<6 22>
LayerCount: 2
Fore
SplineSet
20 24 m 25,0,-1
 16 24 l 1,1,-1
 16 4 l 1,2,-1
 20 4 l 1,3,-1
 20 24 l 25,0,-1
0 0 m 25,4,-1
 0 40 l 1,5,-1
 16 40 l 1,6,-1
 16 28 l 1,7,-1
 22 28 l 1,8,-1
 28 22 l 1,9,-1
 28 6 l 1,10,-1
 22 0 l 1,11,-1
 8 0 l 1,12,-1
 8 36 l 1,13,-1
 4 36 l 1,14,-1
 4 0 l 1,15,-1
 0 0 l 25,4,-1
EndSplineSet
EndChar

StartChar: uni0459
Encoding: 1113 1113 540
Width: 32
Flags: MW
HStem: 0 4<16 20> 12 4<16 20> 24 4<4 8>
VStem: 0 4<0 24> 8 8<4 12 16 24> 20 8<6 10>
CounterMasks: 1 e0
LayerCount: 2
Fore
SplineSet
20 12 m 29,0,-1
 16 12 l 1,1,-1
 16 4 l 1,2,-1
 20 4 l 1,3,-1
 20 12 l 29,0,-1
0 0 m 25,4,-1
 0 28 l 1,5,-1
 16 28 l 1,6,-1
 16 16 l 1,7,-1
 22 16 l 1,8,-1
 28 10 l 1,9,-1
 28 6 l 1,10,-1
 22 0 l 1,11,-1
 8 0 l 1,12,-1
 8 24 l 1,13,-1
 4 24 l 1,14,-1
 4 0 l 1,15,-1
 0 0 l 25,4,-1
EndSplineSet
EndChar

StartChar: uni0414
Encoding: 1044 1044 541
Width: 32
Flags: MW
HStem: 0 4<12 16> 36 4<12 16>
VStem: 4 8<4 34> 16 8<4 36>
LayerCount: 2
Fore
SplineSet
16 36 m 1,0,-1
 12 36 l 1,1,-1
 12 4 l 1,2,-1
 16 4 l 1,3,-1
 16 36 l 1,0,-1
0 -8 m 1,4,-1
 0 4 l 1,5,-1
 4 4 l 1,6,-1
 4 34 l 1,7,-1
 10 40 l 1,8,-1
 24 40 l 1,9,-1
 24 4 l 1,10,-1
 28 4 l 1,11,-1
 28 -8 l 1,12,-1
 20 -8 l 1,13,-1
 20 0 l 1,14,-1
 8 0 l 1,15,-1
 8 -8 l 1,16,-1
 0 -8 l 1,4,-1
EndSplineSet
EndChar

StartChar: uni0434
Encoding: 1076 1076 542
Width: 32
Flags: MW
HStem: 0 4<12 16> 24 4<12 16>
VStem: 4 8<4 22> 16 8<4 24>
LayerCount: 2
Fore
SplineSet
16 24 m 1,0,-1
 12 24 l 1,1,-1
 12 4 l 1,2,-1
 16 4 l 1,3,-1
 16 24 l 1,0,-1
0 -8 m 1,4,-1
 0 4 l 1,5,-1
 4 4 l 1,6,-1
 4 22 l 1,7,-1
 10 28 l 1,8,-1
 24 28 l 1,9,-1
 24 4 l 1,10,-1
 28 4 l 1,11,-1
 28 -8 l 1,12,-1
 20 -8 l 1,13,-1
 20 0 l 1,14,-1
 8 0 l 1,15,-1
 8 -8 l 1,16,-1
 0 -8 l 1,4,-1
EndSplineSet
EndChar

StartChar: uni0490
Encoding: 1168 1168 543
Width: 32
Flags: MW
HStem: 36 4<8 20>
VStem: 0 8<0 36> 20 8<40 44>
LayerCount: 2
Fore
SplineSet
0 0 m 5,0,-1
 0 40 l 1,1,-1
 20 40 l 1,2,-1
 20 44 l 1,3,-1
 28 44 l 1,4,-1
 28 36 l 1,5,-1
 8 36 l 1,6,-1
 8 0 l 1,7,-1
 0 0 l 5,0,-1
EndSplineSet
EndChar

StartChar: uni0491
Encoding: 1169 1169 544
Width: 32
Flags: MW
HStem: 24 4<8 20>
VStem: 0 8<0 24> 20 8<28 32>
LayerCount: 2
Fore
SplineSet
0 0 m 1,0,-1
 0 28 l 1,1,-1
 20 28 l 1,2,-1
 20 32 l 1,3,-1
 28 32 l 1,4,-1
 28 24 l 1,5,-1
 8 24 l 1,6,-1
 8 0 l 1,7,-1
 0 0 l 1,0,-1
EndSplineSet
EndChar

StartChar: endash
Encoding: 8211 8211 553
Width: 32
Flags: W
HStem: 16 8<4 28>
LayerCount: 2
Fore
SplineSet
4 24 m 29,0,-1
 28 24 l 1,1,-1
 28 16 l 1,2,-1
 4 16 l 1,3,-1
 4 24 l 29,0,-1
EndSplineSet
EndChar

StartChar: emdash
Encoding: 8212 8212 554
Width: 32
Flags: W
HStem: 16 8<0 28>
LayerCount: 2
Fore
SplineSet
0 24 m 1,0,-1
 28 24 l 1,1,-1
 28 16 l 1,2,-1
 0 16 l 1,3,-1
 0 24 l 1,0,-1
EndSplineSet
EndChar

StartChar: uni2015
Encoding: 8213 8213 555
Width: 32
Flags: W
HStem: 20 4<0 28>
LayerCount: 2
Fore
SplineSet
0 24 m 1,0,-1
 28 24 l 1,1,-1
 28 20 l 1,2,-1
 0 20 l 1,3,-1
 0 24 l 1,0,-1
EndSplineSet
EndChar

StartChar: underscoredbl
Encoding: 8215 8215 556
Width: 32
Flags: W
HStem: -12 4<0 28> -4 4<0 28>
LayerCount: 2
Fore
SplineSet
0 -8 m 25,0,-1
 28 -8 l 1,1,-1
 28 -12 l 1,2,-1
 0 -12 l 1,3,-1
 0 -8 l 25,0,-1
0 0 m 1,4,-1
 28 0 l 1,5,-1
 28 -4 l 1,6,-1
 0 -4 l 1,7,-1
 0 0 l 1,4,-1
EndSplineSet
EndChar

StartChar: quoteleft
Encoding: 8216 8216 557
Width: 32
Flags: W
HStem: 28 12<12 16>
VStem: 8 8<28 32>
LayerCount: 2
Fore
SplineSet
16 28 m 5,0,-1
 8 28 l 1,1,-1
 8 32 l 1,2,-1
 12 40 l 1,3,-1
 20 40 l 1,4,-1
 16 32 l 1,5,-1
 16 28 l 5,0,-1
EndSplineSet
EndChar

StartChar: quoteright
Encoding: 8217 8217 558
Width: 32
Flags: W
HStem: 28 12<12 16>
VStem: 12 8<36 40>
LayerCount: 2
Fore
SplineSet
12 40 m 5,0,-1
 20 40 l 1,1,-1
 20 36 l 1,2,-1
 16 28 l 1,3,-1
 8 28 l 1,4,-1
 12 36 l 1,5,-1
 12 40 l 5,0,-1
EndSplineSet
EndChar

StartChar: quotesinglbase
Encoding: 8218 8218 559
Width: 32
Flags: W
HStem: 0 12<12 16>
VStem: 12 8<8 12>
LayerCount: 2
Fore
SplineSet
12 12 m 5,0,-1
 20 12 l 1,1,-1
 20 8 l 1,2,-1
 16 0 l 1,3,-1
 8 0 l 1,4,-1
 12 8 l 1,5,-1
 12 12 l 5,0,-1
EndSplineSet
EndChar

StartChar: quotereversed
Encoding: 8219 8219 560
Width: 32
Flags: W
HStem: 28 12<12 16>
VStem: 8 8<36 40>
LayerCount: 2
Fore
SplineSet
16 40 m 1,0,-1
 16 36 l 1,1,-1
 20 28 l 1,2,-1
 12 28 l 1,3,-1
 8 36 l 1,4,-1
 8 40 l 1,5,-1
 16 40 l 1,0,-1
EndSplineSet
EndChar

StartChar: quotedblleft
Encoding: 8220 8220 561
Width: 32
Flags: W
HStem: 28 12<8 12 20 24>
VStem: 4 8<28 32> 16 8<28 32>
LayerCount: 2
Fore
SplineSet
24 28 m 5,0,-1
 16 28 l 1,1,-1
 16 32 l 1,2,-1
 20 40 l 1,3,-1
 28 40 l 1,4,-1
 24 32 l 1,5,-1
 24 28 l 5,0,-1
12 28 m 5,6,-1
 4 28 l 1,7,-1
 4 32 l 1,8,-1
 8 40 l 1,9,-1
 16 40 l 1,10,-1
 12 32 l 1,11,-1
 12 28 l 5,6,-1
EndSplineSet
EndChar

StartChar: quotedblright
Encoding: 8221 8221 562
Width: 32
Flags: W
HStem: 28 12<8 12 20 24>
VStem: 8 8<36 40> 20 8<36 40>
LayerCount: 2
Fore
SplineSet
20 40 m 5,0,-1
 28 40 l 1,1,-1
 28 36 l 1,2,-1
 24 28 l 1,3,-1
 16 28 l 1,4,-1
 20 36 l 1,5,-1
 20 40 l 5,0,-1
8 40 m 5,6,-1
 16 40 l 1,7,-1
 16 36 l 1,8,-1
 12 28 l 1,9,-1
 4 28 l 1,10,-1
 8 36 l 1,11,-1
 8 40 l 5,6,-1
EndSplineSet
EndChar

StartChar: quotedblbase
Encoding: 8222 8222 563
Width: 32
Flags: W
HStem: 0 12<8 12 20 24>
VStem: 8 8<8 12> 20 8<8 12>
LayerCount: 2
Fore
SplineSet
20 12 m 5,0,-1
 28 12 l 1,1,-1
 28 8 l 1,2,-1
 24 0 l 1,3,-1
 16 0 l 1,4,-1
 20 8 l 1,5,-1
 20 12 l 5,0,-1
8 12 m 5,6,-1
 16 12 l 1,7,-1
 16 8 l 1,8,-1
 12 0 l 1,9,-1
 4 0 l 1,10,-1
 8 8 l 1,11,-1
 8 12 l 5,6,-1
EndSplineSet
EndChar

StartChar: dagger
Encoding: 8224 8224 564
Width: 32
Flags: MW
HStem: 28 4<4 12 16 24>
VStem: 12 4<0 28 32 40>
LayerCount: 2
Fore
SplineSet
4 32 m 1,0,-1
 12 32 l 1,1,-1
 12 40 l 1,2,-1
 16 40 l 1,3,-1
 16 32 l 1,4,-1
 24 32 l 1,5,-1
 24 28 l 1,6,-1
 16 28 l 1,7,-1
 16 0 l 1,8,-1
 12 0 l 1,9,-1
 12 28 l 1,10,-1
 4 28 l 1,11,-1
 4 32 l 1,0,-1
EndSplineSet
EndChar

StartChar: daggerdbl
Encoding: 8225 8225 565
Width: 32
Flags: MW
HStem: 8 4<4 12 16 24> 28 4<4 12 16 24>
VStem: 12 4<0 8 12 28 32 40>
LayerCount: 2
Fore
SplineSet
12 40 m 25,0,-1
 16 40 l 1,1,-1
 16 32 l 1,2,-1
 24 32 l 1,3,-1
 24 28 l 1,4,-1
 16 28 l 1,5,-1
 16 12 l 1,6,-1
 24 12 l 1,7,-1
 24 8 l 1,8,-1
 16 8 l 1,9,-1
 16 0 l 1,10,-1
 12 0 l 1,11,-1
 12 8 l 1,12,-1
 4 8 l 1,13,-1
 4 12 l 1,14,-1
 12 12 l 1,15,-1
 12 28 l 1,16,-1
 4 28 l 1,17,-1
 4 32 l 1,18,-1
 12 32 l 1,19,-1
 12 40 l 25,0,-1
EndSplineSet
EndChar

StartChar: bullet
Encoding: 8226 8226 566
Width: 32
Flags: W
HStem: 16 12<8 20>
VStem: 8 12<16 28>
LayerCount: 2
Fore
SplineSet
8 28 m 5,0,-1
 20 28 l 1,1,-1
 20 16 l 1,2,-1
 8 16 l 1,3,-1
 8 28 l 5,0,-1
EndSplineSet
EndChar

StartChar: ellipsis
Encoding: 8230 8230 567
Width: 32
Flags: W
HStem: 0 8<0 4 12 16 24 28>
VStem: 0 4<0 8> 12 4<0 8> 24 4<0 8>
CounterMasks: 1 70
LayerCount: 2
Fore
SplineSet
24 8 m 1,0,-1
 28 8 l 1,1,-1
 28 0 l 1,2,-1
 24 0 l 1,3,-1
 24 8 l 1,0,-1
12 8 m 1,4,-1
 16 8 l 1,5,-1
 16 0 l 1,6,-1
 12 0 l 1,7,-1
 12 8 l 1,4,-1
0 8 m 1,8,-1
 4 8 l 1,9,-1
 4 0 l 1,10,-1
 0 0 l 1,11,-1
 0 8 l 1,8,-1
EndSplineSet
EndChar

StartChar: perthousand
Encoding: 8240 8240 568
Width: 32
Flags: MW
HStem: 0 4<4 8 20 24> 8 4<4 8 20 24> 28 4<4 8> 36 4<4 8>
VStem: 0 4<4 8 32 36> 8 4<4 8 32 36> 16 4<4 8> 24 4<4 8>
LayerCount: 2
Fore
SplineSet
8 8 m 25,0,-1
 4 8 l 1,1,-1
 4 4 l 1,2,-1
 8 4 l 1,3,-1
 8 8 l 25,0,-1
0 8 m 17,4,-1
 4 12 l 1,5,-1
 8 12 l 1,6,-1
 12 8 l 1,7,-1
 12 4 l 1,8,-1
 8 0 l 1,9,-1
 4 0 l 1,10,-1
 0 4 l 1,11,-1
 0 8 l 17,4,-1
24 8 m 25,12,-1
 20 8 l 1,13,-1
 20 4 l 1,14,-1
 24 4 l 1,15,-1
 24 8 l 25,12,-1
8 36 m 25,16,-1
 4 36 l 1,17,-1
 4 32 l 1,18,-1
 8 32 l 1,19,-1
 8 36 l 25,16,-1
16 8 m 21,20,-1
 20 12 l 1,21,-1
 24 12 l 1,22,-1
 28 8 l 1,23,-1
 28 4 l 1,24,-1
 24 0 l 1,25,-1
 20 0 l 1,26,-1
 16 4 l 1,27,-1
 16 8 l 21,20,-1
0 36 m 25,28,-1
 4 40 l 1,29,-1
 8 40 l 1,30,-1
 12 36 l 1,31,-1
 12 32 l 1,32,-1
 8 28 l 1,33,-1
 4 28 l 1,34,-1
 0 32 l 1,35,-1
 0 36 l 25,28,-1
20 28 m 1,36,-1
 28 28 l 1,37,-1
 8 16 l 1,38,-1
 0 16 l 1,39,-1
 20 28 l 1,36,-1
EndSplineSet
EndChar

StartChar: minute
Encoding: 8242 8242 569
Width: 32
Flags: W
HStem: 28 12
VStem: 8 12
LayerCount: 2
Fore
SplineSet
12 40 m 5,0,-1
 20 40 l 1,1,-1
 12 28 l 1,2,-1
 8 28 l 1,3,-1
 12 40 l 5,0,-1
EndSplineSet
EndChar

StartChar: second
Encoding: 8243 8243 570
Width: 32
Flags: W
HStem: 28 12
LayerCount: 2
Fore
SplineSet
20 40 m 1,0,-1
 28 40 l 1,1,-1
 20 28 l 1,2,-1
 16 28 l 1,3,-1
 20 40 l 1,0,-1
8 40 m 1,4,-1
 16 40 l 1,5,-1
 8 28 l 1,6,-1
 4 28 l 1,7,-1
 8 40 l 1,4,-1
EndSplineSet
EndChar

StartChar: guilsinglleft
Encoding: 8249 8249 571
Width: 32
Flags: MW
VStem: 8 16
LayerCount: 2
Fore
SplineSet
16 20 m 5,0,-1
 24 20 l 1,1,-1
 16 10 l 1,2,-1
 24 0 l 1,3,-1
 16 0 l 1,4,-1
 8 10 l 1,5,-1
 16 20 l 5,0,-1
EndSplineSet
EndChar

StartChar: guilsinglright
Encoding: 8250 8250 572
Width: 32
Flags: W
HStem: 0 42G<16 16>
VStem: 8 16
LayerCount: 2
Fore
SplineSet
16 20 m 1,0,-1
 24 10 l 1,1,-1
 16 0 l 1,2,-1
 8 0 l 1,3,-1
 16 10 l 1,4,-1
 8 20 l 1,5,-1
 16 20 l 1,0,-1
EndSplineSet
EndChar

StartChar: exclamdbl
Encoding: 8252 8252 573
Width: 32
VWidth: 48
Flags: MW
HStem: 0 8<4 12 20 28>
VStem: 4 8<0 8 16 40> 20 8<0 8 16 40>
LayerCount: 2
Fore
SplineSet
20 40 m 25,0,-1
 28 40 l 1,1,-1
 28 16 l 1,2,-1
 20 16 l 1,3,-1
 20 40 l 25,0,-1
20 8 m 25,4,-1
 28 8 l 1,5,-1
 28 0 l 1,6,-1
 20 0 l 1,7,-1
 20 8 l 25,4,-1
4 40 m 25,8,-1
 12 40 l 1,9,-1
 12 16 l 1,10,-1
 4 16 l 1,11,-1
 4 40 l 25,8,-1
4 8 m 25,12,-1
 12 8 l 1,13,-1
 12 0 l 1,14,-1
 4 0 l 1,15,-1
 4 8 l 25,12,-1
EndSplineSet
EndChar

StartChar: uni203E
Encoding: 8254 8254 574
Width: 32
Flags: W
HStem: 48 4<0 32>
LayerCount: 2
Fore
SplineSet
0 52 m 5,0,-1
 32 52 l 1,1,-1
 32 48 l 1,2,-1
 0 48 l 1,3,-1
 0 52 l 5,0,-1
EndSplineSet
EndChar

StartChar: fraction
Encoding: 8260 8260 575
Width: 32
Flags: W
LayerCount: 2
Fore
SplineSet
24 36 m 5,0,-1
 28 36 l 1,1,-1
 4 4 l 1,2,-1
 0 4 l 1,3,-1
 24 36 l 5,0,-1
EndSplineSet
EndChar

StartChar: uni207F
Encoding: 8319 8319 576
Width: 32
Flags: W
HStem: 36 4<12 16>
VStem: 8 4<20 36> 16 4<20 36>
LayerCount: 2
Fore
SplineSet
8 20 m 25,0,-1
 8 40 l 1,1,-1
 16 40 l 1,2,-1
 20 36 l 1,3,-1
 20 20 l 1,4,-1
 16 20 l 1,5,-1
 16 36 l 1,6,-1
 12 36 l 1,7,-1
 12 20 l 1,8,-1
 8 20 l 25,0,-1
EndSplineSet
EndChar

StartChar: franc
Encoding: 8355 8355 577
Width: 32
Flags: MW
HStem: 4 4<0 4 12 16> 20 4<12 24> 36 4<12 28>
VStem: 4 8<0 4 8 20 24 36>
CounterMasks: 1 e0
LayerCount: 2
Fore
SplineSet
4 0 m 1,0,-1
 4 4 l 1,1,-1
 0 4 l 1,2,-1
 0 8 l 1,3,-1
 4 8 l 1,4,-1
 4 40 l 1,5,-1
 28 40 l 1,6,-1
 28 36 l 1,7,-1
 12 36 l 1,8,-1
 12 24 l 1,9,-1
 24 24 l 1,10,-1
 24 20 l 1,11,-1
 12 20 l 1,12,-1
 12 8 l 1,13,-1
 16 8 l 1,14,-1
 16 4 l 1,15,-1
 12 4 l 1,16,-1
 12 0 l 1,17,-1
 4 0 l 1,0,-1
EndSplineSet
EndChar

StartChar: lira
Encoding: 8356 8356 578
Width: 32
Flags: W
HStem: 0 4<0 4 12 28> 16 4<0 4 12 28> 24 4<0 4 12 28>
VStem: 4 8<4 16 20 24 28 34>
LayerCount: 2
Fore
SplineSet
0 0 m 1,0,-1
 0 4 l 1,1,-1
 4 4 l 1,2,-1
 4 16 l 1,3,-1
 0 16 l 1,4,-1
 0 20 l 1,5,-1
 4 20 l 1,6,-1
 4 24 l 1,7,-1
 0 24 l 1,8,-1
 0 28 l 1,9,-1
 4 28 l 1,10,-1
 4 34 l 1,11,-1
 10 40 l 1,12,-1
 22 40 l 1,13,-1
 28 34 l 1,14,-1
 28 32 l 1,15,-1
 20 32 l 1,16,-1
 20 36 l 1,17,-1
 12 36 l 1,18,-1
 12 28 l 1,19,-1
 28 28 l 1,20,-1
 28 24 l 1,21,-1
 12 24 l 1,22,-1
 12 20 l 1,23,-1
 28 20 l 1,24,-1
 28 16 l 1,25,-1
 12 16 l 1,26,-1
 12 4 l 1,27,-1
 28 4 l 1,28,-1
 28 0 l 1,29,-1
 0 0 l 1,0,-1
EndSplineSet
EndChar

StartChar: peseta
Encoding: 8359 8359 579
Width: 32
Flags: MW
HStem: 0 4<24 28> 20 4<4 8> 24 4<16 20 24 28> 36 4<4 8>
VStem: 0 4<0 20 24 36> 8 4<24 36> 20 4<4 24 28 40>
LayerCount: 2
Fore
SplineSet
8 36 m 29,0,-1
 4 36 l 1,1,-1
 4 24 l 1,2,-1
 8 24 l 1,3,-1
 8 36 l 29,0,-1
20 40 m 25,4,-1
 24 40 l 1,5,-1
 24 28 l 1,6,-1
 28 28 l 1,7,-1
 28 24 l 1,8,-1
 24 24 l 1,9,-1
 24 4 l 1,10,-1
 28 4 l 1,11,-1
 28 0 l 1,12,-1
 24 0 l 1,13,-1
 20 4 l 1,14,-1
 20 24 l 1,15,-1
 16 24 l 1,16,-1
 16 28 l 1,17,-1
 20 28 l 1,18,-1
 20 40 l 25,4,-1
0 0 m 25,19,-1
 0 40 l 1,20,-1
 8 40 l 1,21,-1
 12 36 l 1,22,-1
 12 24 l 1,23,-1
 8 20 l 1,24,-1
 4 20 l 1,25,-1
 4 0 l 1,26,-1
 0 0 l 25,19,-1
EndSplineSet
EndChar

StartChar: Euro
Encoding: 8364 8364 580
Width: 32
Flags: MW
HStem: 0 4<18 28> 16 4<0 4 12 20> 24 4<0 4 12 20> 36 4<18 28>
VStem: 4 8<10 16 20 24 28 30>
LayerCount: 2
Fore
SplineSet
14 0 m 1,0,-1
 4 10 l 1,1,-1
 4 16 l 1,2,-1
 0 16 l 1,3,-1
 0 20 l 1,4,-1
 4 20 l 1,5,-1
 4 24 l 1,6,-1
 0 24 l 1,7,-1
 0 28 l 1,8,-1
 4 28 l 1,9,-1
 4 30 l 1,10,-1
 14 40 l 1,11,-1
 28 40 l 1,12,-1
 28 36 l 1,13,-1
 18 36 l 1,14,-1
 12 30 l 1,15,-1
 12 28 l 1,16,-1
 20 28 l 1,17,-1
 20 24 l 1,18,-1
 12 24 l 1,19,-1
 12 20 l 1,20,-1
 20 20 l 1,21,-1
 20 16 l 1,22,-1
 12 16 l 1,23,-1
 12 10 l 1,24,-1
 18 4 l 1,25,-1
 28 4 l 1,26,-1
 28 0 l 1,27,-1
 14 0 l 1,0,-1
EndSplineSet
EndChar

StartChar: uni2105
Encoding: 8453 8453 581
Width: 32
Flags: W
HStem: 0 4<20 24> 8 4<20 24> 28 4<4 10> 36 4<4 10>
VStem: 0 4<32 36> 16 4<4 8> 24 4<4 8>
LayerCount: 2
Fore
SplineSet
4 40 m 1,0,-1
 10 40 l 1,1,-1
 10 36 l 1,2,-1
 4 36 l 1,3,-1
 4 32 l 1,4,-1
 10 32 l 1,5,-1
 10 28 l 1,6,-1
 4 28 l 1,7,-1
 0 32 l 1,8,-1
 0 36 l 1,9,-1
 4 40 l 1,0,-1
24 8 m 25,10,-1
 20 8 l 1,11,-1
 20 4 l 1,12,-1
 24 4 l 1,13,-1
 24 8 l 25,10,-1
16 8 m 17,14,-1
 20 12 l 1,15,-1
 24 12 l 1,16,-1
 28 8 l 1,17,-1
 28 4 l 1,18,-1
 24 0 l 1,19,-1
 20 0 l 1,20,-1
 16 4 l 1,21,-1
 16 8 l 17,14,-1
20 40 m 25,22,-1
 28 40 l 1,23,-1
 8 0 l 1,24,-1
 0 0 l 1,25,-1
 20 40 l 25,22,-1
EndSplineSet
EndChar

StartChar: uni2103
Encoding: 8451 8451 582
Width: 32
Flags: W
HStem: 0 4<20 24> 28 4<4 8> 36 4<4 8 20 24>
VStem: 0 4<32 36> 8 4<32 36> 16 4<4 36> 24 4<4 8 32 36>
LayerCount: 2
Fore
SplineSet
20 40 m 5,0,-1
 24 40 l 1,1,-1
 28 36 l 1,2,-1
 28 32 l 1,3,-1
 24 32 l 1,4,-1
 24 36 l 1,5,-1
 20 36 l 1,6,-1
 20 4 l 1,7,-1
 24 4 l 1,8,-1
 24 8 l 1,9,-1
 28 8 l 1,10,-1
 28 4 l 1,11,-1
 24 0 l 1,12,-1
 20 0 l 1,13,-1
 16 4 l 1,14,-1
 16 36 l 1,15,-1
 20 40 l 5,0,-1
8 36 m 29,16,-1
 4 36 l 1,17,-1
 4 32 l 1,18,-1
 8 32 l 1,19,-1
 8 36 l 29,16,-1
0 36 m 29,20,-1
 4 40 l 1,21,-1
 8 40 l 1,22,-1
 12 36 l 1,23,-1
 12 32 l 1,24,-1
 8 28 l 1,25,-1
 4 28 l 1,26,-1
 0 32 l 1,27,-1
 0 36 l 29,20,-1
EndSplineSet
EndChar

StartChar: uni2109
Encoding: 8457 8457 583
Width: 32
Flags: MW
HStem: 20 4<20 28> 28 4<4 8> 36 4<4 8 20 28>
VStem: 0 4<32 36> 8 4<32 36> 16 4<0 20 24 36>
CounterMasks: 1 e0
LayerCount: 2
Fore
SplineSet
16 40 m 29,0,-1
 28 40 l 1,1,-1
 28 36 l 1,2,-1
 20 36 l 1,3,-1
 20 24 l 1,4,-1
 28 24 l 1,5,-1
 28 20 l 1,6,-1
 20 20 l 1,7,-1
 20 0 l 1,8,-1
 16 0 l 1,9,-1
 16 40 l 29,0,-1
8 36 m 25,10,-1
 4 36 l 1,11,-1
 4 32 l 1,12,-1
 8 32 l 1,13,-1
 8 36 l 25,10,-1
0 36 m 25,14,-1
 4 40 l 1,15,-1
 8 40 l 1,16,-1
 12 36 l 1,17,-1
 12 32 l 1,18,-1
 8 28 l 1,19,-1
 4 28 l 1,20,-1
 0 32 l 1,21,-1
 0 36 l 25,14,-1
EndSplineSet
EndChar

StartChar: uni2113
Encoding: 8467 8467 584
Width: 32
Flags: W
HStem: 0 4<12 16> 12 4<4 8 12 16> 36 4<12 16>
VStem: 8 4<4 12 16 36> 16 4<4 8 16 36>
LayerCount: 2
Fore
SplineSet
16 36 m 1,0,-1
 12 36 l 1,1,-1
 12 16 l 1,2,-1
 16 16 l 1,3,-1
 16 36 l 1,0,-1
4 16 m 1,4,-1
 8 16 l 1,5,-1
 8 36 l 1,6,-1
 12 40 l 1,7,-1
 16 40 l 1,8,-1
 20 36 l 1,9,-1
 20 16 l 1,10,-1
 16 12 l 1,11,-1
 12 12 l 1,12,-1
 12 4 l 1,13,-1
 16 4 l 1,14,-1
 16 8 l 1,15,-1
 20 8 l 1,16,-1
 20 4 l 1,17,-1
 16 0 l 1,18,-1
 12 0 l 1,19,-1
 8 4 l 1,20,-1
 8 12 l 1,21,-1
 4 12 l 1,22,-1
 4 16 l 1,4,-1
EndSplineSet
EndChar

StartChar: uni2116
Encoding: 8470 8470 585
Width: 32
Flags: MW
HStem: 20 4<16 28> 28 4<20 24> 36 4<4 8 20 24>
VStem: 0 4<0 36> 8 4<0 36> 16 4<32 36> 24 4<32 36>
CounterMasks: 1 e0
LayerCount: 2
Fore
SplineSet
0 0 m 1,0,-1
 0 40 l 1,1,-1
 8 40 l 1,2,-1
 12 36 l 1,3,-1
 12 0 l 1,4,-1
 8 0 l 1,5,-1
 8 36 l 1,6,-1
 4 36 l 1,7,-1
 4 0 l 1,8,-1
 0 0 l 1,0,-1
16 24 m 25,9,-1
 28 24 l 1,10,-1
 28 20 l 1,11,-1
 16 20 l 1,12,-1
 16 24 l 25,9,-1
24 36 m 1,13,-1
 20 36 l 1,14,-1
 20 32 l 1,15,-1
 24 32 l 1,16,-1
 24 36 l 1,13,-1
20 40 m 1,17,-1
 24 40 l 1,18,-1
 28 36 l 1,19,-1
 28 32 l 1,20,-1
 24 28 l 1,21,-1
 20 28 l 1,22,-1
 16 32 l 1,23,-1
 16 36 l 1,24,-1
 20 40 l 1,17,-1
EndSplineSet
EndChar

StartChar: trademark
Encoding: 8482 8482 586
Width: 32
Flags: MW
HStem: 36 4<0 4 8 12>
VStem: 4 4<24 36> 16 4<24 34> 24 4<24 34>
LayerCount: 2
Fore
SplineSet
16 24 m 1,0,-1
 16 40 l 1,1,-1
 20 40 l 1,2,-1
 22 36 l 1,3,-1
 24 40 l 1,4,-1
 28 40 l 1,5,-1
 28 24 l 1,6,-1
 24 24 l 1,7,-1
 24 34 l 1,8,-1
 22 30 l 1,9,-1
 20 34 l 1,10,-1
 20 24 l 1,11,-1
 16 24 l 1,0,-1
4 24 m 1,12,-1
 4 36 l 1,13,-1
 0 36 l 1,14,-1
 0 40 l 1,15,-1
 12 40 l 1,16,-1
 12 36 l 1,17,-1
 8 36 l 1,18,-1
 8 24 l 1,19,-1
 4 24 l 1,12,-1
EndSplineSet
EndChar

StartChar: estimated
Encoding: 8494 8494 588
Width: 32
Flags: W
HStem: 0 2<8 20> 12 2<8 20> 26 2<8 20>
VStem: 0 8<6 12 14 22> 20 8<14 22>
LayerCount: 2
Fore
SplineSet
20 26 m 1,0,-1
 8 26 l 1,1,-1
 8 14 l 1,2,-1
 20 14 l 1,3,-1
 20 26 l 1,0,-1
6 28 m 5,4,-1
 22 28 l 1,5,-1
 28 22 l 1,6,-1
 28 12 l 1,7,-1
 8 12 l 1,8,-1
 8 2 l 1,9,-1
 20 2 l 1,10,-1
 26 8 l 1,11,-1
 28 8 l 1,12,-1
 28 6 l 1,13,-1
 22 0 l 1,14,-1
 6 0 l 1,15,-1
 0 6 l 1,16,-1
 0 22 l 1,17,-1
 6 28 l 5,4,-1
EndSplineSet
EndChar

StartChar: oneeighth
Encoding: 8539 8539 589
Width: 32
Flags: MW
HStem: -4 4<20 24> 4 4<20 24> 12 4<20 24> 24 4<0 4 8 12> 36 4<0 4>
VStem: 4 4<28 36 40 44> 16 4<0 4 8 12> 24 4<0 4 8 12>
LayerCount: 2
Fore
SplineSet
24 4 m 25,0,-1
 20 4 l 1,1,-1
 20 0 l 1,2,-1
 24 0 l 1,3,-1
 24 4 l 25,0,-1
24 12 m 25,4,-1
 20 12 l 1,5,-1
 20 8 l 1,6,-1
 24 8 l 1,7,-1
 24 12 l 25,4,-1
16 16 m 1,8,-1
 28 16 l 1,9,-1
 28 -4 l 1,10,-1
 16 -4 l 1,11,-1
 16 16 l 1,8,-1
24 36 m 1,12,-1
 28 36 l 1,13,-1
 4 4 l 1,14,-1
 0 4 l 1,15,-1
 24 36 l 1,12,-1
0 40 m 25,16,-1
 4 40 l 1,17,-1
 4 44 l 1,18,-1
 8 44 l 1,19,-1
 8 28 l 1,20,-1
 12 28 l 1,21,-1
 12 24 l 1,22,-1
 0 24 l 1,23,-1
 0 28 l 1,24,-1
 4 28 l 1,25,-1
 4 36 l 1,26,-1
 0 36 l 1,27,-1
 0 40 l 25,16,-1
EndSplineSet
EndChar

StartChar: threeeighths
Encoding: 8540 8540 590
Width: 32
Flags: MW
HStem: -4 4<20 24> 4 4<20 24> 12 4<20 24> 24 4<0 8> 32 4<0 8> 40 4<0 8>
VStem: 8 4<28 32 36 40> 16 4<0 4 8 12> 24 4<0 4 8 12>
CounterMasks: 1 0380
LayerCount: 2
Fore
SplineSet
24 4 m 25,0,-1
 20 4 l 1,1,-1
 20 0 l 1,2,-1
 24 0 l 1,3,-1
 24 4 l 25,0,-1
24 12 m 25,4,-1
 20 12 l 1,5,-1
 20 8 l 1,6,-1
 24 8 l 1,7,-1
 24 12 l 25,4,-1
16 16 m 1,8,-1
 28 16 l 1,9,-1
 28 -4 l 1,10,-1
 16 -4 l 1,11,-1
 16 16 l 1,8,-1
24 36 m 1,12,-1
 28 36 l 1,13,-1
 4 4 l 1,14,-1
 0 4 l 1,15,-1
 24 36 l 1,12,-1
0 36 m 1,16,-1
 8 36 l 1,17,-1
 8 40 l 1,18,-1
 0 40 l 1,19,-1
 0 44 l 1,20,-1
 12 44 l 1,21,-1
 12 24 l 1,22,-1
 0 24 l 1,23,-1
 0 28 l 1,24,-1
 8 28 l 1,25,-1
 8 32 l 1,26,-1
 0 32 l 1,27,-1
 0 36 l 1,16,-1
EndSplineSet
EndChar

StartChar: fiveeighths
Encoding: 8541 8541 591
Width: 32
Flags: W
HStem: -4 4<20 24> 4 4<20 24> 12 4<20 24> 24 4<0 8> 32 4<4 8> 40 4<4 12>
VStem: 0 4<36 40> 8 4<28 32> 16 4<0 4 8 12> 24 4<0 4 8 12>
LayerCount: 2
Fore
SplineSet
0 44 m 25,0,-1
 12 44 l 1,1,-1
 12 40 l 1,2,-1
 4 40 l 1,3,-1
 4 36 l 1,4,-1
 12 36 l 1,5,-1
 12 24 l 1,6,-1
 0 24 l 1,7,-1
 0 28 l 1,8,-1
 8 28 l 1,9,-1
 8 32 l 1,10,-1
 0 32 l 1,11,-1
 0 44 l 25,0,-1
24 4 m 25,12,-1
 20 4 l 1,13,-1
 20 0 l 1,14,-1
 24 0 l 1,15,-1
 24 4 l 25,12,-1
24 12 m 25,16,-1
 20 12 l 1,17,-1
 20 8 l 1,18,-1
 24 8 l 1,19,-1
 24 12 l 25,16,-1
16 16 m 1,20,-1
 28 16 l 1,21,-1
 28 -4 l 1,22,-1
 16 -4 l 1,23,-1
 16 16 l 1,20,-1
24 36 m 1,24,-1
 28 36 l 1,25,-1
 4 4 l 1,26,-1
 0 4 l 1,27,-1
 24 36 l 1,24,-1
EndSplineSet
EndChar

StartChar: seveneighths
Encoding: 8542 8542 592
Width: 32
Flags: W
HStem: -4 4<20 24> 4 4<20 24> 12 4<20 24> 40 4<0 8>
VStem: 8 4<24 40> 16 4<0 4 8 12> 24 4<0 4 8 12>
CounterMasks: 1 0e
LayerCount: 2
Fore
SplineSet
0 44 m 1,0,-1
 12 44 l 1,1,-1
 12 24 l 1,2,-1
 8 24 l 1,3,-1
 8 40 l 1,4,-1
 0 40 l 1,5,-1
 0 44 l 1,0,-1
24 4 m 25,6,-1
 20 4 l 1,7,-1
 20 0 l 1,8,-1
 24 0 l 1,9,-1
 24 4 l 25,6,-1
24 12 m 25,10,-1
 20 12 l 1,11,-1
 20 8 l 1,12,-1
 24 8 l 1,13,-1
 24 12 l 25,10,-1
16 16 m 1,14,-1
 28 16 l 1,15,-1
 28 -4 l 1,16,-1
 16 -4 l 1,17,-1
 16 16 l 1,14,-1
24 36 m 1,18,-1
 28 36 l 1,19,-1
 4 4 l 1,20,-1
 0 4 l 1,21,-1
 24 36 l 1,18,-1
EndSplineSet
EndChar

StartChar: arrowleft
Encoding: 8592 8592 593
Width: 32
Flags: W
HStem: 16 12<10 28>
LayerCount: 2
Fore
SplineSet
14 36 m 5,0,-1
 18 36 l 1,1,-1
 10 28 l 1,2,-1
 28 28 l 1,3,-1
 28 16 l 1,4,-1
 10 16 l 1,5,-1
 18 8 l 1,6,-1
 14 8 l 1,7,-1
 0 22 l 1,8,-1
 14 36 l 5,0,-1
EndSplineSet
EndChar

StartChar: arrowright
Encoding: 8594 8594 594
Width: 32
Flags: W
HStem: 16 12<0 18>
LayerCount: 2
Fore
SplineSet
14 36 m 1,0,-1
 28 22 l 1,1,-1
 14 8 l 1,2,-1
 10 8 l 1,3,-1
 18 16 l 1,4,-1
 0 16 l 1,5,-1
 0 28 l 1,6,-1
 18 28 l 1,7,-1
 10 36 l 1,8,-1
 14 36 l 1,0,-1
EndSplineSet
EndChar

StartChar: arrowup
Encoding: 8593 8593 595
Width: 32
Flags: MW
VStem: 8 12<4 30>
LayerCount: 2
Fore
SplineSet
8 4 m 5,0,-1
 8 30 l 1,1,-1
 0 22 l 1,2,-1
 0 26 l 1,3,-1
 14 40 l 1,4,-1
 28 26 l 1,5,-1
 28 22 l 1,6,-1
 20 30 l 1,7,-1
 20 4 l 1,8,-1
 8 4 l 5,0,-1
EndSplineSet
EndChar

StartChar: arrowdown
Encoding: 8595 8595 596
Width: 32
Flags: W
HStem: 0 40G<8 20>
VStem: 8 12<14 40>
LayerCount: 2
Fore
SplineSet
8 40 m 1,0,-1
 20 40 l 1,1,-1
 20 14 l 1,2,-1
 28 22 l 1,3,-1
 28 18 l 1,4,-1
 14 4 l 1,5,-1
 0 18 l 1,6,-1
 0 22 l 1,7,-1
 8 14 l 1,8,-1
 8 40 l 1,0,-1
EndSplineSet
EndChar

StartChar: arrowboth
Encoding: 8596 8596 597
Width: 32
Flags: W
HStem: 16 12<8 24>
LayerCount: 2
Fore
SplineSet
8 36 m 5,0,-1
 12 36 l 1,1,-1
 8 28 l 1,2,-1
 24 28 l 1,3,-1
 20 36 l 1,4,-1
 24 36 l 1,5,-1
 32 22 l 1,6,-1
 24 8 l 1,7,-1
 20 8 l 1,8,-1
 24 16 l 1,9,-1
 8 16 l 1,10,-1
 12 8 l 1,11,-1
 8 8 l 1,12,-1
 0 22 l 1,13,-1
 8 36 l 5,0,-1
EndSplineSet
EndChar

StartChar: arrowupdn
Encoding: 8597 8597 598
Width: 32
Flags: MW
VStem: 8 12<12 32>
LayerCount: 2
Fore
SplineSet
8 12 m 5,0,-1
 8 32 l 1,1,-1
 0 26 l 1,2,-1
 0 30 l 1,3,-1
 14 40 l 1,4,-1
 28 30 l 1,5,-1
 28 26 l 1,6,-1
 20 32 l 1,7,-1
 20 12 l 1,8,-1
 28 18 l 1,9,-1
 28 14 l 1,10,-1
 14 4 l 1,11,-1
 0 14 l 1,12,-1
 0 18 l 1,13,-1
 8 12 l 5,0,-1
EndSplineSet
EndChar

StartChar: arrowupdnbse
Encoding: 8616 8616 599
Width: 32
Flags: MW
HStem: -4 4<0 28>
VStem: 8 12<12 32>
LayerCount: 2
Fore
SplineSet
0 0 m 25,0,-1
 28 0 l 1,1,-1
 28 -4 l 1,2,-1
 0 -4 l 1,3,-1
 0 0 l 25,0,-1
8 12 m 1,4,-1
 8 32 l 1,5,-1
 0 26 l 1,6,-1
 0 30 l 1,7,-1
 14 40 l 1,8,-1
 28 30 l 1,9,-1
 28 26 l 1,10,-1
 20 32 l 1,11,-1
 20 12 l 1,12,-1
 28 18 l 1,13,-1
 28 14 l 1,14,-1
 14 4 l 1,15,-1
 0 14 l 1,16,-1
 0 18 l 1,17,-1
 8 12 l 1,4,-1
EndSplineSet
EndChar

StartChar: partialdiff
Encoding: 8706 8706 600
Width: 32
Flags: W
HStem: 0 4<8 20> 20 4<8 20> 36 4<4 14>
VStem: 0 8<6 18> 20 8<6 20 24 30>
LayerCount: 2
Fore
SplineSet
8 20 m 5,0,-1
 8 4 l 1,1,-1
 20 4 l 1,2,-1
 20 20 l 1,3,-1
 8 20 l 5,0,-1
18 40 m 5,4,-1
 28 30 l 1,5,-1
 28 24 l 1,6,-1
 28 6 l 1,7,-1
 22 0 l 1,8,-1
 6 0 l 1,9,-1
 0 6 l 1,10,-1
 0 18 l 1,11,-1
 6 24 l 1,12,-1
 20 24 l 1,13,-1
 20 30 l 1,14,-1
 14 36 l 1,15,-1
 4 36 l 1,16,-1
 4 40 l 1,17,-1
 18 40 l 5,4,-1
EndSplineSet
EndChar

StartChar: radical
Encoding: 8730 8730 607
Width: 32
Flags: MW
HStem: 36 4<16 28>
VStem: 8 8<8 36>
LayerCount: 2
Fore
SplineSet
0 8 m 1,0,-1
 0 16 l 1,1,-1
 8 8 l 1,2,-1
 8 40 l 1,3,-1
 28 40 l 1,4,-1
 28 36 l 1,5,-1
 16 36 l 1,6,-1
 16 0 l 1,7,-1
 8 0 l 1,8,-1
 0 8 l 1,0,-1
EndSplineSet
EndChar

StartChar: orthogonal
Encoding: 8735 8735 608
Width: 32
Flags: MW
HStem: 0 4<4 28>
VStem: 0 4<4 28>
LayerCount: 2
Fore
SplineSet
0 28 m 25,0,-1
 4 28 l 1,1,-1
 4 4 l 1,2,-1
 28 4 l 1,3,-1
 28 0 l 1,4,-1
 0 0 l 1,5,-1
 0 28 l 25,0,-1
EndSplineSet
EndChar

StartChar: infinity
Encoding: 8734 8734 609
Width: 32
Flags: W
HStem: 12 4<4 8 20 24> 24 4<4 8 20 24>
VStem: 0 4<16 24> 24 4<16 24>
LayerCount: 2
Fore
SplineSet
24 24 m 29,0,-1
 20 24 l 1,1,-1
 16 20 l 1,2,-1
 20 16 l 1,3,-1
 24 16 l 1,4,-1
 24 24 l 29,0,-1
8 24 m 5,5,-1
 4 24 l 1,6,-1
 4 16 l 1,7,-1
 8 16 l 1,8,-1
 12 20 l 1,9,-1
 8 24 l 5,5,-1
0 16 m 5,10,-1
 0 24 l 1,11,-1
 4 28 l 1,12,-1
 8 28 l 1,13,-1
 14 22 l 1,14,-1
 20 28 l 1,15,-1
 24 28 l 1,16,-1
 28 24 l 1,17,-1
 28 16 l 1,18,-1
 24 12 l 1,19,-1
 20 12 l 1,20,-1
 14 18 l 1,21,-1
 8 12 l 1,22,-1
 4 12 l 1,23,-1
 0 16 l 5,10,-1
EndSplineSet
EndChar

StartChar: intersection
Encoding: 8745 8745 610
Width: 32
Flags: MW
HStem: 36 4<12 16>
VStem: 4 4<0 32> 20 4<0 32>
LayerCount: 2
Fore
SplineSet
4 36 m 25,0,-1
 8 40 l 1,1,-1
 20 40 l 1,2,-1
 24 36 l 1,3,-1
 24 0 l 1,4,-1
 20 0 l 1,5,-1
 20 32 l 1,6,-1
 16 36 l 1,7,-1
 12 36 l 1,8,-1
 8 32 l 1,9,-1
 8 0 l 1,10,-1
 4 0 l 1,11,-1
 4 36 l 25,0,-1
EndSplineSet
EndChar

StartChar: integral
Encoding: 8747 8747 611
Width: 32
Flags: MW
HStem: -8 4<6 10> 44 4<18 22>
VStem: 0 4<-2 0> 12 4<-2 42> 24 4<40 42>
CounterMasks: 1 38
LayerCount: 2
Fore
SplineSet
0 0 m 5,0,-1
 4 0 l 1,1,-1
 4 -2 l 1,2,-1
 6 -4 l 1,3,-1
 10 -4 l 1,4,-1
 12 -2 l 1,5,-1
 12 44 l 1,6,-1
 16 48 l 1,7,-1
 24 48 l 1,8,-1
 28 44 l 1,9,-1
 28 40 l 1,10,-1
 24 40 l 1,11,-1
 24 42 l 1,12,-1
 22 44 l 1,13,-1
 18 44 l 1,14,-1
 16 42 l 1,15,-1
 16 -4 l 1,16,-1
 12 -8 l 1,17,-1
 4 -8 l 1,18,-1
 0 -4 l 1,19,-1
 0 0 l 5,0,-1
EndSplineSet
EndChar

StartChar: approxequal
Encoding: 8776 8776 612
Width: 32
Flags: MW
LayerCount: 2
Fore
SplineSet
4 8 m 25,0,-1
 12 16 l 1,1,-1
 20 8 l 1,2,-1
 28 16 l 1,3,-1
 28 8 l 1,4,-1
 20 0 l 1,5,-1
 12 8 l 1,6,-1
 4 0 l 1,7,-1
 4 8 l 25,0,-1
4 24 m 29,8,-1
 12 32 l 1,9,-1
 20 24 l 1,10,-1
 28 32 l 1,11,-1
 28 24 l 1,12,-1
 20 16 l 1,13,-1
 12 24 l 1,14,-1
 4 16 l 1,15,-1
 4 24 l 29,8,-1
EndSplineSet
EndChar

StartChar: notequal
Encoding: 8800 8800 613
Width: 32
Flags: W
HStem: 8 8<0 4 8 10 14 28> 20 8<0 14 18 20 24 28>
LayerCount: 2
Fore
SplineSet
24 32 m 1,0,-1
 28 32 l 1,1,-1
 24 28 l 1,2,-1
 28 28 l 1,3,-1
 28 20 l 1,4,-1
 18 20 l 1,5,-1
 14 16 l 1,6,-1
 28 16 l 1,7,-1
 28 8 l 1,8,-1
 8 8 l 1,9,-1
 4 4 l 1,10,-1
 0 4 l 1,11,-1
 4 8 l 1,12,-1
 0 8 l 1,13,-1
 0 16 l 1,14,-1
 10 16 l 1,15,-1
 14 20 l 1,16,-1
 0 20 l 1,17,-1
 0 28 l 1,18,-1
 20 28 l 1,19,-1
 24 32 l 1,0,-1
EndSplineSet
EndChar

StartChar: equivalence
Encoding: 8801 8801 614
Width: 32
Flags: W
HStem: 0 8<0 28> 12 8<0 28> 24 8<0 28>
VStem: 0 28<0 8 12 20 24 32>
CounterMasks: 1 e0
LayerCount: 2
Fore
SplineSet
0 32 m 5,0,-1
 28 32 l 1,1,-1
 28 24 l 1,2,-1
 0 24 l 1,3,-1
 0 32 l 5,0,-1
0 8 m 29,4,-1
 28 8 l 1,5,-1
 28 0 l 1,6,-1
 0 0 l 1,7,-1
 0 8 l 29,4,-1
0 20 m 5,8,-1
 28 20 l 1,9,-1
 28 12 l 1,10,-1
 0 12 l 1,11,-1
 0 20 l 5,8,-1
EndSplineSet
EndChar

StartChar: lessequal
Encoding: 8804 8804 615
Width: 32
Flags: MW
HStem: 0 8<0 24>
LayerCount: 2
Fore
SplineSet
0 8 m 29,0,-1
 24 8 l 1,1,-1
 24 0 l 1,2,-1
 0 0 l 1,3,-1
 0 8 l 29,0,-1
16 40 m 5,4,-1
 24 40 l 1,5,-1
 8 26 l 1,6,-1
 24 12 l 1,7,-1
 16 12 l 1,8,-1
 0 26 l 1,9,-1
 16 40 l 5,4,-1
EndSplineSet
EndChar

StartChar: greaterequal
Encoding: 8805 8805 616
Width: 32
Flags: MW
HStem: 0 8<0 24>
LayerCount: 2
Fore
SplineSet
24 8 m 25,0,-1
 24 0 l 1,1,-1
 0 0 l 1,2,-1
 0 8 l 1,3,-1
 24 8 l 25,0,-1
8 40 m 1,4,-1
 24 26 l 1,5,-1
 8 12 l 1,6,-1
 0 12 l 1,7,-1
 16 26 l 1,8,-1
 0 40 l 1,9,-1
 8 40 l 1,4,-1
EndSplineSet
EndChar

StartChar: house
Encoding: 8962 8962 617
Width: 32
Flags: MW
HStem: 0 4<4 24>
VStem: 0 4<4 26> 24 4<4 26>
LayerCount: 2
Fore
SplineSet
14 34 m 1,0,-1
 4 26 l 1,1,-1
 4 4 l 1,2,-1
 24 4 l 1,3,-1
 24 26 l 1,4,-1
 14 34 l 1,0,-1
0 0 m 25,5,-1
 0 28 l 1,6,-1
 14 40 l 1,7,-1
 28 28 l 1,8,-1
 28 0 l 1,9,-1
 0 0 l 25,5,-1
EndSplineSet
EndChar

StartChar: revlogicalnot
Encoding: 8976 8976 618
Width: 32
Flags: W
HStem: 20 8<0 8> 24 4<8 28>
VStem: 0 8<20 24>
LayerCount: 2
Fore
SplineSet
28 28 m 5,0,-1
 28 24 l 1,1,-1
 8 24 l 1,2,-1
 8 20 l 1,3,-1
 0 20 l 1,4,-1
 0 28 l 1,5,-1
 28 28 l 5,0,-1
EndSplineSet
EndChar

StartChar: integraltp
Encoding: 8992 8992 619
Width: 32
Flags: W
HStem: 40 42G<24 28> 44 4<18 22>
VStem: 12 4<-12 42> 24 4<40 42>
LayerCount: 2
Fore
SplineSet
16 42 m 9,0,-1
 16 -12 l 1,1,-1
 12 -12 l 1,2,-1
 12 44 l 1,3,-1
 16 48 l 1,4,-1
 24 48 l 1,5,-1
 28 44 l 1,6,-1
 28 40 l 1,7,-1
 24 40 l 1,8,-1
 24 42 l 1,9,-1
 22 44 l 1,10,-1
 18 44 l 1,11,-1
 16 42 l 9,0,-1
EndSplineSet
EndChar

StartChar: integralbt
Encoding: 8993 8993 620
Width: 32
Flags: W
HStem: -40 40G<0 4> -8 4<6 10>
VStem: 0 4<-2 0> 12 4<-2 52>
LayerCount: 2
Fore
SplineSet
16 52 m 5,0,-1
 16 -4 l 1,1,-1
 12 -8 l 1,2,-1
 4 -8 l 1,3,-1
 0 -4 l 1,4,-1
 0 0 l 1,5,-1
 4 0 l 1,6,-1
 4 -2 l 1,7,-1
 6 -4 l 1,8,-1
 10 -4 l 1,9,-1
 12 -2 l 1,10,-1
 12 52 l 1,11,-1
 16 52 l 5,0,-1
EndSplineSet
EndChar

StartChar: SF100000
Encoding: 9472 9472 621
Width: 32
Flags: W
HStem: 20 4<0 32>
LayerCount: 2
Fore
SplineSet
0 24 m 29,0,-1
 32 24 l 1,1,-1
 32 20 l 1,2,-1
 0 20 l 1,3,-1
 0 24 l 29,0,-1
EndSplineSet
EndChar

StartChar: SF110000
Encoding: 9474 9474 622
Width: 32
Flags: W
VStem: 12 4<-12 52>
LayerCount: 2
Fore
SplineSet
12 52 m 29,0,-1
 16 52 l 1,1,-1
 16 -12 l 1,2,-1
 12 -12 l 1,3,-1
 12 52 l 29,0,-1
EndSplineSet
EndChar

StartChar: SF010000
Encoding: 9484 9484 623
Width: 32
Flags: W
HStem: 20 4<16 32>
VStem: 12 4<-12 20>
LayerCount: 2
Fore
SplineSet
12 24 m 5,0,-1
 32 24 l 1,1,-1
 32 20 l 1,2,-1
 16 20 l 1,3,-1
 16 -12 l 1,4,-1
 12 -12 l 1,5,-1
 12 24 l 5,0,-1
EndSplineSet
EndChar

StartChar: SF030000
Encoding: 9488 9488 624
Width: 32
Flags: W
HStem: 20 4<0 12>
VStem: 12 4<-12 20>
LayerCount: 2
Fore
SplineSet
0 24 m 29,0,-1
 16 24 l 1,1,-1
 16 -12 l 1,2,-1
 12 -12 l 1,3,-1
 12 20 l 1,4,-1
 0 20 l 1,5,-1
 0 24 l 29,0,-1
EndSplineSet
EndChar

StartChar: SF020000
Encoding: 9492 9492 625
Width: 32
Flags: W
HStem: 20 4<16 32>
VStem: 12 4<24 52>
LayerCount: 2
Fore
SplineSet
12 52 m 25,0,-1
 16 52 l 1,1,-1
 16 24 l 1,2,-1
 32 24 l 1,3,-1
 32 20 l 1,4,-1
 12 20 l 1,5,-1
 12 52 l 25,0,-1
EndSplineSet
EndChar

StartChar: SF040000
Encoding: 9496 9496 626
Width: 32
Flags: W
HStem: 20 4<0 12>
VStem: 12 4<24 52>
LayerCount: 2
Fore
SplineSet
0 24 m 29,0,-1
 12 24 l 1,1,-1
 12 52 l 1,2,-1
 16 52 l 1,3,-1
 16 20 l 1,4,-1
 0 20 l 1,5,-1
 0 24 l 29,0,-1
EndSplineSet
EndChar

StartChar: SF080000
Encoding: 9500 9500 627
Width: 32
Flags: W
HStem: 20 4<16 32>
VStem: 12 4<-12 20 24 52>
LayerCount: 2
Fore
SplineSet
12 52 m 25,0,-1
 16 52 l 1,1,-1
 16 24 l 1,2,-1
 32 24 l 1,3,-1
 32 20 l 1,4,-1
 16 20 l 1,5,-1
 16 -12 l 1,6,-1
 12 -12 l 1,7,-1
 12 52 l 25,0,-1
EndSplineSet
EndChar

StartChar: SF090000
Encoding: 9508 9508 628
Width: 32
Flags: W
HStem: 20 4<0 12>
VStem: 12 4<-12 20 24 52>
LayerCount: 2
Fore
SplineSet
0 24 m 25,0,-1
 12 24 l 1,1,-1
 12 52 l 1,2,-1
 16 52 l 1,3,-1
 16 -12 l 1,4,-1
 12 -12 l 1,5,-1
 12 20 l 1,6,-1
 0 20 l 1,7,-1
 0 24 l 25,0,-1
EndSplineSet
EndChar

StartChar: SF060000
Encoding: 9516 9516 629
Width: 32
Flags: W
HStem: 20 4<0 12 16 32>
VStem: 12 4<-12 20>
LayerCount: 2
Fore
SplineSet
0 24 m 29,0,-1
 32 24 l 1,1,-1
 32 20 l 1,2,-1
 16 20 l 1,3,-1
 16 -12 l 1,4,-1
 12 -12 l 1,5,-1
 12 20 l 1,6,-1
 0 20 l 1,7,-1
 0 24 l 29,0,-1
EndSplineSet
EndChar

StartChar: SF070000
Encoding: 9524 9524 630
Width: 32
Flags: W
HStem: 20 4<0 12 16 32>
VStem: 12 4<24 52>
LayerCount: 2
Fore
SplineSet
0 24 m 29,0,-1
 12 24 l 1,1,-1
 12 52 l 1,2,-1
 16 52 l 1,3,-1
 16 24 l 1,4,-1
 32 24 l 1,5,-1
 32 20 l 1,6,-1
 0 20 l 1,7,-1
 0 24 l 29,0,-1
EndSplineSet
EndChar

StartChar: SF050000
Encoding: 9532 9532 631
Width: 32
Flags: W
HStem: 20 4<0 12 16 32>
VStem: 12 4<-12 20 24 52>
LayerCount: 2
Fore
SplineSet
0 24 m 29,0,-1
 12 24 l 1,1,-1
 12 52 l 1,2,-1
 16 52 l 1,3,-1
 16 24 l 1,4,-1
 32 24 l 1,5,-1
 32 20 l 1,6,-1
 16 20 l 1,7,-1
 16 -12 l 1,8,-1
 12 -12 l 1,9,-1
 12 20 l 1,10,-1
 0 20 l 1,11,-1
 0 24 l 29,0,-1
EndSplineSet
EndChar

StartChar: SF430000
Encoding: 9552 9552 632
Width: 32
Flags: W
HStem: 16 4<0 32> 24 4<0 32>
LayerCount: 2
Fore
SplineSet
0 20 m 1,0,-1
 32 20 l 1,1,-1
 32 16 l 1,2,-1
 0 16 l 1,3,-1
 0 20 l 1,0,-1
0 28 m 29,4,-1
 32 28 l 1,5,-1
 32 24 l 1,6,-1
 0 24 l 1,7,-1
 0 28 l 29,4,-1
EndSplineSet
EndChar

StartChar: SF240000
Encoding: 9553 9553 633
Width: 32
Flags: W
VStem: 8 4<-12 52> 16 4<-12 52>
LayerCount: 2
Fore
SplineSet
16 52 m 25,0,-1
 20 52 l 1,1,-1
 20 -12 l 1,2,-1
 16 -12 l 1,3,-1
 16 52 l 25,0,-1
8 52 m 25,4,-1
 12 52 l 1,5,-1
 12 -12 l 1,6,-1
 8 -12 l 1,7,-1
 8 52 l 25,4,-1
EndSplineSet
EndChar

StartChar: SF510000
Encoding: 9554 9554 634
Width: 32
Flags: W
HStem: 16 4<16 32> 24 4<16 32>
VStem: 12 4<-12 16 20 24>
LayerCount: 2
Fore
SplineSet
12 28 m 29,0,-1
 32 28 l 1,1,-1
 32 24 l 1,2,-1
 16 24 l 1,3,-1
 16 20 l 1,4,-1
 32 20 l 1,5,-1
 32 16 l 1,6,-1
 16 16 l 1,7,-1
 16 -12 l 1,8,-1
 12 -12 l 1,9,-1
 12 28 l 29,0,-1
EndSplineSet
EndChar

StartChar: SF520000
Encoding: 9555 9555 635
Width: 32
Flags: W
HStem: 20 4<12 16 20 32>
VStem: 8 4<-12 20> 16 4<-12 20>
LayerCount: 2
Fore
SplineSet
8 24 m 29,0,-1
 32 24 l 1,1,-1
 32 20 l 1,2,-1
 20 20 l 1,3,-1
 20 -12 l 1,4,-1
 16 -12 l 1,5,-1
 16 20 l 1,6,-1
 12 20 l 1,7,-1
 12 -12 l 1,8,-1
 8 -12 l 1,9,-1
 8 24 l 29,0,-1
EndSplineSet
EndChar

StartChar: SF390000
Encoding: 9556 9556 636
Width: 32
Flags: W
HStem: 16 4<20 32> 24 4<12 32>
VStem: 8 4<-12 24> 16 4<-12 16>
LayerCount: 2
Fore
SplineSet
16 -12 m 25,0,-1
 16 20 l 1,1,-1
 32 20 l 1,2,-1
 32 16 l 1,3,-1
 20 16 l 1,4,-1
 20 -12 l 1,5,-1
 16 -12 l 25,0,-1
8 -12 m 25,6,-1
 8 28 l 1,7,-1
 32 28 l 1,8,-1
 32 24 l 1,9,-1
 12 24 l 1,10,-1
 12 -12 l 1,11,-1
 8 -12 l 25,6,-1
EndSplineSet
EndChar

StartChar: SF220000
Encoding: 9557 9557 637
Width: 32
Flags: W
HStem: 16 4<0 12> 24 4<0 12>
VStem: 12 4<-12 16 20 24>
LayerCount: 2
Fore
SplineSet
0 28 m 25,0,-1
 16 28 l 1,1,-1
 16 -12 l 1,2,-1
 12 -12 l 1,3,-1
 12 16 l 1,4,-1
 0 16 l 1,5,-1
 0 20 l 1,6,-1
 12 20 l 1,7,-1
 12 24 l 1,8,-1
 0 24 l 1,9,-1
 0 28 l 25,0,-1
EndSplineSet
EndChar

StartChar: SF210000
Encoding: 9558 9558 638
Width: 32
Flags: W
HStem: 20 4<0 8 12 16>
VStem: 8 4<-12 20> 16 4<-12 20>
LayerCount: 2
Fore
SplineSet
0 24 m 25,0,-1
 20 24 l 1,1,-1
 20 -12 l 1,2,-1
 16 -12 l 1,3,-1
 16 20 l 1,4,-1
 12 20 l 1,5,-1
 12 -12 l 1,6,-1
 8 -12 l 1,7,-1
 8 20 l 1,8,-1
 0 20 l 1,9,-1
 0 24 l 25,0,-1
EndSplineSet
EndChar

StartChar: SF250000
Encoding: 9559 9559 639
Width: 32
Flags: W
HStem: 16 4<0 8> 24 4<0 16>
VStem: 8 4<-12 16> 16 4<-12 24>
LayerCount: 2
Fore
SplineSet
0 20 m 29,0,-1
 12 20 l 1,1,-1
 12 -12 l 1,2,-1
 8 -12 l 1,3,-1
 8 16 l 1,4,-1
 0 16 l 1,5,-1
 0 20 l 29,0,-1
0 28 m 25,6,-1
 20 28 l 1,7,-1
 20 -12 l 1,8,-1
 16 -12 l 1,9,-1
 16 24 l 1,10,-1
 0 24 l 1,11,-1
 0 28 l 25,6,-1
EndSplineSet
EndChar

StartChar: SF500000
Encoding: 9560 9560 640
Width: 32
Flags: W
HStem: 16 4<16 32> 24 4<16 32>
VStem: 12 4<20 24 28 52>
LayerCount: 2
Fore
SplineSet
12 52 m 29,0,-1
 16 52 l 1,1,-1
 16 28 l 1,2,-1
 32 28 l 1,3,-1
 32 24 l 1,4,-1
 16 24 l 1,5,-1
 16 20 l 1,6,-1
 32 20 l 1,7,-1
 32 16 l 1,8,-1
 12 16 l 1,9,-1
 12 52 l 29,0,-1
EndSplineSet
EndChar

StartChar: SF490000
Encoding: 9561 9561 641
Width: 32
Flags: W
HStem: 20 4<12 16 20 32>
VStem: 8 4<24 52> 16 4<24 52>
LayerCount: 2
Fore
SplineSet
8 52 m 29,0,-1
 12 52 l 1,1,-1
 12 24 l 1,2,-1
 16 24 l 1,3,-1
 16 52 l 1,4,-1
 20 52 l 1,5,-1
 20 24 l 1,6,-1
 32 24 l 1,7,-1
 32 20 l 1,8,-1
 8 20 l 1,9,-1
 8 52 l 29,0,-1
EndSplineSet
EndChar

StartChar: SF380000
Encoding: 9562 9562 642
Width: 32
Flags: W
HStem: 16 4<12 32> 24 4<20 32>
VStem: 8 4<20 52> 16 4<28 52>
LayerCount: 2
Fore
SplineSet
16 52 m 25,0,-1
 20 52 l 1,1,-1
 20 28 l 1,2,-1
 32 28 l 1,3,-1
 32 24 l 1,4,-1
 16 24 l 1,5,-1
 16 52 l 25,0,-1
8 52 m 25,6,-1
 12 52 l 1,7,-1
 12 20 l 1,8,-1
 32 20 l 1,9,-1
 32 16 l 1,10,-1
 8 16 l 1,11,-1
 8 52 l 25,6,-1
EndSplineSet
EndChar

StartChar: SF280000
Encoding: 9563 9563 643
Width: 32
Flags: W
HStem: 16 4<0 12> 24 4<0 12>
VStem: 12 4<20 24 28 52>
LayerCount: 2
Fore
SplineSet
0 28 m 25,0,-1
 12 28 l 1,1,-1
 12 52 l 1,2,-1
 16 52 l 1,3,-1
 16 16 l 1,4,-1
 0 16 l 1,5,-1
 0 20 l 1,6,-1
 12 20 l 1,7,-1
 12 24 l 1,8,-1
 0 24 l 1,9,-1
 0 28 l 25,0,-1
EndSplineSet
EndChar

StartChar: SF270000
Encoding: 9564 9564 644
Width: 32
Flags: W
HStem: 20 4<0 8 12 16>
VStem: 8 4<24 52> 16 4<24 52>
LayerCount: 2
Fore
SplineSet
0 24 m 29,0,-1
 8 24 l 1,1,-1
 8 52 l 1,2,-1
 12 52 l 1,3,-1
 12 24 l 1,4,-1
 16 24 l 1,5,-1
 16 52 l 1,6,-1
 20 52 l 1,7,-1
 20 20 l 1,8,-1
 0 20 l 1,9,-1
 0 24 l 29,0,-1
EndSplineSet
EndChar

StartChar: SF260000
Encoding: 9565 9565 645
Width: 32
Flags: W
HStem: 16 4<0 16> 24 4<0 8>
VStem: 8 4<28 52> 16 4<20 52>
LayerCount: 2
Fore
SplineSet
0 20 m 29,0,-1
 16 20 l 1,1,-1
 16 52 l 1,2,-1
 20 52 l 1,3,-1
 20 16 l 1,4,-1
 0 16 l 1,5,-1
 0 20 l 29,0,-1
0 28 m 25,6,-1
 8 28 l 1,7,-1
 8 52 l 1,8,-1
 12 52 l 1,9,-1
 12 24 l 1,10,-1
 0 24 l 1,11,-1
 0 28 l 25,6,-1
EndSplineSet
EndChar

StartChar: SF360000
Encoding: 9566 9566 646
Width: 32
Flags: W
HStem: 16 4<16 32> 24 4<16 32>
VStem: 12 4<-12 16 20 24 28 52>
LayerCount: 2
Fore
SplineSet
12 52 m 29,0,-1
 16 52 l 1,1,-1
 16 28 l 1,2,-1
 32 28 l 1,3,-1
 32 24 l 1,4,-1
 16 24 l 1,5,-1
 16 20 l 1,6,-1
 32 20 l 1,7,-1
 32 16 l 1,8,-1
 16 16 l 1,9,-1
 16 -12 l 1,10,-1
 12 -12 l 1,11,-1
 12 52 l 29,0,-1
EndSplineSet
EndChar

StartChar: SF370000
Encoding: 9567 9567 647
Width: 32
Flags: W
HStem: 20 4<20 32>
VStem: 8 4<-12 52> 16 4<-12 20 24 52>
LayerCount: 2
Fore
SplineSet
16 52 m 25,0,-1
 20 52 l 1,1,-1
 20 24 l 1,2,-1
 32 24 l 1,3,-1
 32 20 l 1,4,-1
 20 20 l 1,5,-1
 20 -12 l 1,6,-1
 16 -12 l 1,7,-1
 16 52 l 25,0,-1
8 52 m 25,8,-1
 12 52 l 1,9,-1
 12 -12 l 1,10,-1
 8 -12 l 1,11,-1
 8 52 l 25,8,-1
EndSplineSet
EndChar

StartChar: SF420000
Encoding: 9568 9568 648
Width: 32
Flags: W
HStem: 16 4<20 32> 24 4<20 32>
VStem: 8 4<-12 52> 16 4<-12 16 28 52>
LayerCount: 2
Fore
SplineSet
16 20 m 1,0,-1
 32 20 l 1,1,-1
 32 16 l 1,2,-1
 20 16 l 1,3,-1
 20 -12 l 1,4,-1
 16 -12 l 1,5,-1
 16 20 l 1,0,-1
16 52 m 29,6,-1
 20 52 l 1,7,-1
 20 28 l 1,8,-1
 32 28 l 1,9,-1
 32 24 l 1,10,-1
 16 24 l 1,11,-1
 16 52 l 29,6,-1
8 52 m 29,12,-1
 12 52 l 1,13,-1
 12 -12 l 1,14,-1
 8 -12 l 1,15,-1
 8 52 l 29,12,-1
EndSplineSet
EndChar

StartChar: SF190000
Encoding: 9569 9569 649
Width: 32
Flags: W
HStem: 16 4<0 12> 24 4<0 12>
VStem: 12 4<-12 16 20 24 28 52>
LayerCount: 2
Fore
SplineSet
0 28 m 25,0,-1
 12 28 l 1,1,-1
 12 52 l 1,2,-1
 16 52 l 1,3,-1
 16 -12 l 1,4,-1
 12 -12 l 1,5,-1
 12 16 l 1,6,-1
 0 16 l 1,7,-1
 0 20 l 1,8,-1
 12 20 l 1,9,-1
 12 24 l 1,10,-1
 0 24 l 1,11,-1
 0 28 l 25,0,-1
EndSplineSet
EndChar

StartChar: SF200000
Encoding: 9570 9570 650
Width: 32
Flags: MW
HStem: 20 4<0 8>
VStem: 8 4<-12 20 24 52> 16 4<-12 52>
LayerCount: 2
Fore
SplineSet
16 52 m 29,0,-1
 20 52 l 1,1,-1
 20 -12 l 1,2,-1
 16 -12 l 1,3,-1
 16 52 l 29,0,-1
0 24 m 25,4,-1
 8 24 l 1,5,-1
 8 52 l 1,6,-1
 12 52 l 1,7,-1
 12 -12 l 1,8,-1
 8 -12 l 1,9,-1
 8 20 l 1,10,-1
 0 20 l 1,11,-1
 0 24 l 25,4,-1
EndSplineSet
EndChar

StartChar: SF230000
Encoding: 9571 9571 651
Width: 32
Flags: MW
HStem: 16 4<0 8> 24 4<0 8>
VStem: 8 4<-12 16 28 52> 16 4<-12 52>
LayerCount: 2
Fore
SplineSet
16 52 m 29,0,-1
 20 52 l 1,1,-1
 20 -12 l 1,2,-1
 16 -12 l 1,3,-1
 16 52 l 29,0,-1
0 20 m 25,4,-1
 12 20 l 1,5,-1
 12 -12 l 1,6,-1
 8 -12 l 1,7,-1
 8 16 l 1,8,-1
 0 16 l 1,9,-1
 0 20 l 25,4,-1
0 28 m 25,10,-1
 8 28 l 1,11,-1
 8 52 l 1,12,-1
 12 52 l 1,13,-1
 12 24 l 1,14,-1
 0 24 l 1,15,-1
 0 28 l 25,10,-1
EndSplineSet
EndChar

StartChar: SF470000
Encoding: 9572 9572 652
Width: 32
Flags: MW
HStem: 16 4<0 12 16 32> 24 4<0 32>
VStem: 12 4<-12 16>
LayerCount: 2
Fore
SplineSet
0 20 m 25,0,-1
 32 20 l 1,1,-1
 32 16 l 1,2,-1
 16 16 l 1,3,-1
 16 -12 l 1,4,-1
 12 -12 l 1,5,-1
 12 16 l 1,6,-1
 0 16 l 1,7,-1
 0 20 l 25,0,-1
0 28 m 25,8,-1
 32 28 l 1,9,-1
 32 24 l 1,10,-1
 0 24 l 1,11,-1
 0 28 l 25,8,-1
EndSplineSet
EndChar

StartChar: SF480000
Encoding: 9573 9573 653
Width: 32
Flags: W
HStem: 20 4<0 8 12 16 20 32>
VStem: 8 4<-12 20> 16 4<-12 20>
LayerCount: 2
Fore
SplineSet
0 24 m 29,0,-1
 32 24 l 1,1,-1
 32 20 l 1,2,-1
 20 20 l 1,3,-1
 20 -12 l 1,4,-1
 16 -12 l 1,5,-1
 16 20 l 1,6,-1
 12 20 l 1,7,-1
 12 -12 l 1,8,-1
 8 -12 l 1,9,-1
 8 20 l 1,10,-1
 0 20 l 1,11,-1
 0 24 l 29,0,-1
EndSplineSet
EndChar

StartChar: SF410000
Encoding: 9574 9574 654
Width: 32
Flags: MW
HStem: 16 4<0 8 20 32> 24 4<0 32>
VStem: 8 4<-12 16> 16 4<-12 16>
LayerCount: 2
Fore
SplineSet
16 20 m 25,0,-1
 32 20 l 1,1,-1
 32 16 l 1,2,-1
 20 16 l 1,3,-1
 20 -12 l 1,4,-1
 16 -12 l 1,5,-1
 16 20 l 25,0,-1
0 20 m 25,6,-1
 12 20 l 1,7,-1
 12 -12 l 1,8,-1
 8 -12 l 1,9,-1
 8 16 l 1,10,-1
 0 16 l 1,11,-1
 0 20 l 25,6,-1
0 28 m 5,12,-1
 32 28 l 1,13,-1
 32 24 l 1,14,-1
 0 24 l 1,15,-1
 0 28 l 5,12,-1
EndSplineSet
EndChar

StartChar: SF450000
Encoding: 9575 9575 655
Width: 32
Flags: W
HStem: 16 4<0 32> 24 4<0 12 16 32>
VStem: 12 4<28 52>
LayerCount: 2
Fore
SplineSet
0 20 m 29,0,-1
 32 20 l 1,1,-1
 32 16 l 1,2,-1
 0 16 l 1,3,-1
 0 20 l 29,0,-1
0 28 m 25,4,-1
 12 28 l 1,5,-1
 12 52 l 1,6,-1
 16 52 l 1,7,-1
 16 28 l 1,8,-1
 32 28 l 1,9,-1
 32 24 l 1,10,-1
 0 24 l 1,11,-1
 0 28 l 25,4,-1
EndSplineSet
EndChar

StartChar: SF460000
Encoding: 9576 9576 656
Width: 32
Flags: W
HStem: 20 4<0 8 12 16 20 32>
VStem: 8 4<24 52> 16 4<24 52>
LayerCount: 2
Fore
SplineSet
0 24 m 29,0,-1
 8 24 l 1,1,-1
 8 52 l 1,2,-1
 12 52 l 1,3,-1
 12 24 l 1,4,-1
 16 24 l 1,5,-1
 16 52 l 1,6,-1
 20 52 l 1,7,-1
 20 24 l 1,8,-1
 32 24 l 1,9,-1
 32 20 l 1,10,-1
 0 20 l 1,11,-1
 0 24 l 29,0,-1
EndSplineSet
EndChar

StartChar: SF400000
Encoding: 9577 9577 657
Width: 32
Flags: W
HStem: 16 4<0 32> 24 4<0 8 20 32>
VStem: 8 4<28 52> 16 4<28 52>
LayerCount: 2
Fore
SplineSet
0 20 m 25,0,-1
 32 20 l 1,1,-1
 32 16 l 1,2,-1
 0 16 l 1,3,-1
 0 20 l 25,0,-1
16 52 m 29,4,-1
 20 52 l 1,5,-1
 20 28 l 1,6,-1
 32 28 l 1,7,-1
 32 24 l 1,8,-1
 16 24 l 1,9,-1
 16 52 l 29,4,-1
0 28 m 25,10,-1
 8 28 l 1,11,-1
 8 52 l 1,12,-1
 12 52 l 1,13,-1
 12 24 l 1,14,-1
 0 24 l 1,15,-1
 0 28 l 25,10,-1
EndSplineSet
EndChar

StartChar: SF540000
Encoding: 9578 9578 658
Width: 32
Flags: W
HStem: 16 4<0 12 16 32> 24 4<0 12 16 32>
VStem: 12 4<-12 16 20 24 28 52>
LayerCount: 2
Fore
SplineSet
12 52 m 29,0,-1
 16 52 l 1,1,-1
 16 28 l 1,2,-1
 32 28 l 1,3,-1
 32 24 l 1,4,-1
 16 24 l 1,5,-1
 16 20 l 1,6,-1
 32 20 l 1,7,-1
 32 16 l 1,8,-1
 16 16 l 1,9,-1
 16 -12 l 1,10,-1
 12 -12 l 1,11,-1
 12 16 l 1,12,-1
 0 16 l 1,13,-1
 0 20 l 1,14,-1
 12 20 l 1,15,-1
 12 24 l 1,16,-1
 0 24 l 1,17,-1
 0 28 l 1,18,-1
 12 28 l 1,19,-1
 12 52 l 29,0,-1
EndSplineSet
EndChar

StartChar: SF530000
Encoding: 9579 9579 659
Width: 32
Flags: W
HStem: 20 4<0 8 12 16 20 32>
VStem: 8 4<-12 20 24 52> 16 4<-12 20 24 52>
LayerCount: 2
Fore
SplineSet
0 24 m 29,0,-1
 8 24 l 1,1,-1
 8 52 l 1,2,-1
 12 52 l 1,3,-1
 12 24 l 1,4,-1
 16 24 l 1,5,-1
 16 52 l 1,6,-1
 20 52 l 1,7,-1
 20 24 l 1,8,-1
 32 24 l 1,9,-1
 32 20 l 1,10,-1
 20 20 l 1,11,-1
 20 -12 l 1,12,-1
 16 -12 l 1,13,-1
 16 20 l 1,14,-1
 12 20 l 1,15,-1
 12 -12 l 1,16,-1
 8 -12 l 1,17,-1
 8 20 l 1,18,-1
 0 20 l 1,19,-1
 0 24 l 29,0,-1
EndSplineSet
EndChar

StartChar: SF440000
Encoding: 9580 9580 660
Width: 32
Flags: MW
HStem: 16 4<0 8 20 32> 24 4<0 8 20 32>
VStem: 8 4<-12 16 28 52> 16 4<-12 16 28 52>
LayerCount: 2
Fore
SplineSet
16 20 m 29,0,-1
 32 20 l 1,1,-1
 32 16 l 1,2,-1
 20 16 l 1,3,-1
 20 -12 l 1,4,-1
 16 -12 l 1,5,-1
 16 20 l 29,0,-1
0 20 m 25,6,-1
 12 20 l 1,7,-1
 12 -12 l 1,8,-1
 8 -12 l 1,9,-1
 8 16 l 1,10,-1
 0 16 l 1,11,-1
 0 20 l 25,6,-1
16 52 m 25,12,-1
 20 52 l 1,13,-1
 20 28 l 1,14,-1
 32 28 l 1,15,-1
 32 24 l 1,16,-1
 16 24 l 1,17,-1
 16 52 l 25,12,-1
0 28 m 25,18,-1
 8 28 l 1,19,-1
 8 52 l 1,20,-1
 12 52 l 1,21,-1
 12 24 l 1,22,-1
 0 24 l 1,23,-1
 0 28 l 25,18,-1
EndSplineSet
EndChar

StartChar: upblock
Encoding: 9600 9600 661
Width: 32
Flags: W
HStem: 20 32<0 32>
VStem: 0 32<20 52>
LayerCount: 2
Fore
SplineSet
0 52 m 25,0,-1
 32 52 l 1,1,-1
 32 20 l 1,2,-1
 0 20 l 1,3,-1
 0 52 l 25,0,-1
EndSplineSet
EndChar

StartChar: dnblock
Encoding: 9604 9604 662
Width: 32
Flags: W
HStem: -12 32<0 32>
VStem: 0 32<-12 20>
LayerCount: 2
Fore
SplineSet
0 20 m 29,0,-1
 32 20 l 1,1,-1
 32 -12 l 1,2,-1
 0 -12 l 1,3,-1
 0 20 l 29,0,-1
EndSplineSet
EndChar

StartChar: block
Encoding: 9608 9608 663
Width: 32
Flags: W
VStem: 0 32<-12 52>
LayerCount: 2
Fore
SplineSet
0 52 m 29,0,-1
 32 52 l 1,1,-1
 32 -12 l 1,2,-1
 0 -12 l 1,3,-1
 0 52 l 29,0,-1
EndSplineSet
EndChar

StartChar: lfblock
Encoding: 9612 9612 664
Width: 32
Flags: W
VStem: 0 16<-12 52>
LayerCount: 2
Fore
SplineSet
0 52 m 25,0,-1
 16 52 l 1,1,-1
 16 -12 l 1,2,-1
 0 -12 l 1,3,-1
 0 52 l 25,0,-1
EndSplineSet
EndChar

StartChar: rtblock
Encoding: 9616 9616 665
Width: 32
Flags: W
VStem: 16 16<-12 52>
LayerCount: 2
Fore
SplineSet
16 52 m 25,0,-1
 32 52 l 1,1,-1
 32 -12 l 1,2,-1
 16 -12 l 1,3,-1
 16 52 l 25,0,-1
EndSplineSet
EndChar

StartChar: ltshade
Encoding: 9617 9617 666
Width: 32
Flags: W
HStem: -8 4<0 4 8 12 16 20 24 28> 0 4<0 4 8 12 16 20 24 28> 8 4<0 4 8 12 16 20 24 28> 16 4<0 4 8 12 16 20 24 28> 24 4<0 4 8 12 16 20 24 28> 32 4<0 4 8 12 16 20 24 28> 40 4<0 4 8 12 16 20 24 28> 48 4<0 4 8 12 16 20 24 28>
VStem: 0 4<-8 -4 0 4 8 12 16 20 24 28 32 36 40 44 48 52> 8 4<-8 -4 0 4 8 12 16 20 24 28 32 36 40 44 48 52> 16 4<-8 -4 0 4 8 12 16 20 24 28 32 36 40 44 48 52> 24 4<-8 -4 0 4 8 12 16 20 24 28 32 36 40 44 48 52>
LayerCount: 2
Fore
SplineSet
24 -4 m 29,0,-1
 28 -4 l 1,1,-1
 28 -8 l 1,2,-1
 24 -8 l 1,3,-1
 24 -4 l 29,0,-1
16 -4 m 29,4,-1
 20 -4 l 1,5,-1
 20 -8 l 1,6,-1
 16 -8 l 1,7,-1
 16 -4 l 29,4,-1
8 -4 m 29,8,-1
 12 -4 l 1,9,-1
 12 -8 l 1,10,-1
 8 -8 l 1,11,-1
 8 -4 l 29,8,-1
0 -4 m 29,12,-1
 4 -4 l 1,13,-1
 4 -8 l 1,14,-1
 0 -8 l 1,15,-1
 0 -4 l 29,12,-1
24 4 m 29,16,-1
 28 4 l 1,17,-1
 28 0 l 1,18,-1
 24 0 l 1,19,-1
 24 4 l 29,16,-1
16 4 m 29,20,-1
 20 4 l 1,21,-1
 20 0 l 1,22,-1
 16 0 l 1,23,-1
 16 4 l 29,20,-1
8 4 m 29,24,-1
 12 4 l 1,25,-1
 12 0 l 1,26,-1
 8 0 l 1,27,-1
 8 4 l 29,24,-1
0 4 m 29,28,-1
 4 4 l 1,29,-1
 4 0 l 1,30,-1
 0 0 l 1,31,-1
 0 4 l 29,28,-1
24 12 m 29,32,-1
 28 12 l 1,33,-1
 28 8 l 1,34,-1
 24 8 l 1,35,-1
 24 12 l 29,32,-1
16 12 m 29,36,-1
 20 12 l 1,37,-1
 20 8 l 1,38,-1
 16 8 l 1,39,-1
 16 12 l 29,36,-1
8 12 m 29,40,-1
 12 12 l 1,41,-1
 12 8 l 1,42,-1
 8 8 l 1,43,-1
 8 12 l 29,40,-1
0 12 m 29,44,-1
 4 12 l 1,45,-1
 4 8 l 1,46,-1
 0 8 l 1,47,-1
 0 12 l 29,44,-1
24 20 m 29,48,-1
 28 20 l 1,49,-1
 28 16 l 1,50,-1
 24 16 l 1,51,-1
 24 20 l 29,48,-1
16 20 m 29,52,-1
 20 20 l 1,53,-1
 20 16 l 1,54,-1
 16 16 l 1,55,-1
 16 20 l 29,52,-1
8 20 m 29,56,-1
 12 20 l 1,57,-1
 12 16 l 1,58,-1
 8 16 l 1,59,-1
 8 20 l 29,56,-1
0 20 m 29,60,-1
 4 20 l 1,61,-1
 4 16 l 1,62,-1
 0 16 l 1,63,-1
 0 20 l 29,60,-1
24 28 m 29,64,-1
 28 28 l 1,65,-1
 28 24 l 1,66,-1
 24 24 l 1,67,-1
 24 28 l 29,64,-1
16 28 m 29,68,-1
 20 28 l 1,69,-1
 20 24 l 1,70,-1
 16 24 l 1,71,-1
 16 28 l 29,68,-1
8 28 m 29,72,-1
 12 28 l 1,73,-1
 12 24 l 1,74,-1
 8 24 l 1,75,-1
 8 28 l 29,72,-1
0 28 m 29,76,-1
 4 28 l 1,77,-1
 4 24 l 1,78,-1
 0 24 l 1,79,-1
 0 28 l 29,76,-1
24 36 m 29,80,-1
 28 36 l 1,81,-1
 28 32 l 1,82,-1
 24 32 l 1,83,-1
 24 36 l 29,80,-1
16 36 m 29,84,-1
 20 36 l 1,85,-1
 20 32 l 1,86,-1
 16 32 l 1,87,-1
 16 36 l 29,84,-1
8 36 m 29,88,-1
 12 36 l 1,89,-1
 12 32 l 1,90,-1
 8 32 l 1,91,-1
 8 36 l 29,88,-1
0 36 m 29,92,-1
 4 36 l 1,93,-1
 4 32 l 1,94,-1
 0 32 l 1,95,-1
 0 36 l 29,92,-1
24 44 m 29,96,-1
 28 44 l 1,97,-1
 28 40 l 1,98,-1
 24 40 l 1,99,-1
 24 44 l 29,96,-1
16 44 m 29,100,-1
 20 44 l 1,101,-1
 20 40 l 1,102,-1
 16 40 l 1,103,-1
 16 44 l 29,100,-1
8 44 m 29,104,-1
 12 44 l 1,105,-1
 12 40 l 1,106,-1
 8 40 l 1,107,-1
 8 44 l 29,104,-1
0 44 m 29,108,-1
 4 44 l 1,109,-1
 4 40 l 1,110,-1
 0 40 l 1,111,-1
 0 44 l 29,108,-1
24 52 m 29,112,-1
 28 52 l 1,113,-1
 28 48 l 1,114,-1
 24 48 l 1,115,-1
 24 52 l 29,112,-1
16 52 m 29,116,-1
 20 52 l 1,117,-1
 20 48 l 1,118,-1
 16 48 l 1,119,-1
 16 52 l 29,116,-1
8 52 m 29,120,-1
 12 52 l 1,121,-1
 12 48 l 1,122,-1
 8 48 l 1,123,-1
 8 52 l 29,120,-1
0 52 m 29,124,-1
 4 52 l 1,125,-1
 4 48 l 1,126,-1
 0 48 l 1,127,-1
 0 52 l 29,124,-1
EndSplineSet
EndChar

StartChar: shade
Encoding: 9618 9618 667
Width: 32
Flags: MW
LayerCount: 2
Fore
SplineSet
28 -8 m 29,0,-1
 32 -8 l 1,1,-1
 32 -12 l 1,2,-1
 28 -12 l 1,3,-1
 28 -8 l 29,0,-1
20 -8 m 25,4,-1
 24 -8 l 1,5,-1
 24 -12 l 1,6,-1
 20 -12 l 1,7,-1
 20 -8 l 25,4,-1
12 -8 m 25,8,-1
 16 -8 l 1,9,-1
 16 -12 l 1,10,-1
 12 -12 l 1,11,-1
 12 -8 l 25,8,-1
4 -8 m 25,12,-1
 8 -8 l 1,13,-1
 8 -12 l 1,14,-1
 4 -12 l 1,15,-1
 4 -8 l 25,12,-1
28 0 m 25,16,-1
 32 0 l 1,17,-1
 32 -4 l 1,18,-1
 28 -4 l 1,19,-1
 28 0 l 25,16,-1
20 0 m 25,20,-1
 24 0 l 1,21,-1
 24 -4 l 1,22,-1
 20 -4 l 1,23,-1
 20 0 l 25,20,-1
12 0 m 25,24,-1
 16 0 l 1,25,-1
 16 -4 l 1,26,-1
 12 -4 l 1,27,-1
 12 0 l 25,24,-1
4 0 m 25,28,-1
 8 0 l 1,29,-1
 8 -4 l 1,30,-1
 4 -4 l 1,31,-1
 4 0 l 25,28,-1
28 8 m 25,32,-1
 32 8 l 1,33,-1
 32 4 l 1,34,-1
 28 4 l 1,35,-1
 28 8 l 25,32,-1
20 8 m 25,36,-1
 24 8 l 1,37,-1
 24 4 l 1,38,-1
 20 4 l 1,39,-1
 20 8 l 25,36,-1
12 8 m 25,40,-1
 16 8 l 1,41,-1
 16 4 l 1,42,-1
 12 4 l 1,43,-1
 12 8 l 25,40,-1
4 8 m 25,44,-1
 8 8 l 1,45,-1
 8 4 l 1,46,-1
 4 4 l 1,47,-1
 4 8 l 25,44,-1
28 16 m 25,48,-1
 32 16 l 1,49,-1
 32 12 l 1,50,-1
 28 12 l 1,51,-1
 28 16 l 25,48,-1
20 16 m 25,52,-1
 24 16 l 1,53,-1
 24 12 l 1,54,-1
 20 12 l 1,55,-1
 20 16 l 25,52,-1
12 16 m 25,56,-1
 16 16 l 1,57,-1
 16 12 l 1,58,-1
 12 12 l 1,59,-1
 12 16 l 25,56,-1
4 16 m 25,60,-1
 8 16 l 1,61,-1
 8 12 l 1,62,-1
 4 12 l 1,63,-1
 4 16 l 25,60,-1
28 24 m 25,64,-1
 32 24 l 1,65,-1
 32 20 l 1,66,-1
 28 20 l 1,67,-1
 28 24 l 25,64,-1
20 24 m 25,68,-1
 24 24 l 1,69,-1
 24 20 l 1,70,-1
 20 20 l 1,71,-1
 20 24 l 25,68,-1
12 24 m 25,72,-1
 16 24 l 1,73,-1
 16 20 l 1,74,-1
 12 20 l 1,75,-1
 12 24 l 25,72,-1
4 24 m 25,76,-1
 8 24 l 1,77,-1
 8 20 l 1,78,-1
 4 20 l 1,79,-1
 4 24 l 25,76,-1
28 32 m 25,80,-1
 32 32 l 1,81,-1
 32 28 l 1,82,-1
 28 28 l 1,83,-1
 28 32 l 25,80,-1
20 32 m 25,84,-1
 24 32 l 1,85,-1
 24 28 l 1,86,-1
 20 28 l 1,87,-1
 20 32 l 25,84,-1
12 32 m 25,88,-1
 16 32 l 1,89,-1
 16 28 l 1,90,-1
 12 28 l 1,91,-1
 12 32 l 25,88,-1
4 32 m 25,92,-1
 8 32 l 1,93,-1
 8 28 l 1,94,-1
 4 28 l 1,95,-1
 4 32 l 25,92,-1
28 40 m 25,96,-1
 32 40 l 1,97,-1
 32 36 l 1,98,-1
 28 36 l 1,99,-1
 28 40 l 25,96,-1
20 40 m 25,100,-1
 24 40 l 1,101,-1
 24 36 l 1,102,-1
 20 36 l 1,103,-1
 20 40 l 25,100,-1
12 40 m 25,104,-1
 16 40 l 1,105,-1
 16 36 l 1,106,-1
 12 36 l 1,107,-1
 12 40 l 25,104,-1
4 40 m 25,108,-1
 8 40 l 1,109,-1
 8 36 l 1,110,-1
 4 36 l 1,111,-1
 4 40 l 25,108,-1
28 48 m 25,112,-1
 32 48 l 1,113,-1
 32 44 l 1,114,-1
 28 44 l 1,115,-1
 28 48 l 25,112,-1
20 48 m 25,116,-1
 24 48 l 1,117,-1
 24 44 l 1,118,-1
 20 44 l 1,119,-1
 20 48 l 25,116,-1
12 48 m 25,120,-1
 16 48 l 1,121,-1
 16 44 l 1,122,-1
 12 44 l 1,123,-1
 12 48 l 25,120,-1
4 48 m 25,124,-1
 8 48 l 1,125,-1
 8 44 l 1,126,-1
 4 44 l 1,127,-1
 4 48 l 25,124,-1
24 -4 m 25,128,-1
 28 -4 l 1,129,-1
 28 -8 l 1,130,-1
 24 -8 l 1,131,-1
 24 -4 l 25,128,-1
16 -4 m 25,132,-1
 20 -4 l 1,133,-1
 20 -8 l 1,134,-1
 16 -8 l 1,135,-1
 16 -4 l 25,132,-1
8 -4 m 25,136,-1
 12 -4 l 1,137,-1
 12 -8 l 1,138,-1
 8 -8 l 1,139,-1
 8 -4 l 25,136,-1
0 -4 m 25,140,-1
 4 -4 l 1,141,-1
 4 -8 l 1,142,-1
 0 -8 l 1,143,-1
 0 -4 l 25,140,-1
24 4 m 25,144,-1
 28 4 l 1,145,-1
 28 0 l 1,146,-1
 24 0 l 1,147,-1
 24 4 l 25,144,-1
16 4 m 25,148,-1
 20 4 l 1,149,-1
 20 0 l 1,150,-1
 16 0 l 1,151,-1
 16 4 l 25,148,-1
8 4 m 25,152,-1
 12 4 l 1,153,-1
 12 0 l 1,154,-1
 8 0 l 1,155,-1
 8 4 l 25,152,-1
0 4 m 25,156,-1
 4 4 l 1,157,-1
 4 0 l 1,158,-1
 0 0 l 1,159,-1
 0 4 l 25,156,-1
24 12 m 25,160,-1
 28 12 l 1,161,-1
 28 8 l 1,162,-1
 24 8 l 1,163,-1
 24 12 l 25,160,-1
16 12 m 25,164,-1
 20 12 l 1,165,-1
 20 8 l 1,166,-1
 16 8 l 1,167,-1
 16 12 l 25,164,-1
8 12 m 25,168,-1
 12 12 l 1,169,-1
 12 8 l 1,170,-1
 8 8 l 1,171,-1
 8 12 l 25,168,-1
0 12 m 25,172,-1
 4 12 l 1,173,-1
 4 8 l 1,174,-1
 0 8 l 1,175,-1
 0 12 l 25,172,-1
24 20 m 25,176,-1
 28 20 l 1,177,-1
 28 16 l 1,178,-1
 24 16 l 1,179,-1
 24 20 l 25,176,-1
16 20 m 25,180,-1
 20 20 l 1,181,-1
 20 16 l 1,182,-1
 16 16 l 1,183,-1
 16 20 l 25,180,-1
8 20 m 25,184,-1
 12 20 l 1,185,-1
 12 16 l 1,186,-1
 8 16 l 1,187,-1
 8 20 l 25,184,-1
0 20 m 25,188,-1
 4 20 l 1,189,-1
 4 16 l 1,190,-1
 0 16 l 1,191,-1
 0 20 l 25,188,-1
24 28 m 25,192,-1
 28 28 l 1,193,-1
 28 24 l 1,194,-1
 24 24 l 1,195,-1
 24 28 l 25,192,-1
16 28 m 25,196,-1
 20 28 l 1,197,-1
 20 24 l 1,198,-1
 16 24 l 1,199,-1
 16 28 l 25,196,-1
8 28 m 25,200,-1
 12 28 l 1,201,-1
 12 24 l 1,202,-1
 8 24 l 1,203,-1
 8 28 l 25,200,-1
0 28 m 25,204,-1
 4 28 l 1,205,-1
 4 24 l 1,206,-1
 0 24 l 1,207,-1
 0 28 l 25,204,-1
24 36 m 25,208,-1
 28 36 l 1,209,-1
 28 32 l 1,210,-1
 24 32 l 1,211,-1
 24 36 l 25,208,-1
16 36 m 25,212,-1
 20 36 l 1,213,-1
 20 32 l 1,214,-1
 16 32 l 1,215,-1
 16 36 l 25,212,-1
8 36 m 25,216,-1
 12 36 l 1,217,-1
 12 32 l 1,218,-1
 8 32 l 1,219,-1
 8 36 l 25,216,-1
0 36 m 25,220,-1
 4 36 l 1,221,-1
 4 32 l 1,222,-1
 0 32 l 1,223,-1
 0 36 l 25,220,-1
24 44 m 25,224,-1
 28 44 l 1,225,-1
 28 40 l 1,226,-1
 24 40 l 1,227,-1
 24 44 l 25,224,-1
16 44 m 25,228,-1
 20 44 l 1,229,-1
 20 40 l 1,230,-1
 16 40 l 1,231,-1
 16 44 l 25,228,-1
8 44 m 25,232,-1
 12 44 l 1,233,-1
 12 40 l 1,234,-1
 8 40 l 1,235,-1
 8 44 l 25,232,-1
0 44 m 25,236,-1
 4 44 l 1,237,-1
 4 40 l 1,238,-1
 0 40 l 1,239,-1
 0 44 l 25,236,-1
24 52 m 25,240,-1
 28 52 l 1,241,-1
 28 48 l 1,242,-1
 24 48 l 1,243,-1
 24 52 l 25,240,-1
16 52 m 25,244,-1
 20 52 l 1,245,-1
 20 48 l 1,246,-1
 16 48 l 1,247,-1
 16 52 l 25,244,-1
8 52 m 25,248,-1
 12 52 l 1,249,-1
 12 48 l 1,250,-1
 8 48 l 1,251,-1
 8 52 l 25,248,-1
0 52 m 25,252,-1
 4 52 l 1,253,-1
 4 48 l 1,254,-1
 0 48 l 1,255,-1
 0 52 l 25,252,-1
EndSplineSet
EndChar

StartChar: dkshade
Encoding: 9619 9619 668
Width: 32
Flags: MW
HStem: -8 4<4 8 12 16 20 24 28 32> 0 4<4 8 12 16 20 24 28 32> 8 4<4 8 12 16 20 24 28 32> 16 4<4 8 12 16 20 24 28 32> 24 4<4 8 12 16 20 24 28 32> 32 4<4 8 12 16 20 24 28 32> 40 4<4 8 12 16 20 24 28 32> 48 4<4 8 12 16 20 24 28 32>
VStem: 0 4<-12 -8 -4 0 4 8 12 16 20 24 28 32 36 40 44 48> 8 4<-12 -8 -4 0 4 8 12 16 20 24 28 32 36 40 44 48> 16 4<-12 -8 -4 0 4 8 12 16 20 24 28 32 36 40 44 48> 24 4<-12 -8 -4 0 4 8 12 16 20 24 28 32 36 40 44 48>
LayerCount: 2
Fore
SplineSet
0 -12 m 1,0,-1
 0 52 l 1,1,-1
 32 52 l 1,2,-1
 32 48 l 1,3,-1
 28 48 l 1,4,-1
 28 44 l 1,5,-1
 32 44 l 1,6,-1
 32 40 l 1,7,-1
 28 40 l 1,8,-1
 28 36 l 1,9,-1
 32 36 l 1,10,-1
 32 32 l 1,11,-1
 28 32 l 1,12,-1
 28 28 l 1,13,-1
 32 28 l 1,14,-1
 32 24 l 1,15,-1
 28 24 l 1,16,-1
 28 20 l 1,17,-1
 32 20 l 1,18,-1
 32 16 l 1,19,-1
 28 16 l 1,20,-1
 28 12 l 1,21,-1
 32 12 l 1,22,-1
 32 8 l 1,23,-1
 28 8 l 1,24,-1
 28 4 l 1,25,-1
 32 4 l 1,26,-1
 32 0 l 1,27,-1
 28 0 l 1,28,-1
 28 -4 l 1,29,-1
 32 -4 l 1,30,-1
 32 -8 l 1,31,-1
 28 -8 l 1,32,-1
 28 -12 l 1,33,-1
 24 -12 l 1,34,-1
 24 -8 l 1,35,-1
 20 -8 l 1,36,-1
 20 -12 l 1,37,-1
 16 -12 l 1,38,-1
 16 -8 l 1,39,-1
 12 -8 l 1,40,-1
 12 -12 l 1,41,-1
 8 -12 l 1,42,-1
 8 -8 l 1,43,-1
 4 -8 l 1,44,-1
 4 -12 l 1,45,-1
 0 -12 l 1,0,-1
4 48 m 1,46,-1
 4 44 l 1,47,-1
 8 44 l 1,48,-1
 8 48 l 1,49,-1
 4 48 l 1,46,-1
12 48 m 1,50,-1
 12 44 l 1,51,-1
 16 44 l 1,52,-1
 16 48 l 1,53,-1
 12 48 l 1,50,-1
20 48 m 1,54,-1
 20 44 l 1,55,-1
 24 44 l 1,56,-1
 24 48 l 1,57,-1
 20 48 l 1,54,-1
4 40 m 1,58,-1
 4 36 l 1,59,-1
 8 36 l 1,60,-1
 8 40 l 1,61,-1
 4 40 l 1,58,-1
12 40 m 1,62,-1
 12 36 l 1,63,-1
 16 36 l 1,64,-1
 16 40 l 1,65,-1
 12 40 l 1,62,-1
20 40 m 1,66,-1
 20 36 l 1,67,-1
 24 36 l 1,68,-1
 24 40 l 1,69,-1
 20 40 l 1,66,-1
4 32 m 1,70,-1
 4 28 l 1,71,-1
 8 28 l 1,72,-1
 8 32 l 1,73,-1
 4 32 l 1,70,-1
12 32 m 1,74,-1
 12 28 l 1,75,-1
 16 28 l 1,76,-1
 16 32 l 1,77,-1
 12 32 l 1,74,-1
20 32 m 1,78,-1
 20 28 l 1,79,-1
 24 28 l 1,80,-1
 24 32 l 1,81,-1
 20 32 l 1,78,-1
4 24 m 1,82,-1
 4 20 l 1,83,-1
 8 20 l 1,84,-1
 8 24 l 1,85,-1
 4 24 l 1,82,-1
12 24 m 1,86,-1
 12 20 l 1,87,-1
 16 20 l 1,88,-1
 16 24 l 1,89,-1
 12 24 l 1,86,-1
20 24 m 1,90,-1
 20 20 l 1,91,-1
 24 20 l 1,92,-1
 24 24 l 1,93,-1
 20 24 l 1,90,-1
4 16 m 1,94,-1
 4 12 l 1,95,-1
 8 12 l 1,96,-1
 8 16 l 1,97,-1
 4 16 l 1,94,-1
12 16 m 1,98,-1
 12 12 l 1,99,-1
 16 12 l 1,100,-1
 16 16 l 1,101,-1
 12 16 l 1,98,-1
20 16 m 1,102,-1
 20 12 l 1,103,-1
 24 12 l 1,104,-1
 24 16 l 1,105,-1
 20 16 l 1,102,-1
4 8 m 1,106,-1
 4 4 l 1,107,-1
 8 4 l 1,108,-1
 8 8 l 1,109,-1
 4 8 l 1,106,-1
12 8 m 1,110,-1
 12 4 l 1,111,-1
 16 4 l 1,112,-1
 16 8 l 1,113,-1
 12 8 l 1,110,-1
20 8 m 1,114,-1
 20 4 l 1,115,-1
 24 4 l 1,116,-1
 24 8 l 1,117,-1
 20 8 l 1,114,-1
4 0 m 1,118,-1
 4 -4 l 1,119,-1
 8 -4 l 1,120,-1
 8 0 l 1,121,-1
 4 0 l 1,118,-1
12 0 m 1,122,-1
 12 -4 l 1,123,-1
 16 -4 l 1,124,-1
 16 0 l 1,125,-1
 12 0 l 1,122,-1
20 0 m 1,126,-1
 20 -4 l 1,127,-1
 24 -4 l 1,128,-1
 24 0 l 1,129,-1
 20 0 l 1,126,-1
EndSplineSet
EndChar

StartChar: filledbox
Encoding: 9632 9632 669
Width: 32
Flags: W
HStem: 8 20<4 24>
VStem: 4 20<8 28>
LayerCount: 2
Fore
SplineSet
4 28 m 1,0,-1
 24 28 l 1,1,-1
 24 8 l 1,2,-1
 4 8 l 1,3,-1
 4 28 l 1,0,-1
EndSplineSet
EndChar

StartChar: H22073
Encoding: 9633 9633 670
Width: 32
Flags: W
HStem: 8 4<8 20> 24 4<8 20>
VStem: 4 4<12 24> 20 4<12 24>
LayerCount: 2
Fore
SplineSet
20 24 m 1,0,-1
 8 24 l 1,1,-1
 8 12 l 1,2,-1
 20 12 l 1,3,-1
 20 24 l 1,0,-1
4 28 m 1,4,-1
 24 28 l 1,5,-1
 24 8 l 1,6,-1
 4 8 l 1,7,-1
 4 28 l 1,4,-1
EndSplineSet
EndChar

StartChar: H18543
Encoding: 9642 9642 671
Width: 32
Flags: W
HStem: 12 12<8 20>
VStem: 8 12<12 24>
LayerCount: 2
Fore
SplineSet
8 24 m 5,0,-1
 20 24 l 1,1,-1
 20 12 l 1,2,-1
 8 12 l 1,3,-1
 8 24 l 5,0,-1
EndSplineSet
EndChar

StartChar: H18551
Encoding: 9643 9643 672
Width: 32
Flags: W
HStem: 12 4<12 16> 20 4<12 16>
VStem: 8 4<16 20> 16 4<16 20>
LayerCount: 2
Fore
SplineSet
16 20 m 29,0,-1
 12 20 l 1,1,-1
 12 16 l 1,2,-1
 16 16 l 1,3,-1
 16 20 l 29,0,-1
8 24 m 5,4,-1
 20 24 l 1,5,-1
 20 12 l 1,6,-1
 8 12 l 1,7,-1
 8 24 l 5,4,-1
EndSplineSet
EndChar

StartChar: filledrect
Encoding: 9644 9644 673
Width: 32
Flags: W
HStem: 4 32<4 28>
VStem: 4 24<4 36>
LayerCount: 2
Fore
SplineSet
4 36 m 25,0,-1
 28 36 l 1,1,-1
 28 4 l 1,2,-1
 4 4 l 1,3,-1
 4 36 l 25,0,-1
EndSplineSet
EndChar

StartChar: triagup
Encoding: 9650 9650 674
Width: 32
Flags: MW
LayerCount: 2
Fore
SplineSet
4 4 m 29,0,-1
 16 36 l 1,1,-1
 28 4 l 1,2,-1
 4 4 l 29,0,-1
EndSplineSet
EndChar

StartChar: triagdn
Encoding: 9660 9660 675
Width: 32
Flags: MW
LayerCount: 2
Fore
SplineSet
28 36 m 29,0,-1
 16 4 l 1,1,-1
 4 36 l 1,2,-1
 28 36 l 29,0,-1
EndSplineSet
EndChar

StartChar: uni25B6
Encoding: 9654 9654 676
Width: 32
Flags: MW
LayerCount: 2
Fore
SplineSet
4 36 m 29,0,-1
 28 20 l 1,1,-1
 4 4 l 1,2,-1
 4 36 l 29,0,-1
EndSplineSet
EndChar

StartChar: uni25C0
Encoding: 9664 9664 677
Width: 32
Flags: MW
LayerCount: 2
Fore
SplineSet
28 4 m 29,0,-1
 4 20 l 1,1,-1
 28 36 l 1,2,-1
 28 4 l 29,0,-1
EndSplineSet
EndChar

StartChar: lozenge
Encoding: 9674 9674 678
Width: 32
Flags: MW
LayerCount: 2
Fore
SplineSet
4 20 m 5,0,-1
 16 32 l 1,1,-1
 28 20 l 1,2,-1
 16 8 l 1,3,-1
 4 20 l 5,0,-1
EndSplineSet
EndChar

StartChar: circle
Encoding: 9675 9675 679
Width: 32
Flags: W
HStem: 8 4<12 20> 28 4<12 20>
VStem: 4 4<16 24> 24 4<16 24>
LayerCount: 2
Fore
SplineSet
4 26 m 5,0,-1
 10 32 l 1,1,-1
 22 32 l 1,2,-1
 28 26 l 1,3,-1
 28 14 l 1,4,-1
 22 8 l 1,5,-1
 10 8 l 1,6,-1
 4 14 l 1,7,-1
 4 26 l 5,0,-1
8 16 m 5,8,-1
 12 12 l 1,9,-1
 20 12 l 1,10,-1
 24 16 l 1,11,-1
 24 24 l 1,12,-1
 20 28 l 1,13,-1
 12 28 l 1,14,-1
 8 24 l 1,15,-1
 8 16 l 5,8,-1
EndSplineSet
EndChar

StartChar: H18533
Encoding: 9679 9679 680
Width: 32
Flags: W
HStem: 12 16<12 20>
VStem: 8 16<16 24>
LayerCount: 2
Fore
SplineSet
8 16 m 5,0,-1
 8 24 l 1,1,-1
 12 28 l 1,2,-1
 20 28 l 1,3,-1
 24 24 l 1,4,-1
 24 16 l 1,5,-1
 20 12 l 1,6,-1
 12 12 l 1,7,-1
 8 16 l 5,0,-1
EndSplineSet
EndChar

StartChar: invbullet
Encoding: 9688 9688 681
Width: 32
Flags: W
VStem: 0 8<16 24> 24 8<16 24>
LayerCount: 2
Fore
SplineSet
0 52 m 25,0,-1
 32 52 l 1,1,-1
 32 -12 l 1,2,-1
 0 -12 l 1,3,-1
 0 52 l 25,0,-1
8 16 m 5,4,-1
 12 12 l 1,5,-1
 20 12 l 1,6,-1
 24 16 l 1,7,-1
 24 24 l 1,8,-1
 20 28 l 1,9,-1
 12 28 l 1,10,-1
 8 24 l 1,11,-1
 8 16 l 5,4,-1
EndSplineSet
EndChar

StartChar: invcircle
Encoding: 9689 9689 682
Width: 32
Flags: MW
VStem: 0 4<14 26> 28 4<14 26>
LayerCount: 2
Fore
SplineSet
4 26 m 5,0,-1
 4 14 l 1,1,-1
 10 8 l 1,2,-1
 22 8 l 1,3,-1
 28 14 l 1,4,-1
 28 26 l 1,5,-1
 22 32 l 1,6,-1
 10 32 l 1,7,-1
 4 26 l 5,0,-1
8 16 m 5,8,-1
 8 24 l 1,9,-1
 12 28 l 1,10,-1
 20 28 l 1,11,-1
 24 24 l 1,12,-1
 24 16 l 1,13,-1
 20 12 l 1,14,-1
 12 12 l 1,15,-1
 8 16 l 5,8,-1
0 52 m 25,16,-1
 32 52 l 1,17,-1
 32 -12 l 1,18,-1
 0 -12 l 1,19,-1
 0 52 l 25,16,-1
EndSplineSet
EndChar

StartChar: openbullet
Encoding: 9702 9702 683
Width: 32
Flags: W
HStem: 12 4<12 16> 20 4<12 16>
VStem: 8 4<16 20> 16 4<16 20>
LayerCount: 2
Fore
SplineSet
16 20 m 25,0,-1
 12 20 l 1,1,-1
 12 16 l 1,2,-1
 16 16 l 1,3,-1
 16 20 l 25,0,-1
12 24 m 1,4,-1
 16 24 l 1,5,-1
 20 20 l 1,6,-1
 20 16 l 1,7,-1
 16 12 l 1,8,-1
 12 12 l 1,9,-1
 8 16 l 1,10,-1
 8 20 l 1,11,-1
 12 24 l 1,4,-1
EndSplineSet
EndChar

StartChar: smileface
Encoding: 9786 9786 684
Width: 32
Flags: MW
HStem: 8 4<4 12 16 24> 24 4<8 12 16 20> 32 4<4 24>
VStem: 0 4<12 32> 8 4<24 28> 16 4<24 28> 24 4<12 32>
LayerCount: 2
Fore
SplineSet
0 12 m 1,0,-1
 0 32 l 1,1,-1
 4 36 l 1,2,-1
 24 36 l 1,3,-1
 28 32 l 1,4,-1
 28 12 l 1,5,-1
 24 8 l 1,6,-1
 4 8 l 1,7,-1
 0 12 l 1,0,-1
24 32 m 5,8,-1
 4 32 l 1,9,-1
 4 12 l 1,10,-1
 12 12 l 1,11,-1
 8 16 l 1,12,-1
 8 20 l 1,13,-1
 20 20 l 1,14,-1
 20 16 l 1,15,-1
 16 12 l 1,16,-1
 24 12 l 1,17,-1
 24 32 l 5,8,-1
8 28 m 1,18,-1
 12 28 l 1,19,-1
 12 24 l 1,20,-1
 8 24 l 1,21,-1
 8 28 l 1,18,-1
16 28 m 1,22,-1
 20 28 l 1,23,-1
 20 24 l 1,24,-1
 16 24 l 1,25,-1
 16 28 l 1,22,-1
EndSplineSet
EndChar

StartChar: invsmileface
Encoding: 9787 9787 685
Width: 32
Flags: W
HStem: 8 4<12 16> 20 4<8 12 16 20> 28 8<8 12 16 20>
VStem: 0 8<16 20 24 28> 20 8<16 20 24 28>
LayerCount: 2
Fore
SplineSet
20 20 m 25,0,-1
 8 20 l 1,1,-1
 8 16 l 1,2,-1
 12 12 l 1,3,-1
 16 12 l 1,4,-1
 20 16 l 1,5,-1
 20 20 l 25,0,-1
20 28 m 25,6,-1
 16 28 l 1,7,-1
 16 24 l 1,8,-1
 20 24 l 1,9,-1
 20 28 l 25,6,-1
0 12 m 1,10,-1
 0 32 l 1,11,-1
 4 36 l 1,12,-1
 24 36 l 1,13,-1
 28 32 l 1,14,-1
 28 12 l 1,15,-1
 24 8 l 1,16,-1
 4 8 l 1,17,-1
 0 12 l 1,10,-1
12 24 m 1,18,-1
 12 28 l 1,19,-1
 8 28 l 1,20,-1
 8 24 l 1,21,-1
 12 24 l 1,18,-1
EndSplineSet
EndChar

StartChar: sun
Encoding: 9788 9788 686
Width: 32
Flags: MW
HStem: 12 4<8 12 16 20> 20 4<0 4 24 28> 28 4<8 12 16 20>
VStem: 4 4<16 20 24 28> 12 4<8 12 32 36> 20 4<16 20 24 28>
CounterMasks: 1 fc
LayerCount: 2
Fore
SplineSet
20 28 m 25,0,-1
 8 28 l 1,1,-1
 8 16 l 1,2,-1
 20 16 l 1,3,-1
 20 28 l 25,0,-1
0 24 m 1,4,-1
 4 24 l 1,5,-1
 4 30 l 1,6,-1
 0 34 l 1,7,-1
 0 36 l 1,8,-1
 2 36 l 1,9,-1
 6 32 l 1,10,-1
 12 32 l 1,11,-1
 12 36 l 1,12,-1
 16 36 l 1,13,-1
 16 32 l 1,14,-1
 22 32 l 1,15,-1
 26 36 l 1,16,-1
 28 36 l 1,17,-1
 28 34 l 1,18,-1
 24 30 l 1,19,-1
 24 24 l 1,20,-1
 28 24 l 1,21,-1
 28 20 l 1,22,-1
 24 20 l 1,23,-1
 24 14 l 1,24,-1
 28 10 l 1,25,-1
 28 8 l 1,26,-1
 26 8 l 1,27,-1
 22 12 l 1,28,-1
 16 12 l 1,29,-1
 16 8 l 1,30,-1
 12 8 l 1,31,-1
 12 12 l 1,32,-1
 6 12 l 1,33,-1
 2 8 l 1,34,-1
 0 8 l 1,35,-1
 0 10 l 1,36,-1
 4 14 l 1,37,-1
 4 20 l 1,38,-1
 0 20 l 1,39,-1
 0 24 l 1,4,-1
EndSplineSet
EndChar

StartChar: female
Encoding: 9792 9792 687
Width: 32
Flags: MW
HStem: 12 4<8 12 16 20> 20 4<8 12 16 20> 32 4<8 20>
VStem: 4 4<24 32> 12 4<8 12 16 20> 20 4<24 32>
LayerCount: 2
Fore
SplineSet
20 32 m 29,0,-1
 8 32 l 1,1,-1
 8 24 l 1,2,-1
 20 24 l 1,3,-1
 20 32 l 29,0,-1
12 8 m 1,4,-1
 12 12 l 1,5,-1
 8 12 l 1,6,-1
 8 16 l 1,7,-1
 12 16 l 1,8,-1
 12 20 l 1,9,-1
 8 20 l 1,10,-1
 4 24 l 1,11,-1
 4 32 l 1,12,-1
 8 36 l 1,13,-1
 20 36 l 1,14,-1
 24 32 l 1,15,-1
 24 24 l 1,16,-1
 20 20 l 1,17,-1
 16 20 l 1,18,-1
 16 16 l 1,19,-1
 20 16 l 1,20,-1
 20 12 l 1,21,-1
 16 12 l 1,22,-1
 16 8 l 1,23,-1
 12 8 l 1,4,-1
EndSplineSet
EndChar

StartChar: male
Encoding: 9794 9794 688
Width: 32
Flags: W
HStem: 8 4<4 12> 20 4<4 12> 32 4<12 22>
VStem: 0 4<12 20> 12 4<12 20> 24 4<20 30>
CounterMasks: 1 fc
LayerCount: 2
Fore
SplineSet
12 20 m 25,0,-1
 4 20 l 1,1,-1
 4 12 l 1,2,-1
 12 12 l 1,3,-1
 12 20 l 25,0,-1
0 20 m 1,4,-1
 4 24 l 1,5,-1
 14 24 l 1,6,-1
 22 32 l 1,7,-1
 12 32 l 1,8,-1
 12 36 l 1,9,-1
 28 36 l 1,10,-1
 28 20 l 1,11,-1
 24 20 l 1,12,-1
 24 30 l 1,13,-1
 16 22 l 1,14,-1
 16 12 l 1,15,-1
 12 8 l 1,16,-1
 4 8 l 1,17,-1
 0 12 l 1,18,-1
 0 20 l 1,4,-1
EndSplineSet
EndChar

StartChar: spade
Encoding: 9824 9824 689
Width: 32
Flags: W
HStem: 8 4<8 12 16 20>
VStem: 12 4<12 16>
LayerCount: 2
Fore
SplineSet
8 8 m 29,0,-1
 8 12 l 1,1,-1
 12 12 l 1,2,-1
 12 16 l 1,3,-1
 4 16 l 1,4,-1
 0 20 l 1,5,-1
 0 24 l 1,6,-1
 14 36 l 1,7,-1
 28 24 l 1,8,-1
 28 20 l 1,9,-1
 24 16 l 1,10,-1
 16 16 l 1,11,-1
 16 12 l 1,12,-1
 20 12 l 1,13,-1
 20 8 l 1,14,-1
 8 8 l 29,0,-1
EndSplineSet
EndChar

StartChar: club
Encoding: 9827 9827 690
Width: 32
Flags: MW
HStem: 8 4<8 12 16 20> 20 4<10 12 16 18>
VStem: 12 4<12 20 24 26>
LayerCount: 2
Fore
SplineSet
8 8 m 25,0,-1
 8 12 l 1,1,-1
 12 12 l 1,2,-1
 12 20 l 1,3,-1
 10 20 l 1,4,-1
 6 16 l 1,5,-1
 4 16 l 1,6,-1
 0 20 l 1,7,-1
 0 24 l 1,8,-1
 4 28 l 1,9,-1
 6 28 l 1,10,-1
 10 24 l 1,11,-1
 12 24 l 1,12,-1
 12 26 l 1,13,-1
 8 30 l 1,14,-1
 8 32 l 1,15,-1
 12 36 l 1,16,-1
 16 36 l 1,17,-1
 20 32 l 1,18,-1
 20 30 l 1,19,-1
 16 26 l 1,20,-1
 16 24 l 1,21,-1
 18 24 l 1,22,-1
 22 28 l 1,23,-1
 24 28 l 1,24,-1
 28 24 l 1,25,-1
 28 20 l 1,26,-1
 24 16 l 1,27,-1
 22 16 l 1,28,-1
 18 20 l 1,29,-1
 16 20 l 1,30,-1
 16 12 l 1,31,-1
 20 12 l 1,32,-1
 20 8 l 1,33,-1
 8 8 l 25,0,-1
EndSplineSet
EndChar

StartChar: heart
Encoding: 9829 9829 691
Width: 32
Flags: W
LayerCount: 2
Fore
SplineSet
14 8 m 1,0,-1
 0 20 l 1,1,-1
 0 30 l 1,2,-1
 6 36 l 1,3,-1
 10 36 l 1,4,-1
 14 32 l 1,5,-1
 18 36 l 1,6,-1
 22 36 l 1,7,-1
 28 30 l 1,8,-1
 28 20 l 1,9,-1
 14 8 l 1,0,-1
EndSplineSet
EndChar

StartChar: diamond
Encoding: 9830 9830 692
Width: 32
Flags: W
LayerCount: 2
Fore
SplineSet
0 22 m 29,0,-1
 14 36 l 1,1,-1
 28 22 l 1,2,-1
 14 8 l 1,3,-1
 0 22 l 29,0,-1
EndSplineSet
EndChar

StartChar: musicalnote
Encoding: 9834 9834 693
Width: 32
Flags: MW
VStem: 12 4<16 32> 24 4<28 32>
LayerCount: 2
Fore
SplineSet
0 6 m 1,0,-1
 0 10 l 1,1,-1
 6 16 l 1,2,-1
 12 16 l 1,3,-1
 12 44 l 1,4,-1
 18 44 l 1,5,-1
 28 34 l 1,6,-1
 28 28 l 1,7,-1
 24 28 l 1,8,-1
 24 32 l 1,9,-1
 16 32 l 1,10,-1
 16 6 l 1,11,-1
 10 0 l 1,12,-1
 6 0 l 1,13,-1
 0 6 l 1,0,-1
EndSplineSet
EndChar

StartChar: musicalnotedbl
Encoding: 9835 9835 694
Width: 32
Flags: MW
HStem: 36 8<12 24>
VStem: 8 4<12 36> 24 4<12 36>
LayerCount: 2
Fore
SplineSet
0 8 m 1,0,-1
 4 12 l 1,1,-1
 8 12 l 1,2,-1
 8 44 l 1,3,-1
 28 44 l 1,4,-1
 28 0 l 1,5,-1
 20 0 l 1,6,-1
 16 4 l 1,7,-1
 16 8 l 1,8,-1
 20 12 l 1,9,-1
 24 12 l 1,10,-1
 24 36 l 1,11,-1
 12 36 l 1,12,-1
 12 0 l 1,13,-1
 4 0 l 1,14,-1
 0 4 l 1,15,-1
 0 8 l 1,0,-1
EndSplineSet
EndChar
